<?xml version="1.0" standalone="no"?>
<!DOCTYPE svg PUBLIC "-//W3C//DTD SVG 1.1//EN" "http://www.w3.org/Graphics/SVG/1.1/DTD/svg11.dtd" >
<svg>
<metadata>
Created by FontForge 20090622 at Mon Nov 12 16:49:48 2018
 By ffonts
Copyright (c) 2013 by Skid Maher &#38; Robothaus. All rights reserved.
</metadata>
<defs>
<font id="Skidoo-Thin" horiz-adv-x="364" >
  <font-face 
    font-family="Skidoo"
    font-weight="250"
    font-stretch="normal"
    units-per-em="1000"
    panose-1="2 0 6 3 0 0 0 0 0 0"
    ascent="800"
    descent="-200"
    x-height="533.5"
    cap-height="737.5"
    bbox="-30.2857 -192.68 860.087 835.083"
    underline-thickness="50"
    underline-position="-100"
    unicode-range="U+0020-U+3000"
  />
<missing-glyph 
d="M66 33h199v600h-199v-600zM33 0v666h265v-666h-265z" />
    <glyph glyph-name=".notdef" 
d="M66 33h199v600h-199v-600zM33 0v666h265v-666h-265z" />
    <glyph glyph-name="NULL" horiz-adv-x="0" 
 />
    <glyph glyph-name="nonmarkingreturn" horiz-adv-x="333" 
 />
    <glyph glyph-name="space" unicode=" " horiz-adv-x="300" 
 />
    <glyph glyph-name="exclam" unicode="!" horiz-adv-x="354" 
d="M218 79v-1v1zM175 54v-3v3zM200 657q0 -73 6.5 -212t7.5 -155q0 -16 -11 -28t-27.5 -12.5t-28.5 10.5t-13 28q0 14 -7 155t-7 214q0 16 12 28t28 12t28 -12t12 -28zM254 64q1 -13 0 -21q-3 -27 -25 -38q-19 -9 -40 0q-7 2 -19 9q-33 18 -54 28q-15 7 -20.5 22.5t1.5 30.5
t22.5 20.5t30.5 -1.5l22 -11q-1 10 -1 19q0 16 11.5 28t28 12t28.5 -11.5t12 -28t3 -58.5z" />
    <glyph glyph-name="quotedbl" unicode="&#x22;" horiz-adv-x="437" 
d="M124 637l1 -96q0 -16 -11.5 -28t-28 -12t-28.5 11.5t-12 28.5l-1 96q0 16 11.5 28t28 12t28.5 -11.5t12 -28.5zM332 629l6 -111q1 -16 -10 -28.5t-27.5 -13.5t-29 10t-13.5 28l-6 111q-1 16 10 28.5t27.5 13.5t29 -10t13.5 -28z" />
    <glyph glyph-name="numbersign" unicode="#" horiz-adv-x="716" 
d="M382 313l14 96q-37 0 -159 -1q-11 -46 -21 -103q85 5 166 8zM370 233q-82 -3 -168 -9l-5 -30q-2 -17 -15.5 -26.5t-30 -7t-26 16t-6.5 29.5l2 12q-49 -4 -100 -10q-16 -1 -29 9t-14.5 26.5t8.5 29.5t27 15q62 6 121 11q11 60 21 108h-63q-16 0 -28 12t-12 28t12 28t28 12
h81q15 58 32 110q5 16 20 23.5t30.5 2.5t23 -20t2.5 -30q-15 -45 -25 -85q106 1 152 1l11 71q2 16 15.5 26t29.5 7.5t26 -16t7 -29.5l-9 -59h23q17 0 28.5 -12t11.5 -28.5t-12 -28t-28 -11.5h-34l-14 -95q58 0 116 -1q16 -1 27.5 -12.5t11 -28t-12 -28t-28.5 -11.5
q-63 2 -126 1l-19 -106q-3 -17 -16.5 -26t-30 -6t-25.5 16.5t-6 29.5q9 47 16 91z" />
    <glyph glyph-name="dollar" unicode="$" horiz-adv-x="601" 
d="M283 453q2 75 6 156q-18 -13 -32 -29q-37 -45 -17 -85q10 -18 43 -42zM361 301q0 -101 4 -195q30 5 43 21q17 22 12 71q-3 30 -20 60q-13 21 -39 43zM443 619q-1 0 -54 11q-11 2 -19 3q-7 -123 -9 -233q79 -53 107 -102q27 -45 32 -92q8 -82 -30 -129q-34 -42 -99 -50h-1
q3 -42 7 -83q1 -17 -9.5 -29.5t-27 -14t-29 9t-14.5 26.5q-4 45 -7 91q-51 6 -126 28q-16 4 -24 18.5t-3.5 30.5t19 24t30.5 3q59 -17 100 -23q-6 119 -5 249q-27 18 -43 30t-37 32t-31 40q-16 30 -16 63t11.5 59t30.5 50q40 49 98 70l6 97q1 16 13.5 27t29 10t27.5 -13.5
t10 -29.5l-6 -80q14 -1 30 -4q6 -2 16 -4t18.5 -4t16.5 -3q16 -2 26 -15t7.5 -29.5t-15.5 -26.5t-30 -7z" />
    <glyph glyph-name="percent" unicode="%" horiz-adv-x="796" 
d="M203 608q-3 1 -6 0q-17 -1 -36.5 -19t-30.5 -46q-12 -29 -9 -50t17 -33q27 -22 57 -9t35 48q2 15 -7 42q-1 4 -3 9l-3 10l-3 9q-7 20 -10 33q0 3 -1 6zM293 583l6 -18q14 -44 9 -76q-6 -49 -42 -84t-82.5 -38.5t-95.5 31.5q-28 22 -39 54.5t-8 62.5t15 59q18 43 53.5 76
t79.5 38q28 2 64 -12l22 -10q11 -5 18 -7q15 -5 23 -19.5t3 -30.5q-6 -20 -26 -26zM645 316q15 -9 19 -26q2 -8 4.5 -16t7 -20t7.5 -22q16 -48 5 -84q-10 -35 -37 -56t-61 -28q-64 -12 -124 17q-71 34 -79 100q-9 73 71 146q42 37 107 60q20 7 50 8q2 0 16 0.5t22 1.5
q16 1 29 -9.5t14.5 -26.5t-9 -29t-26.5 -15q-7 0 -16 -1zM601 314q-5 -1 -10 -3q-50 -17 -79 -44q-50 -45 -46 -76q2 -23 34 -38q37 -18 74 -11q31 6 38 28q3 12 -5 38q-1 4 -6 17.5t-9 26t-6 22.5q-5 25 15 40zM570 638q-42 -53 -88 -119l-76 -114l-80 -129l-75 -119
q-9 -14 -25.5 -17.5t-30 5t-17 25t4.5 29.5l77 121l82 130q30 49 76.5 116.5t89.5 121.5q10 13 26.5 14.5t29.5 -8.5t14.5 -26.5t-8.5 -29.5z" />
    <glyph glyph-name="ampersand" unicode="&#x26;" horiz-adv-x="739" 
d="M392 185q-46 55 -82 113q-25 -35 -38 -67q-4 -8 -9 -19l-7 -14q-1 -4 -3.5 -11t-2 -8.5t0.5 -7.5q4 -21 33 -30q31 -10 56 1q22 10 52 43zM328 443l43 40q14 12 48 38q27 20 38 31q25 27 27 31q8 10 8 15q0 34 -21 45q-25 12 -60 0q-78 -26 -94 -85q-12 -47 11 -115z
M576 39q-5 4 -23 13t-34 18t-28 18q-21 16 -44 39q-38 -41 -75 -57q-52 -24 -112 -5q-31 10 -55 32t-32 56q-1 17 -1.5 27t4.5 26l8 24q2 7 8 19t6 14q23 54 71 113l-5 12q-45 108 -24 189q26 101 145 142q67 22 122 -5q65 -34 65 -116q0 -32 -24 -63q-5 -8 -33 -37
q-17 -18 -49 -41.5t-41 -31.5q-33 -31 -61 -61q33 -61 83 -120q18 16 37 27q14 9 33 17t40 15.5t28 10.5q15 6 30 0t21.5 -21.5t0.5 -30.5t-22 -22q-14 -6 -33 -12.5t-32.5 -12t-25.5 -12.5q-11 -7 -23 -18q20 -20 38 -33q10 -8 21 -14t27 -14l29 -15q14 -9 18.5 -24.5
t-4 -30t-24 -19t-30.5 3.5z" />
    <glyph glyph-name="quotesingle" unicode="'" horiz-adv-x="249" 
d="M150 657q-1 -107 0 -202q0 -16 -11.5 -28t-28 -12t-28.5 11.5t-12 28.5q-1 95 0 202q0 17 12 28.5t28.5 11.5t28 -12t11.5 -28z" />
    <glyph glyph-name="parenleft" unicode="(" horiz-adv-x="363" 
d="M257 638q-115 -165 -117 -327t102 -335q9 -14 4.5 -30t-18.5 -24.5t-30 -4t-24 18.5q-77 130 -102 252t4 246.5t115 249.5q10 13 26 16t29.5 -6.5t16.5 -25.5t-6 -30z" />
    <glyph glyph-name="parenright" unicode=")" horiz-adv-x="404" 
d="M177 730l26 -64l29 -70q13 -30 28 -71t24 -77.5t15.5 -76.5t5.5 -81q-1 -39 -10 -78q-6 -26 -43 -104l-47 -96q-7 -15 -23 -20.5t-30.5 1.5t-20 23t1.5 30l47 96q33 70 37 88q8 32 9 65t-5 67.5t-14 65.5t-22 69l-25 67l-30 69l-27 67q-6 16 0.5 31t22 21t30.5 -0.5
t21 -21.5z" />
    <glyph glyph-name="asterisk" unicode="*" horiz-adv-x="628" 
d="M379 583q50 16 93 36q15 7 30.5 1.5t22.5 -20.5t1.5 -30.5t-20.5 -22.5q-66 -30 -150 -54l2 -20q89 -79 139 -130q11 -12 11 -28.5t-12 -28t-28.5 -11.5t-28.5 12q-29 31 -72 70q-8 -24 -34 -27q-16 -1 -29 9t-15 27l-5 48q-30 -51 -59 -95q-9 -14 -25 -17t-30 6t-17 25
t6 30l60 97l-79 -18q-16 -4 -30 5t-18 25t5 30t25 18l55 12q-66 66 -111 124q-10 13 -7.5 29.5t15.5 26.5t29.5 7.5t26.5 -15.5q56 -73 139 -151l2 1q-3 59 -3 111q0 17 12 28.5t28 11.5q24 0 35 -21l43 78q8 15 24 19.5t30.5 -3.5t19 -24t-3.5 -30z" />
    <glyph glyph-name="plus" unicode="+" horiz-adv-x="638" 
d="M269 474q-2 45 -2 102q0 16 12 28t28 12t28 -12t12 -28q0 -55 1 -98q86 4 146 12q16 3 29 -7t15.5 -26.5t-7.5 -29.5t-27 -15q-61 -9 -152 -14q4 -61 12 -117q3 -16 -7 -29.5t-26 -16t-29.5 7.5t-15.5 26q-9 60 -14 126q-86 -4 -136 -9q-17 -1 -29.5 9.5t-14 27t9 29
t26.5 14.5q52 5 141 8z" />
    <glyph glyph-name="comma" unicode="," horiz-adv-x="310" 
d="M209 124l-16 -47q-8 -23 -9.5 -26.5t-5.5 -16.5l-4 -16q-1 -3 -6 -26l-12 -49q-4 -16 -18.5 -24.5t-30.5 -4.5t-24.5 18.5t-4.5 30.5l12 48q7 25 7.5 28t4.5 17.5t5.5 18t9.5 27.5l16 48q6 15 20.5 22.5t30 2t23 -20t2.5 -30.5z" />
    <glyph glyph-name="hyphen" unicode="-" horiz-adv-x="349" 
d="M199 320q-36 -2 -90 -4q-78 -4 -95 -4h-7h-4q-8 1 -16 7q-22 15 -16 41q3 17 18 26q5 3 11 4q5 2 16 3q19 1 70 5q1 0 87 3q6 0 13 -2h4q6 1 7 1h4h1h1h1h2l2 -1h5q-5 1 -8 2q1 -1 3 -2q10 -3 18 -8t17.5 -14t5.5 -22t-22 -27q-4 -3 -8 -4.5t-6 -2.5h-2h-3l-1 -1h-1h-1
h-3h-3z" />
    <glyph glyph-name="period" unicode="." horiz-adv-x="380" 
d="M192 181q54 0 73 -39q18 -37 15 -66q-3 -37 -35 -55q-40 -23 -108 0q-59 19 -94 57q-22 24 -27 50q-7 35 16 64q47 59 94 52q42 -6 64 -58zM99 135q-1 7 0 13l-5 -6q2 -3 5 -7z" />
    <glyph glyph-name="slash" unicode="/" horiz-adv-x="571" 
d="M469 664q-50 -129 -157 -338q-142 -278 -166 -329q-7 -15 -22.5 -20.5t-30.5 1.5t-20.5 22.5t1.5 30.5l167 331q99 195 154 332q6 15 21 21.5t30.5 0.5t22 -21t0.5 -31z" />
    <glyph glyph-name="zero" unicode="0" horiz-adv-x="636" 
d="M358 540q-9 0 -26.5 1.5t-20.5 1.5q-24 1 -38 -3q-37 -9 -75 -46t-61 -88q-23 -50 -20 -95t31 -72q8 -8 17 -12.5t29 -12.5t30 -13q115 -50 163 -35q52 16 68 131q10 82 -35 160q-5 9 -11.5 16.5t-18 18.5t-22.5 23q-10 11 -10 25zM404 580q14 -2 24 -13l16 -15
q14 -14 26 -28t20 -27q58 -102 43 -210q-22 -166 -123 -197q-76 -24 -218 39q-4 1 -20 7.5t-27 11.5t-26 14t-25 19q-36 34 -48.5 80.5t-6.5 90.5q6 43 26 87q30 65 79 114q51 50 109 65q25 6 62 4q6 0 15.5 -0.5t17.5 -1t16 -0.5q16 0 28 -11.5t12 -28.5z" />
    <glyph glyph-name="one" unicode="1" horiz-adv-x="442" 
d="M126 500l55 60q25 27 41 42l19 15q6 4 12 7q16 7 32 2q26 -9 37 -44q6 -19 11 -49q6 -46 8 -128q3 -104 -1 -215q-1 -17 -13 -28t-28.5 -10.5t-27.5 12.5t-11 28q4 113 2 211q-2 75 -8 118l-15 -15l-53 -60q-12 -12 -28 -13t-28.5 10.5t-13.5 27.5t10 29z" />
    <glyph glyph-name="two" unicode="2" horiz-adv-x="616" 
d="M84 582q67 48 115 71q96 45 157 15q63 -30 94 -144q26 -94 14 -160q-11 -64 -46 -117q-42 -65 -104 -105q99 5 161 9q17 1 29 -10.5t13 -28t-10.5 -28.5t-27.5 -13q-44 -2 -213 -12q-80 -5 -87 -5q-17 -1 -27 -1h-9h-6q-5 1 -9 3q-24 25 -25 31q-6 32 21 53q12 10 34 16
q10 2 19 4t13 3t7 3q5 3 15 8q40 22 58 33.5t40.5 32.5t41.5 51q25 40 34 87q8 46 -13 125q-10 38 -25 63q-14 24 -26 30q-28 14 -89 -15q-42 -20 -103 -63q-13 -10 -29.5 -7.5t-26 16t-7 30t16.5 25.5z" />
    <glyph glyph-name="three" unicode="3" horiz-adv-x="515" 
d="M114 659q113 9 190 -21q54 -22 85 -66t26 -112q-6 -67 -53 -114q-10 -10 -25 -16q3 -3 6 -5q1 -1 16 -13l21 -18q28 -28 32 -60q4 -36 -9.5 -70.5t-36.5 -60.5q-25 -28 -56.5 -44.5t-58.5 -22.5t-64.5 -4.5t-57.5 4.5t-55 10q-11 2 -16 3q-16 3 -25.5 16.5t-6.5 29.5
t16.5 25.5t29.5 6.5l48 -9l43 -5.5t43 -1.5t35.5 5.5t36.5 13.5q15 10 28 25q30 34 26 69q0 5 -9 13q-5 5 -14 13l-18 15q-2 1 -6.5 2.5t-12.5 3.5t-11 3q-21 7 -32 16q-27 21 -20 54q6 30 35 43q13 7 35 10l27 5q26 27 29 64q6 71 -61 98q-59 24 -154 15q-16 -1 -28.5 9.5
t-14 27t9 29t27.5 14.5z" />
    <glyph glyph-name="four" unicode="4" horiz-adv-x="594" 
d="M446 585q-4 -120 15 -286q9 -9 12 -21q4 -17 -6 -32q1 -13 12 -94t16 -126q1 -16 -9 -29t-26.5 -14.5t-29.5 8.5t-15 27q0 7 -25 200q-85 -19 -151 -27q-76 -8 -124 -1q-76 11 -95 61q-5 14 2 33v1l1 2l1 1l6 10l19 35l61 107l98 173q9 14 25 18t30 -5t18 -25t-5 -30
q-8 -12 -97 -170l-60 -107l-12 -22q8 -2 19 -4q38 -5 103.5 2.5t151.5 26.5q-19 168 -15 290q1 17 13 28t28.5 10.5t27.5 -12.5t11 -28z" />
    <glyph glyph-name="five" unicode="5" horiz-adv-x="608" 
d="M160 635q37 6 80 10t73 5t80.5 2.5t73.5 2.5q17 0 29 -11t12.5 -27.5t-10.5 -28.5t-27 -13q-26 -1 -77.5 -2.5t-80.5 -2.5t-70 -4.5t-75 -9.5q2 -44 4 -81q4 -51 10 -82l2 -12q32 16 55 15q68 -3 117 -29q42 -21 69.5 -58t32.5 -80q4 -47 -22.5 -86t-80.5 -59
q-26 -10 -51 -13t-54 3l-40 8q-13 2 -46.5 14.5t-35.5 12.5q-15 6 -22.5 20.5t-2 30t20 23t30.5 2.5q10 -4 33 -12l32 -11q9 -3 26.5 -7.5t28 -4.5t25 1.5t28.5 6.5q56 21 51 63q-2 21 -17.5 41.5t-40.5 34.5q-34 17 -85 19l-23 -10q-46 -21 -77 2q-15 11 -23 35
q-5 15 -8 36q-7 35 -11 89q-3 35 -4 77q-21 7 -27 29q-3 14 4 27.5t21 18.5q1 15 12 24.5t26 10.5q23 0 35 -20z" />
    <glyph glyph-name="six" unicode="6" horiz-adv-x="625" 
d="M219 168q36 -32 82 -47q91 -31 130 25q19 34 15 65t-30 51.5t-59 16.5q-42 -6 -93 -59q-19 -19 -45 -52zM341 580q-22 -6 -50 -36q-19 -19 -43 -64q-24 -43 -44 -96q-21 -57 -28 -100q-4 -27 -2 -45q18 22 33 37q70 72 138 81q54 8 96.5 -15.5t63.5 -62.5t20 -88t-28 -89
q-26 -38 -66 -55.5t-78 -16t-78 14.5q-60 21 -108 63q-25 -15 -47 4q-12 11 -13.5 27t8.5 29q-6 11 -11 22q-16 40 -7 106q8 52 32 115q21 58 50 110t54 79q44 45 86 57q11 3 25 5t33.5 4t28.5 3q16 3 29 -7t15.5 -26.5t-7.5 -29.5t-26.5 -15.5t-33 -4t-25.5 -2.5t-17 -4z
" />
    <glyph glyph-name="seven" unicode="7" horiz-adv-x="536" 
d="M113 661q3 0 24 0.5t53 1t59 1.5q54 1 86 1q19 -1 30 -1q7 -1 12 -2q4 0 8 -1q11 -3 18 -11q41 -41 32 -129q-4 -30 -22 -70q-23 -49 -24 -52q-14 -38 -28 -81l-31 -98l-25 -83q-5 -16 -19.5 -23.5t-30.5 -2.5t-23.5 19.5t-2.5 30.5l26 84l31 99q14 44 29 83q2 6 26 58
q13 27 14 44q5 37 -3 56h-18q-30 0 -84 -1q-27 0 -59 -1t-53 -1.5t-25 -0.5q-16 0 -28 11.5t-12 28t11.5 28.5t28.5 12z" />
    <glyph glyph-name="eight" unicode="8" horiz-adv-x="593" 
d="M272 416l4 3q44 34 60 49q22 20 25 27q4 10 1 34q-1 4 -1.5 8.5t-1.5 10t-2 8.5q-2 14 -3 25q-15 3 -28 4q-42 6 -61 -3q-22 -10 -43.5 -32t-31.5 -45q-9 -22 -5 -39q4 -18 26 -31q15 -10 61 -19zM435 574l1 -4q5 -29 5 -30q6 -44 -6 -75q-10 -24 -46 -56l-17 -15l3 -1
q64 -20 93 -62q37 -51 21 -134q-10 -49 -41.5 -81.5t-69.5 -44.5q-37 -12 -79 -9q-62 4 -115 38q-53 35 -64 92q-4 22 3 47.5t13 35.5q4 8 17 30t43 49q-16 6 -27 13q-49 31 -61 80q-10 42 9 88q16 38 47.5 70t66.5 49q41 19 106 10q14 -2 29 -5t32 -7t24 -5q16 -3 25 -17
t6 -30q-3 -17 -18 -26zM292 331q-57 -45 -71 -68q-26 -42 -23 -55q5 -24 34.5 -44t71.5 -22.5t71 15.5t36 56q10 48 -8 73q-13 19 -52 32q-21 6 -59 13z" />
    <glyph glyph-name="nine" unicode="9" horiz-adv-x="585" 
d="M369 564q-44 22 -72 25q-43 5 -82 -29q-13 -12 -28.5 -37.5t-22.5 -51.5q-6 -26 -1 -42q4 -14 20 -20q26 -12 73.5 2t72.5 39q13 13 33 66q2 6 7 48zM369 379q-38 -29 -90 -44q-75 -22 -128 0q-50 22 -65 71q-11 37 1 85q10 37 31.5 73t44.5 56q65 58 143 48
q45 -5 114 -40q3 -1 7 -2q16 -5 24 -20q3 -5 5 -11q10 -31 1 -75q-8 -46 -8 -51q-3 -66 1 -103q2 -30 35 -197q3 -17 -6 -30.5t-25.5 -16.5t-30 6t-16.5 25q-35 180 -37 207q0 9 -1 19z" />
    <glyph glyph-name="colon" unicode=":" horiz-adv-x="301" 
d="M168 546q12 -12 12 -28t-12 -28t-28 -12t-28 12t-12 28t12 28t28 12t28 -12zM190 133q12 -12 12 -28t-12 -28t-28 -12t-28 12t-12 28t12 28t28 12t28 -12z" />
    <glyph glyph-name="semicolon" unicode=";" horiz-adv-x="304" 
d="M183 143q-3 -19 -7.5 -42.5t-4.5 -25.5t-3 -16t-4 -17.5t-6 -27.5l-12 -48q-4 -16 -18 -25t-30 -5t-25 18t-5 30l12 48l6 27l4 17q3 12 3 14t4 24.5t8 42.5q3 16 16.5 25.5t29.5 6.5t25.5 -16.5t6.5 -29.5zM193 538q12 -12 12 -28t-12 -28t-28 -12t-28 12t-12 28t12 28
t28 12t28 -12z" />
    <glyph glyph-name="less" unicode="&#x3c;" horiz-adv-x="570" 
d="M456 577q-80 -62 -257 -178q-11 -7 -29 -15l-10 -4q23 -13 65 -33l79 -35q43 -18 51 -23q15 -7 20 -23t-2.5 -30.5t-23.5 -19.5t-30 3q-6 3 -47 20l-80 36q-50 23 -77 39q-19 11 -30 20q-22 19 -23 42q-1 44 50 69q4 2 27 12q12 5 16 8q170 112 251 174q13 10 29.5 8.5
t26.5 -14.5t8.5 -29.5t-14.5 -26.5z" />
    <glyph glyph-name="equal" unicode="=" horiz-adv-x="666" 
d="M129 488q232 10 398 10q17 0 28.5 -12t11.5 -28.5t-12 -28t-28 -11.5q-141 2 -394 -10q-17 0 -29 11t-12.5 27.5t10.5 28.5t27 13zM161 300q143 9 286 -1q16 -2 27 -14.5t9.5 -28.5t-14 -27t-28.5 -10q-130 9 -274 1q-17 -1 -29.5 10t-13.5 27.5t10 29t27 13.5z" />
    <glyph glyph-name="greater" unicode="&#x3e;" horiz-adv-x="514" 
d="M64 597l35 -24q18 -13 30 -20q6 -3 48 -22l88 -39l85 -39l29 -14l12 -7q3 -2 6 -5q8 -7 12 -16q19 -48 -29 -105q-30 -35 -89 -78q-39 -29 -99 -66q-66 -40 -67 -41q-13 -9 -29.5 -6t-25.5 16.5t-6 30t17 25.5q2 2 69 43q57 35 95 62q51 37 74 65q8 10 12 17l-15 7
l-83 38l-88 39q-45 20 -54 25q-17 9 -38 25l-33 23q-14 9 -17 25.5t6 30t25.5 16.5t29.5 -6z" />
    <glyph glyph-name="question" unicode="?" horiz-adv-x="425" 
d="M85 640q7 0 18 2l22 4q33 6 57 1q101 -21 133 -106q26 -72 -8 -162q-13 -35 -45 -80q-45 -63 -46 -65q-9 -14 -25 -18t-30 5t-18 25t5 30q6 9 49 70q26 36 36 61q23 63 7 107q-16 43 -74 55q-9 2 -28 -1q-3 -1 -6.5 -1.5t-7.5 -1t-6 -1.5q-15 -3 -25 -4q-17 -1 -29.5 9.5
t-14 27t9 29t26.5 14.5zM203 112q12 -12 12 -28t-12 -28t-28 -12t-28 12t-12 28t12 28t28 12t28 -12z" />
    <glyph glyph-name="at" unicode="@" horiz-adv-x="789" 
d="M382 435q-3 -1 -8 -1h-9h-7q-22 -1 -31 -6q-14 -7 -35.5 -34.5t-33.5 -57.5q-11 -30 -7 -48q3 -15 23 -21q38 -13 71 57q14 30 24 66l6 23l2 7v2v2q1 1 1 3q1 2 2 5q1 1 2 3zM197 224q-17 19 -23 45q-11 42 10 95q16 42 46.5 80.5t58.5 53.5q26 14 65 15l26 1q13 0 21 1
q16 3 29 -7t15 -27q3 -18 -9 -32q23 -10 31 -35q4 -14 3 -37q0 -2 -0.5 -11t-0.5 -14v-6q11 -23 31.5 -39.5t41.5 -21.5q42 -9 64 39q4 9 4 23t-1 24.5t-5 36.5q-13 83 -72.5 133t-143.5 59t-161 -24.5t-118 -102.5q-21 -37 -25.5 -79.5t10.5 -80.5q6 -15 46 -47
q24 -20 57 -42zM414 283q-9 -17 -18.5 -31.5t-25.5 -31t-33 -24.5t-41 -12q-22 -3 -46 6q53 -33 102 -56t70 -27q42 -7 65 1q8 3 16 7t23 13l30 17q14 8 29.5 3t23.5 -19.5t3 -30t-19 -23.5q-8 -4 -25 -14l-30 -17q-13 -7 -24 -11q-42 -15 -106 -4q-67 11 -209 99
q-64 40 -109 76q-56 46 -70 79q-22 59 -16 119t37 111q53 92 152 135t203 31q69 -7 128 -37t102.5 -87.5t55.5 -134.5l2 -14q3 -13 3.5 -17t1.5 -17t0.5 -20.5t-1 -19t-3 -21.5t-7.5 -19q-23 -53 -64.5 -74t-88.5 -11q-67 15 -111 76z" />
    <glyph glyph-name="A" unicode="A" horiz-adv-x="692" 
d="M451 336l-173 -23q-16 -2 -29 7.5t-15 26t7.5 29.5t26.5 15l173 23h1q-29 99 -61 153q-33 55 -60 54q-20 0 -33 -26q-7 -15 -14 -39q-7 -25 -11 -36q-15 -42 -34 -118q-27 -109 -32 -125q-10 -36 -22.5 -73t-34.5 -95l-27 -72q-5 -16 -20 -23t-30.5 -1.5t-22.5 20.5
t-1 30l27 72l32 91q13 36 23 73q1 3 31 122q19 75 37 125q1 3 5.5 19t10.5 34t12 30q34 70 102 72q74 1 130 -93q39 -66 72 -182q16 -58 30.5 -125t26.5 -131.5t14 -73.5q3 -16 -6 -29.5t-25 -17t-29.5 5.5t-17.5 25l-10 58l-20 98q-10 54 -22 103q-5 -2 -11 -3z" />
    <glyph glyph-name="B" unicode="B" horiz-adv-x="608" 
d="M156 112q96 -8 156 5q50 10 79.5 36.5t36.5 75.5q6 42 -8 63q-8 12 -56 30q-45 17 -78 22q-1 0 -41 -7q-23 -4 -39 -1q-33 7 -44 38q-12 36 18 60q13 10 36 16l14 3q10 2 14 3q10 2 12 4q59 37 93 73q42 45 28 72q-8 17 -32 21q-29 5 -72 -6q-42 -11 -77 -31.5t-45 -36.5
q-12 -18 -18 -47q-3 -136 4 -216q1 -16 4.5 -44.5t5.5 -40.5q0 -7 3 -30t4 -33q2 -20 2 -27v-2zM332 415q31 -8 59 -18q73 -27 95 -61q31 -46 20 -119q-11 -78 -59 -121q-48 -42 -118 -57q-86 -18 -238 1q-16 2 -26.5 15t-7.5 29q2 18 17 28q-12 57 -21 194t-2 185
q1 13 3 23q2 85 2 104q0 17 12 28.5t28 11.5q22 0 33 -18q54 39 123 57q61 16 108 7q63 -11 89 -63q37 -77 -42 -162q-29 -32 -75 -64z" />
    <glyph glyph-name="C" unicode="C" horiz-adv-x="601" 
d="M302 561q-40 -17 -84 -62.5t-73 -102.5q-30 -60 -31.5 -111t27.5 -86q39 -46 131 -70q35 -9 86 -17q13 -3 41.5 -7t42.5 -7q16 -3 25.5 -16.5t6.5 -29.5t-16.5 -25.5t-29.5 -6.5l-42 6l-41 7q-55 9 -93 19q-115 31 -171 95q-34 39 -43 91t2 99q10 46 34 94q35 69 88 124
q54 56 110 80q25 10 44.5 16t40 7t31.5 0.5t37.5 -3t39.5 -3.5q17 -2 27.5 -14.5t9 -29t-14 -27t-28.5 -9t-40.5 4t-32.5 2.5t-23.5 -0.5t-28.5 -5t-32 -12.5z" />
    <glyph glyph-name="D" unicode="D" horiz-adv-x="759" 
d="M142 625v-2q6 -488 7 -525q7 2 14 2q105 -8 182 1.5t147 50.5l20 10l17 10t10.5 7.5t9.5 9.5q23 30 28.5 73.5t-0.5 90.5q-7 96 -69 169t-155 103.5t-189 6.5q-11 -2 -22 -7zM59 674q5 2 22 10t33.5 15t31.5 11q58 15 117.5 11t114.5 -20.5t103.5 -50t86 -76t61 -98
t28.5 -117.5l2 -70q1 -34 -10.5 -74.5t-35.5 -73.5q-8 -11 -21 -21.5t-21 -15.5t-23 -13t-16 -9q-84 -48 -172 -59t-203 -3q-15 1 -25.5 12.5t-11.5 26.5q-5 -2 -10 -2q-17 0 -28.5 11.5t-12.5 27.5q-1 65 -7 503q-17 6 -24 22q-6 16 0 31t21 22z" />
    <glyph glyph-name="E" unicode="E" horiz-adv-x="683" 
d="M182 122q152 -26 361 -18q16 0 28 -11t12.5 -27.5t-10.5 -28.5t-28 -13q-216 -8 -377 20q-14 2 -23 13q-12 -11 -28 -11t-28 12t-12 28q0 86 -14 299q-14 206 -10 305q1 17 13 28t28 11q15 -1 26 -11t13 -25q39 2 73.5 4t49 3.5t33 2.5t21.5 1t20 0.5t23 0.5h36h53
q16 0 28 -12t12 -28t-12 -28t-28 -12h-53h-35h-22q-17 0 -19.5 -0.5t-21 -1.5t-32.5 -2t-48.5 -3t-74.5 -5h-4q0 -81 10 -219q163 3 289 -5q16 -1 27 -13.5t10 -29t-13.5 -27.5t-29.5 -10q-132 8 -278 5q8 -120 10 -196q11 6 25 4z" />
    <glyph glyph-name="F" unicode="F" horiz-adv-x="596" 
d="M175 426q186 0 268 -7q17 -2 27.5 -14.5t9 -29t-14 -27t-28.5 -9.5q-80 7 -262 7q-10 0 -19 5v-79q0 -58 2 -95.5t6 -75.5q3 -16 -7.5 -29t-26.5 -15.5t-29 8t-15 26.5q-6 41 -7.5 83t-1.5 100.5t-1 78.5q-1 42 -7 146q-5 89 -6 132q-10 10 -12 24q-3 16 7 29.5t26 15.5
q148 23 373 23q16 0 28 -12t12 -28t-12 -28t-28 -12q-189 0 -314 -15q1 -45 5 -124q4 -63 5 -85q10 7 22 7z" />
    <glyph glyph-name="G" unicode="G" horiz-adv-x="697" 
d="M432 642l-32 10q-17 6 -27 9t-21 3q-71 2 -132 -42.5t-99 -119.5t-42.5 -154.5t28.5 -142.5q3 -6 9 -17t8.5 -16t6.5 -12t8 -11.5t9 -9.5q15 -13 53 -26.5t87 -21.5q50 -7 89 -6.5t55 9.5q14 7 34.5 32t34.5 57q15 34 16.5 59.5t-6.5 30.5l-1 1q-2 0 -8.5 2t-16.5 4
q-26 4 -70 3q-33 -1 -82.5 -4.5t-54.5 -3.5q-16 0 -28 11t-12.5 27.5t10.5 28.5t28 13q4 0 54.5 3.5t83.5 4.5q50 0 83 -5q51 -7 73 -31q21 -24 25.5 -57.5t-2 -61.5t-19.5 -57q-19 -42 -48 -78t-58 -51q-62 -30 -193 -9q-130 21 -181 68q-8 7 -15.5 16t-14.5 19l-10 18
q-4 7 -10 18.5t-7 14.5q-43 88 -38 185q5 96 51 186q47 92 126 150q80 58 178 56q16 -1 35.5 -5.5t39 -11.5t23.5 -7q16 -5 24.5 -19t4 -30t-18.5 -24.5t-30 -4.5z" />
    <glyph glyph-name="H" unicode="H" horiz-adv-x="685" 
d="M576 599q10 -277 10 -521q0 -16 -12 -28t-28 -12t-28 12t-12 28q0 127 -2 261q-215 -6 -324 -19q2 -117 14 -217q3 -16 -7.5 -29t-26.5 -15.5t-29 8t-15 26.5q-26 210 -5 537q1 16 13.5 27t29 10t27.5 -13.5t10 -29.5q-9 -125 -11 -224q109 12 322 19q-2 86 -6 178
q0 16 11 28t27.5 12.5t28.5 -10.5t13 -28z" />
    <glyph glyph-name="I" unicode="I" horiz-adv-x="325" 
d="M209 699q7 -311 17 -522q1 -17 -10.5 -29t-28 -13t-28.5 10.5t-13 27.5q-10 212 -17 524q0 17 11.5 28.5t28 12t28 -11t12.5 -27.5z" />
    <glyph glyph-name="J" unicode="J" horiz-adv-x="562" 
d="M374 686q81 -205 88 -336q5 -104 -33 -174q-46 -85 -151 -115q-55 -16 -100 -11q-17 3 -37 9t-41 14t-27 10q-16 5 -23.5 19.5t-2.5 30.5t19.5 23.5t30.5 2.5t34.5 -12.5t31 -11.5t25.5 -5q29 -4 68 7q73 21 103 77q27 50 23 132q-5 119 -82 310q-6 16 0.5 31t22 21
t30.5 -0.5t21 -21.5z" />
    <glyph glyph-name="K" unicode="K" horiz-adv-x="685" 
d="M511 566l-145 -126l-88 -77l-15 -13q2 -1 11 -7q15 -10 22 -16q9 -8 31 -20q29 -16 42 -26q33 -26 67 -56.5t79 -75.5t59 -58q11 -12 11.5 -28.5t-11 -28t-28 -12t-28.5 10.5l-60 61l-75 72q-31 28 -62 51q-9 7 -33 21q-28 15 -42 27q-4 4 -16 11q-15 10 -22 16
q-14 11 -22 22q2 -189 7 -269q1 -16 -10 -28.5t-27.5 -13.5t-29 10t-13.5 28q-3 47 -7 308q-3 186 -17 300q-3 16 7 29t26.5 15.5t29.5 -7.5t15 -27q15 -110 18 -272l1 1l2 2l9 8l28 25l89 77l145 126q12 11 28.5 10t27.5 -13.5t10 -29t-14 -27.5z" />
    <glyph glyph-name="L" unicode="L" horiz-adv-x="639" 
d="M207 668q6 -93 6 -95t-2 -98q-1 -15 -8.5 -85.5t-11.5 -111.5q-6 -68 -5 -109q0 -23 2 -37l1 -9q19 -26 87 -21q25 2 69 10q51 9 63 10q20 1 48 1q1 0 18 -0.5t26 -0.5q16 0 28 -12t12 -28t-12 -28t-28 -12l-45 1q-25 0 -41 -1q-12 -1 -55 -8q-48 -9 -77 -11
q-113 -9 -157 54q-11 15 -16 43q-3 19 -3 48q0 45 6 117q3 41 11 110t8 84q2 91 2 91.5t-6 91.5q-1 17 10 29.5t27.5 13.5t29 -10t13.5 -27z" />
    <glyph glyph-name="M" unicode="M" horiz-adv-x="899" 
d="M419 375q12 1 23 20q16 25 35 92q26 92 35 114q32 72 86 80q39 7 76 -23q23 -19 43 -50q6 -10 13 -33q5 -17 11 -43q10 -44 24 -116q7 -36 14 -78t13 -74.5t7 -40.5q3 -16 -6.5 -29.5t-25.5 -16.5t-29.5 6.5t-16.5 25.5q-2 8 -7 41l-14 74l-13 78l-23 112l-10 39l-5 13
q-12 19 -25 30q-4 3 -7.5 5t-4.5 2h-2q-11 -2 -25 -34q-9 -21 -32 -103q-21 -78 -43 -113q-41 -66 -109 -56q-24 3 -46 30q-13 15 -29 42l-59 111l-30 55q3 -242 3 -270q0 -5 1 -10t3.5 -14.5t4.5 -20.5q12 -62 -34 -82q-25 -11 -47 4q-14 9 -21 27t-10 51q-3 38 -2 130
q1 79 2 95v8q1 3 1 5t1 5t3 7q2 24 4 85q0 3 -0.5 6.5t-3 12.5t-4.5 19q-5 21 -2 37q6 31 35 43q31 13 63 -9q19 -12 39 -39q22 -29 64 -108q50 -94 58 -107q13 -22 21 -32z" />
    <glyph glyph-name="N" unicode="N" horiz-adv-x="771" 
d="M571 118q-1 8 -1 13q1 21 7 227q4 139 16 231q2 17 15 27t29.5 7.5t26.5 -15.5t7 -29q-11 -88 -15 -223q-5 -208 -6 -229q0 -4 0.5 -8t1.5 -13q2 -8 3 -18q6 -57 -35 -75q-35 -14 -74 16q-20 16 -44 47q-16 20 -34 47q-4 5 -7.5 11t-5.5 9t-3 4l-58 85l-62 90l-58 79
q-34 45 -65 82q6 -69 9 -199.5t8 -187.5q1 -16 -9.5 -28.5t-27 -14t-29 9t-14.5 27.5q-4 52 -8.5 226t-21.5 266l-19 18q-12 11 -13 27.5t11 28.5q16 18 41 11q1 0 2 1q16 3 30 -5.5t18 -24.5l3 -16q47 -46 96.5 -107t75.5 -97l84 -120q58 -85 73 -105q0 -1 2 -5l7 -9
q4 -6 7 -12q16 -24 30 -42z" />
    <glyph glyph-name="O" unicode="O" horiz-adv-x="762" 
d="M393 626q-87 -21 -148 -72q-50 -42 -82 -108t-34 -131q-1 -67 31.5 -114.5t104.5 -65.5q9 -3 20 -3.5t23 -0.5h28l32 -3q19 -1 24 -1t21 2q71 14 111.5 54t52.5 97t-3.5 120.5t-55.5 117.5q-13 18 -22 29t-22 21.5t-18.5 14.5t-27.5 19l-31 21q-3 2 -4 3zM492 655
q48 -33 90 -89q50 -67 70 -148q19 -79 3 -154q-17 -81 -75 -138t-151 -75q-16 -3 -33.5 -3t-38.5 1.5t-23 1.5h-22q-21 0 -37 1.5t-30 4.5q-101 26 -149 97t-46 163q2 82 41 163t102 134q57 47 119 70q64 24 143 34q16 3 29 -7t15 -27q3 -16 -7 -29z" />
    <glyph glyph-name="P" unicode="P" horiz-adv-x="718" 
d="M169 592q15 -115 25 -288h32h32q9 0 30.5 0.5t31.5 1.5t28 3t29.5 5t26 7.5t26.5 10.5q53 24 80.5 65.5t28.5 85.5q0 44 -27.5 81t-83.5 56q-32 11 -115 7q-82 -4 -117 -19q-13 -5 -27 -16zM121 656q25 18 45 26q47 19 143 25q98 5 145 -11q79 -27 122 -85t42 -128
q0 -69 -41 -129q-41 -61 -113 -94q-31 -14 -66 -22q-37 -9 -69 -11t-67.5 -3t-63.5 0l5 -97q0 -10 -4 -19l7 -48q3 -16 -7 -29.5t-26 -16t-29.5 7.5t-15.5 26l-14 93q-3 16 7 29q-13 267 -27 381q-18 2 -28 17q-9 14 -6 30t17 25l11 8q9 21 31 24q1 0 2 1z" />
    <glyph glyph-name="Q" unicode="Q" horiz-adv-x="742" 
d="M439 115l-101 89q-12 11 -13 27.5t10.5 28.5t28 13t28.5 -11l99 -88q22 35 35 82q16 56 18 112q1 56 -12 92q-2 9 -6 16l-6 14q-2 5 -7 12l-7 10q-3 4 -9.5 11t-8.5 9l-12 11q-8 8 -10.5 9.5t-13.5 11t-13 11.5q-8 3 -16 4q-27 7 -69 -8q-44 -15 -115 -90
q-86 -92 -104 -175q-21 -94 63 -156q14 -11 62 -29q25 -9 43.5 -14.5t39.5 -9.5t39 -2.5t35 8.5q11 4 22 12zM499 61q-24 -20 -52 -31.5t-57.5 -14.5t-60 3t-50 12t-47.5 17q-59 22 -82 39q-124 93 -93 237q23 104 124 212q85 90 147 112q51 17 90 14q10 7 23.5 6t23.5 -10
l15 -13l24 -10l29 -11q16 -5 23 -19.5t2 -29.5q33 -39 50 -88q17 -53 15 -120t-21 -132q-18 -65 -50 -113l78 -70q12 -11 13 -27.5t-10.5 -28.5t-28 -13t-28.5 11z" />
    <glyph glyph-name="R" unicode="R" horiz-adv-x="657" 
d="M41 635q4 2 19.5 14.5t31 23t29.5 16.5q62 28 176 32q130 4 183 -37q40 -31 64 -92q13 -34 14 -97q0 -68 -15 -101q-46 -98 -183 -135q-2 -1 -4 -1q31 -17 45 -23l10 -3q10 -2 20 -10q2 -2 11 -10l66 -58q12 -10 13.5 -26.5t-9 -29t-27 -14t-29.5 9.5l-67 58l-5 5
q-6 1 -13 4q-23 9 -72 37q-4 3 -18 8q-24 8 -31 11q-23 10 -34 22q-26 28 -10 62q21 44 86 38q43 -4 46 -4q103 28 133 93q8 16 7 66q0 49 -8 68q-16 41 -40 60q-28 23 -131 19q-99 -3 -146 -24q-11 -5 -23 -14q5 -70 19.5 -237.5t21.5 -258.5q1 -16 -10 -28.5t-27 -14
t-28.5 9.5t-14.5 27q-6 88 -20 249.5t-18 213.5q-14 4 -22 15q-9 14 -6 30t16 26z" />
    <glyph glyph-name="S" unicode="S" horiz-adv-x="615" 
d="M456 604q-106 18 -158 9q-71 -12 -93 -79q-10 -28 -9 -41q8 -4 22 -12l75 -37l80 -41q43 -23 56 -35q42 -37 65.5 -84.5t20.5 -94.5q-2 -55 -39.5 -93t-103.5 -52q-19 -4 -40 -4.5t-44 2.5t-37.5 5.5t-39 8t-31.5 6.5q-16 3 -25 17t-6 30t17 25t30 6q12 -2 34 -7l36 -7
q12 -3 30 -5.5t32 -2.5q14 1 28 4q77 16 80 71q1 26 -14.5 57.5t-44.5 57.5q-7 6 -42 25l-78 40l-75 38q-17 8 -27 14q-6 3 -10 6q-9 6 -14 14q-27 41 -2 115q38 111 156 131q65 12 185 -9q16 -3 25.5 -16t6.5 -29.5t-16 -26t-30 -6.5z" />
    <glyph glyph-name="T" unicode="T" horiz-adv-x="679" 
d="M332 615q0 -241 11 -487q0 -17 -11 -29t-27.5 -12.5t-28.5 10.5t-13 27q-11 249 -11 491q0 8 4 16q-58 -3 -187 -11q-16 -1 -28.5 10t-13.5 27.5t10 29t28 13.5q321 19 475 19q16 0 28 -12t12 -28t-12 -28t-28 -12q-96 0 -213 -5q5 -9 5 -19z" />
    <glyph glyph-name="U" unicode="U" horiz-adv-x="747" 
d="M174 664q0 -27 -5 -141q-4 -91 -1 -142q7 -155 79 -238q29 -33 61 -48q33 -15 77 -16q64 -2 102 36t58 111q11 43 17 98t5.5 99t-0.5 89q0 16 11.5 28t28 12t28.5 -11.5t12 -28.5v-89q0 -46 -6 -107.5t-19 -110.5q-12 -43 -30 -78t-46 -65.5t-69.5 -47t-93.5 -15.5
q-118 3 -196 92q-91 103 -99 286q-2 55 2 149q5 111 4 138q0 16 11.5 28t28 12t28.5 -11.5t12 -28.5z" />
    <glyph glyph-name="V" unicode="V" horiz-adv-x="692" 
d="M136 650q30 -64 87 -210q56 -143 84 -206q16 -34 35 -68l10 -17q6 27 12 39q37 79 79 216q56 183 73 228q5 15 20 22t30.5 1.5t22.5 -20.5t1 -31q-16 -45 -71 -223q-45 -144 -83 -227q-2 -5 -3.5 -10t-3.5 -14.5t-5 -19.5q-15 -52 -55 -63q-23 -5 -44 11q-10 7 -21 20
q-14 18 -31 49q-21 37 -38 75q-30 65 -86 209q-53 137 -85 205q-7 15 -1.5 30.5t20.5 22.5t30.5 1.5t22.5 -20.5z" />
    <glyph glyph-name="W" unicode="W" horiz-adv-x="944" 
d="M105 639l159 -370q3 -8 12 -51q10 9 21 25q1 1 5 14q5 16 11 42q8 32 25 119q17 86 24 114q6 26 10 40q3 10 6 16t7 11q12 14 30 15q47 2 77 -49q8 -11 17 -31t12 -25q8 -14 27 -74l35 -115q23 -73 36 -109q8 -22 13 -33q16 1 29 14q2 0 4 14q5 40 8 50q6 17 19 50l18 45
l57 171q5 15 20 22.5t30.5 2.5t23 -20t2.5 -31q-50 -149 -59 -173q-4 -12 -16.5 -43.5t-18.5 -49.5q-1 -2 -5 -35q-6 -40 -27 -61q-15 -13 -34.5 -23t-45.5 -13t-49 10q-11 6 -19 19q-5 7 -9 16q-7 15 -16 41q-14 38 -37 112l-35 115q-17 52 -21 60q-4 7 -14 29l-1 1
l-20 -99q-20 -99 -25 -121q-7 -29 -13 -47q-7 -25 -15 -37q-19 -27 -39 -42q-38 -30 -75 -18q-38 13 -50 62l-5 22q-2 12 -4 18l-157 368q-7 15 -1 30.5t21 22t30.5 0.5t21.5 -21z" />
    <glyph glyph-name="X" unicode="X" horiz-adv-x="661" 
d="M556 629q-20 -33 -70 -127q-45 -84 -73 -129l-16 -24l158 -256q9 -14 5 -30t-18 -25t-30 -5t-25 18l-137 223q-100 -153 -141 -227q-8 -14 -24 -18.5t-30.5 3.5t-19 24t3.5 31q38 67 164 262l-177 289q-9 14 -5 30t18.5 24.5t30.5 4.5t24 -19l157 -254q24 40 65 116
q50 92 72 129q8 15 24 19t30.5 -4.5t18.5 -24.5t-5 -30z" />
    <glyph glyph-name="Y" unicode="Y" horiz-adv-x="625" 
d="M524 638q-44 -138 -157 -346q-7 -13 -22 -18q3 -39 7 -78t11.5 -98t10.5 -78q1 -17 -9 -30t-26.5 -14.5t-29.5 8.5t-15 26q-2 22 -8 66l-8 72q-4 26 -7.5 64t-5.5 70q-2 2 -3 5l-98 158l-109 180q-8 15 -3.5 31t19 24t30.5 3.5t24 -18.5l105 -176l82 -131q95 177 136 304
q5 16 19.5 23.5t30.5 2.5t23.5 -19.5t2.5 -30.5z" />
    <glyph glyph-name="Z" unicode="Z" horiz-adv-x="606" 
d="M86 683q102 -6 278 -6q4 0 8 1l12 3q9 2 19 4q53 10 77 -25q21 -31 11 -73q-7 -27 -26 -60q-18 -29 -60 -78q-19 -23 -110 -122q-68 -74 -105 -120q-5 -6 -13 -14t-16.5 -15.5t-9.5 -8.5q-5 -5 -7 -8q1 -8 7 -11q11 -7 34 -8q15 -1 31.5 1t33.5 5l24 3l57 5q24 2 27.5 3
t14 1.5t11.5 0.5h28q26 0 55 1q16 0 28 -11.5t12 -28t-11.5 -28.5t-28.5 -12h-39h-26h-14q-7 0 -9 -0.5t-5.5 -0.5t-9.5 -1t-15 -2l-27 -3q-17 -2 -40 -4q-2 0 -13.5 -1.5t-24.5 -3.5t-31 -3t-32 0q-43 2 -71 18q-40 25 -46 74q-4 37 31 71l19 16q10 9 14 15q31 39 109 124
q79 86 108 120q37 44 52 68q13 21 16 36v1q-35 -9 -49 -9q-190 0 -284 6q-16 1 -27 13.5t-10 29t13.5 27.5t29.5 10z" />
    <glyph glyph-name="bracketleft" unicode="[" horiz-adv-x="464" 
d="M329 632l-91 -8q-37 -4 -58 -6l-6 -1l-1 -2q-4 -16 -6 -45q-4 -52 -3 -136l5 -146q3 -80 2 -102q0 -1 -1 -14l-2 -36q-2 -21 -3 -40q-1 -37 0 -60q0 -11 1 -17q12 -10 46 -12q17 -2 42 -1q5 0 19 0.5t19 0.5q16 0 28 -12t12 -28t-12 -28t-28 -12q-5 0 -18 -0.5t-18 -0.5
q-29 0 -51 1q-76 6 -106 47q-8 12 -11 31q-2 13 -3 28q-1 26 1 66q2 33 2 41q1 21 2 34l1 14q1 11 -2 97q-3 100 -4 147q-2 89 3 144q3 35 8 57q7 32 22 48q4 3 8.5 6t6.5 4h3q2 1 5 2q3 0 8 1q8 1 22 3q22 2 60 6l90 9q17 1 29.5 -9.5t14 -27t-9 -29t-26.5 -14.5z" />
    <glyph glyph-name="backslash" unicode="\" horiz-adv-x="487" 
d="M61 682l202 -340q26 -45 70 -134l51 -102q8 -14 3 -30t-19.5 -23.5t-30.5 -2.5t-23 20q-7 13 -50.5 100t-68.5 132l-204 340q-8 15 -3.5 30.5t19 24t30 4t24.5 -18.5z" />
    <glyph glyph-name="bracketright" unicode="]" horiz-adv-x="436" 
d="M60 697q10 0 28 -0.5t32 -0.5h28q5 0 10 0.5t13 1.5q3 0 15 2q37 5 62 -7q27 -12 47.5 -35.5t30.5 -51.5q8 -23 10 -92q2 -50 0 -134q-3 -146 -7 -221q-1 -4 -2 -23l-2 -40q-1 -21 -2 -39q-3 -36 -5 -57q-2 -13 -4 -21q-1 -7 -3 -11q-5 -13 -15 -21q-29 -21 -76 -10
q-31 7 -34 6q-11 -1 -22 -4t-26.5 -8t-29.5 -8q-16 -5 -30 3.5t-18.5 24.5t4 30t24.5 18q5 2 23 7.5t35.5 10t31.5 6.5q16 1 60 -9h1q2 18 4 48q2 18 3 38l2 40q1 19 1 23q6 91 8 219q1 78 -1 129q-1 57 -6 69q-10 30 -34 41q-6 2 -20 0q-44 -5 -48 -5l-88 1q-17 0 -28.5 12
t-11.5 28.5t12 28t28 11.5z" />
    <glyph glyph-name="asciicircum" unicode="^" horiz-adv-x="545" 
d="M49 404l83 163l52 96l19 33q5 8 9 12q3 4 6 7q12 10 27 11q14 0 26 -8q5 -4 9 -8q5 -6 10 -14l21 -35q20 -37 51 -102q53 -112 81 -176q6 -16 0 -31t-21.5 -21.5t-30.5 -0.5t-22 21q-26 64 -79 174q-26 54 -44 87l-43 -81l-84 -163q-7 -15 -22.5 -20t-30.5 2.5t-20 23
t3 30.5z" />
    <glyph glyph-name="underscore" unicode="_" horiz-adv-x="506" 
d="M12 -19q43 3 94.5 3.5t82.5 0t96 -3.5t84 -3q17 -1 28 -13t10.5 -28.5t-12.5 -27.5t-28 -11q-22 1 -86 3.5t-94 3t-79 0t-90 -3.5q-16 -1 -28.5 10t-14 27t9.5 28.5t27 14.5z" />
    <glyph glyph-name="grave" unicode="`" horiz-adv-x="404" 
d="M195 787l102 -148q10 -13 7.5 -29.5t-16 -26t-30 -7t-25.5 16.5l-104 150q-9 14 -6 30t17 25t30 6t25 -17z" />
    <glyph glyph-name="a" unicode="a" horiz-adv-x="614" 
d="M320 411q-25 3 -65 -14q-27 -13 -55.5 -42t-45.5 -64q-36 -75 4 -119q28 -32 95 -44q28 -5 128 -9q10 -1 18 -6q1 6 4 17l18 84q6 30 10.5 74.5t2.5 78.5q-1 13 -3 24q-15 -9 -32 -4t-34.5 11t-26.5 8.5t-18 4.5zM99 626q150 -2 186 -9q113 -23 171 -91q50 -59 57 -153
q3 -38 -2 -85q-5 -49 -10.5 -79t-18.5 -88l-15 -72q-3 -16 -17 -25t-30 -6q-20 4 -29 23q-6 -2 -14 -2q-105 5 -137 11q-94 16 -142 68q-26 30 -35 68t-3 72t22 67q23 48 61 87t80 57q61 27 108 20q18 -2 68 -19l-4 5q-40 47 -126 64q-28 6 -170 7q-17 0 -28.5 12
t-11.5 28.5t12 28t28 11.5z" />
    <glyph glyph-name="b" unicode="b" horiz-adv-x="684" 
d="M210 433q30 -177 39 -325q1 -16 -10 -28.5t-27.5 -13.5t-29 10t-13.5 28q-7 127 -27 250q-21 127 -56 300q-3 16 6 30t25 17t30 -6t17 -25q20 -96 31 -157l3 2q29 13 51 15q68 6 134.5 -17.5t116.5 -69.5q52 -48 74 -115q21 -66 0 -140q-18 -65 -56 -97q-20 -16 -42 -26
t-48.5 -14.5t-43 -6t-45 -2t-34.5 -0.5q-17 0 -29 11t-12.5 27.5t10.5 28.5t27 13q13 0 40.5 0.5t39 1.5t30 4t31.5 9t24 16q20 16 32 57q14 50 -0.5 95t-52.5 80q-37 35 -87.5 52.5t-100.5 12.5q-10 0 -26 -8z" />
    <glyph glyph-name="c" unicode="c" horiz-adv-x="560" 
d="M420 446q-2 0 -51 5q-22 2 -34 -1q-22 -5 -54 -33t-60 -69q-28 -42 -38.5 -79.5t-3.5 -57.5q18 -47 77 -61q35 -8 130 -7q16 0 28 -11.5t12 -28t-11.5 -28.5t-28.5 -12q-108 0 -148 10q-101 24 -133 110q-17 46 -1 101.5t51 107.5q33 49 76.5 87.5t85.5 48.5q25 6 60 2
q2 0 19 -2t26 -2q17 -1 28 -13t10.5 -28.5t-12.5 -27.5t-28 -11z" />
    <glyph glyph-name="d" unicode="d" horiz-adv-x="557" 
d="M365 420q-2 0 -42 15q-18 7 -28 7q-38 1 -75 -24q-38 -26 -62 -70q-24 -43 -24 -86.5t26 -73.5q16 -20 36.5 -31.5t51 -16t52 -5.5t63.5 -1h14h1q-1 173 -6 284q-4 1 -7 2zM430 726q24 -216 28 -593q0 -16 -11.5 -28t-28.5 -12h-1q-1 -16 -12.5 -27.5t-27.5 -11.5h-27
h-32q-8 0 -30.5 1t-34 3.5t-32 6t-34.5 9.5l-31 15q-17 8 -31 20.5t-27 26.5q-29 36 -38.5 81.5t-1 87.5t30.5 81q32 60 88 99t120 37q23 -1 53 -12q3 -1 18 -7q-6 115 -18 215q-1 16 9 29t26.5 14.5t29.5 -8.5t15 -27z" />
    <glyph glyph-name="e" unicode="e" horiz-adv-x="705" 
d="M291 271h-85q-16 0 -28 12t-12 28t12 28t28 12h85q13 0 24 -8q2 0 4 1q11 1 26 1h9q8 0 12 1q19 0 28 4q32 14 48 41q19 32 10 51q-8 19 -40 32q-35 15 -79 16t-67 -11q-25 -12 -54 -43t-48 -71q-43 -84 -8 -128q5 -6 12.5 -11.5t13.5 -9t22 -10.5l24 -11
q24 -13 48.5 -21.5t57.5 -11.5l50 -6q18 -2 62 0t54 2.5t63 4.5q17 1 29.5 -10t13.5 -27.5t-10 -29t-27 -13.5q-8 0 -23 -1q-63 -4 -89 -5q-32 -1 -83.5 1t-95.5 13.5t-86 31.5q-1 1 -19.5 9.5t-28.5 14t-25 17t-25 23.5q-24 31 -29.5 70.5t2.5 74t25 69.5q25 49 63 90.5
t77 59.5q43 19 102.5 18t107.5 -21q61 -26 83 -73q25 -57 -15 -124q-29 -49 -84 -73q-23 -10 -56 -12h-23q-12 -1 -18 -2q-16 -1 -29 8q-4 -1 -9 -1z" />
    <glyph glyph-name="f" unicode="f" horiz-adv-x="523" 
d="M311 627q-81 -18 -118 -117q-16 -40 -21 -87q6 0 202 10q17 1 29 -10.5t13 -28t-10.5 -28.5t-27.5 -13q-199 -9 -208 -10l2 -26q4 -27 11.5 -55t18.5 -64l18 -60q4 -16 -4.5 -30t-24.5 -18.5t-30 4t-19 24.5q-4 18 -15.5 55t-20 70.5t-12.5 61.5q-3 16 -4 32l-11 -1
q-17 -1 -29.5 9.5t-14 27t9 29t26.5 14.5l20 1q6 66 27 121q24 63 67.5 108t107.5 59q15 3 33.5 3t37 -1.5t20.5 -1.5q17 0 28.5 -12t11.5 -28.5t-12 -28t-28 -11.5t-32.5 2t-21.5 2t-19 -2z" />
    <glyph glyph-name="g" unicode="g" horiz-adv-x="693" 
d="M389 470q-69 6 -116 -10q-66 -22 -114 -98q-46 -72 -10 -114q17 -19 46.5 -26t76.5 3q115 29 128 179l-8 41q-3 14 -3 25zM471 340q-37 -157 -179 -193q-60 -15 -114.5 -2.5t-88.5 50.5q-35 41 -34.5 96.5t36.5 112.5q64 100 157 132q78 26 194 7q20 -3 30 -21
q9 -7 17 -17q11 -15 23 -43q20 -45 41 -119q20 -69 31 -131q13 -71 8 -97q-23 -123 -121 -189q-98 -67 -221 -42q-15 3 -33 9t-37 13.5t-26 9.5q-15 6 -22.5 20.5t-2 30t20 23t30.5 2.5l30 -12q18 -7 30.5 -11t25.5 -7q90 -19 160.5 29t87.5 138q2 13 -8 68q-11 58 -30 124z
" />
    <glyph glyph-name="h" unicode="h" horiz-adv-x="703" 
d="M75 667l-12 84q-3 17 7 30t26.5 15.5t29.5 -7.5t15 -26l10 -69q12 -11 14 -27q4 -52 20 -137l6 -30q49 58 122.5 69.5t139.5 -21.5t99 -96q19 -36 30 -76q12 -41 16 -90t5 -79.5t0 -87.5t-1 -72q0 -16 -12 -28t-28 -12t-28 12t-12 28q0 20 1 76t0.5 83t-4 70t-13 76
t-24.5 62q-22 42 -65.5 63t-89.5 13.5t-76 -42.5q-28 -34 -37 -71q-1 -1 -1 -3v-4v-7v-9q0 -10 1 -21q2 -37 3 -49q0 -3 13 -69q5 -25 5 -36q0 -9 -3 -17q-10 -25 -37 -27q-17 0 -30 11q-4 4 -9 10q-8 10 -12 29q-2 11 -4 28q-4 28 -6 68q-1 36 -1 68v4l-2 24q-5 34 -24 138
q-16 87 -20 129q-10 9 -12 23z" />
    <glyph glyph-name="i" unicode="i" horiz-adv-x="315" 
d="M207 551q-3 -82 2 -222q7 -196 7 -227q0 -16 -12 -28t-28 -12t-28 12t-12 28q0 56 -6 224q-6 156 -3 229q1 16 13 27t28.5 10.5t27.5 -12.5t11 -29zM179 738q12 -12 12 -28t-12 -28t-28 -12t-28 12t-12 28t12 28t28 12t28 -12z" />
    <glyph glyph-name="j" unicode="j" horiz-adv-x="365" 
d="M204 533q0 -3 8.5 -35.5t12 -47t11 -49t11.5 -59.5l9 -56q5 -33 7 -62q19 -240 -104 -308q-23 -12 -58 -15l-22 -1q-12 0 -18 -1q-16 -3 -29.5 7t-16 26t7.5 29.5t26 15.5q11 2 26 3h9q8 0 12 1q17 1 25 5q78 43 63 232q-2 28 -6 58l-9 52.5t-11.5 56t-11.5 47.5l-11 46
l-9 37q-4 16 5 30t25 18t30 -5t18 -25zM164 712q12 -12 12 -28t-12 -28t-28 -12t-28 12t-12 28t12 28t28 12t28 -12z" />
    <glyph glyph-name="k" unicode="k" horiz-adv-x="639" 
d="M513 511l-83 -60l-57 -42l-19 -14q-9 -7 -11 -8q-13 -8 -35 -15q7 -3 13 -6q63 -38 111.5 -90t99.5 -124q10 -13 7.5 -29.5t-16 -26t-30 -7t-25.5 16.5q-49 68 -92 113.5t-97 78.5q-1 1 -10 3q-5 1 -14 2.5t-13 2.5q-23 5 -35 15q-12 8 -18 21l14 -185q1 -16 -10 -28.5
t-27 -14t-28.5 9.5t-14.5 27q-37 500 -41 550q-1 17 10 29.5t27.5 13.5t29 -10t13.5 -27q8 -124 24 -328q11 42 66 59q10 4 21.5 7t17 5t10.5 5l1 1q2 1 5 3l19 14l57 42l82 60q14 10 30 7.5t26 -16t7.5 -29.5t-15.5 -26z" />
    <glyph glyph-name="l" unicode="l" horiz-adv-x="299" 
d="M180 671q0 -227 3 -290q1 -29 9 -120q7 -78 8 -124q0 -17 -11.5 -28.5t-28 -12t-28 11t-12.5 27.5q-1 43 -7 119q-8 87 -10 123q-3 65 -3 294q0 16 12 28t28 12t28 -12t12 -28z" />
    <glyph glyph-name="m" unicode="m" horiz-adv-x="959" 
d="M482 415q9 12 26 31t21 24l15 20q12 17 24 31.5t23 23.5q55 47 128 24q50 -16 80 -81q22 -46 36 -119q7 -37 11 -76q5 -40 9 -85.5t5 -50.5q1 -16 -9.5 -29t-26.5 -14.5t-29 9t-15 26.5q0 6 -3.5 48.5t-8.5 81.5q-4 38 -11 75q-12 63 -29 100q-17 34 -33 39
q-31 10 -52 -8q-8 -7 -15 -16l-18 -23q-10 -15 -19 -26l-23 -26l-21.5 -25.5t-15.5 -21.5q-22 -39 -25 -91q-1 -11 0 -33q0 -10 -1 -15q-1 -14 -12 -24q-14 -15 -34 -12q-12 2 -21 10q-16 14 -21 45q-3 15 -4 45q-4 85 -7 110q-16 128 -83 138q-92 12 -130 -86
q-12 -31 -18 -69l5 -43v-2q0 -3 1 -8.5t2 -12.5t2 -15.5t3 -17.5l2 -20q2 -11 3 -21q5 -44 7 -69q1 -17 1 -26t-2 -15q-2 -8 -7 -15q-14 -19 -37 -17q-34 4 -49 35q-9 17 -10 43v35q1 17 0 23q-11 72 -1 148q-3 30 -4 131q0 16 11.5 28t28.5 12q14 0 25 -9q65 85 177 69
q121 -16 149 -183z" />
    <glyph glyph-name="n" unicode="n" horiz-adv-x="632" 
d="M159 485l6 6q43 43 119 48q104 6 166 -59q50 -52 69 -147q10 -47 12.5 -99t0.5 -121l-2 -69q0 -16 -12 -28t-28 -12t-28 12t-12 28q0 9 2 73.5t0 110.5t-11 89q-15 73 -48 108q-37 38 -105 34q-45 -2 -67 -24q-15 -15 -24 -72q-8 -51 -8 -130q0 -52 4 -121q1 -7 1.5 -21
t1.5 -19v-12v-7q0 -4 -1 -7q-1 -5 -3 -9q-7 -12 -19 -18q-23 -11 -43 5q-8 6 -13 16q-4 8 -6 19q-3 15 -6 43q-4 46 -8 128q-5 131 -5 226q0 16 12 28t28 12t27 -11z" />
    <glyph glyph-name="o" unicode="o" horiz-adv-x="648" 
d="M380 450l-28 4q-21 4 -22 3.5t-22 -0.5q-29 -3 -65 -27t-61 -59q-52 -73 -10 -122q8 -9 28 -17l25 -8q18 -6 29 -10q67 -30 92 -37q55 -17 80 -8q29 11 40 76q5 34 3 63.5t-9 45.5q-13 33 -29.5 51.5t-50.5 44.5zM445 500q62 -49 89 -116q25 -62 10 -152
q-18 -111 -90 -137q-51 -19 -131 6q-29 9 -101 39q-7 4 -22 9q-21 6 -28 9q-39 15 -60 39q-30 34 -35.5 76t5.5 77q12 35 36 68q33 46 82 80q50 33 98 39q21 2 52 -2q10 9 23.5 9t24.5 -9l13 -9h1q25 -3 33 -26z" />
    <glyph glyph-name="p" unicode="p" horiz-adv-x="650" 
d="M191 414q9 -102 14 -228q14 14 33 11q13 -1 46.5 -6.5t46.5 -6.5t35.5 -1t38.5 6t30 17q20 16 33 75q16 69 -69 111q-39 19 -87 27.5t-84 3.5q-17 -1 -37 -9zM163 488q33 12 55 15q48 5 107.5 -5t109.5 -35q59 -30 92.5 -80.5t18.5 -119.5q-19 -86 -61 -119
q-24 -19 -52 -29.5t-60 -11t-51 1t-54 7.5t-40 7q-12 1 -21 9q2 -56 4 -137q0 -17 -11.5 -28.5t-28 -12t-28 11t-12.5 27.5q-6 260 -19 407q-16 8 -22 25q-4 14 2 28t19 20q10 20 32 23q11 1 20 -4z" />
    <glyph glyph-name="q" unicode="q" horiz-adv-x="710" 
d="M371 435q-90 17 -116 14q-44 -4 -79 -47q-28 -35 -43 -84.5t-9 -91.5q6 -41 30 -62q28 -25 82 -22q58 2 114 77q50 67 73 147q0 1 -3 42q-2 24 3 40q9 32 41 41q21 6 39 -3q17 -10 23 -30q4 -15 1 -41q0 -5 -2 -16t-2 -15q-2 -13 -2 -17q2 -13 8 -35q8 -32 10 -39
q1 -5 6 -25t8.5 -37t4.5 -32q1 -17 -13 -157q-6 -62 -7 -87q-1 -18 -1 -29v-4q5 -7 17 -15q41 -28 43 -30q12 -10 13.5 -26.5t-9 -29t-27 -14t-29.5 9.5l-9 7l-12 8l-15 9q-32 22 -45 49q-6 12 -6 34q-1 14 0 35q2 24 8 91q13 134 12 145q-1 14 -12 62q-23 -47 -52 -86
q-79 -104 -174 -109q-87 -4 -139 42q-46 41 -56 111q-8 60 11 125q20 65 58 112q56 70 134 77q5 2 23 0.5t23 -1.5t23 -3t23 -3.5t23 -4t22 -4.5q16 -3 25.5 -16.5t6.5 -29.5t-16.5 -25.5t-29.5 -6.5z" />
    <glyph glyph-name="r" unicode="r" horiz-adv-x="496" 
d="M120 300l-4 21l-11 60q-5 27 -6 31.5t-3 19t-2 18t-2.5 32.5t-5.5 58q-1 16 9.5 28.5t27 14t29 -9t14.5 -27.5l5 -66q28 35 71 52q26 10 64 10q1 0 27 -1q13 0 21 1q17 1 29.5 -10t13.5 -27.5t-10 -29t-27 -13.5q-12 -1 -29 0h-11h-14q-23 1 -34 -4q-59 -23 -70 -114
q-3 -18 -3 -38q11 -63 17 -109q6 -37 6 -48v-6q-1 -4 -1 -7q-3 -11 -11 -19q-21 -20 -47 -7q-9 5 -14 13q-3 5 -5 10q-3 6 -7 23q-17 74 -17 144z" />
    <glyph glyph-name="s" unicode="s" horiz-adv-x="565" 
d="M412 477l-23 1q-23 1 -36 1.5t-35.5 0.5t-42.5 -2t-38 -5q-44 -8 -56 -23q-8 -10 6 -36l2 -2q7 -5 21 -13l72 -38q115 -63 144 -102q69 -94 19 -154q-36 -42 -131 -49q-64 -4 -140.5 5t-119.5 19q-16 4 -25 18t-5 30t18 25t30 5q41 -10 110 -18q70 -9 127 -5q61 5 75 21
q2 1 3 3.5t-4 16.5t-21 35q-19 26 -118 80l-73 39q-17 9 -27 16q-18 12 -25 25q-42 77 0 129q31 37 103 51q18 3 39 5t38 3t38 0.5t32.5 -1t27.5 -1t19 -0.5q16 -1 27 -13t10.5 -28.5t-12.5 -27.5t-29 -11z" />
    <glyph glyph-name="t" unicode="t" horiz-adv-x="553" 
d="M260 658v-143q74 9 144 28q16 4 30 -4.5t18.5 -24.5t-4 -30t-24.5 -19q-80 -20 -164 -30q2 -174 10 -304q1 -16 -10 -28.5t-27.5 -13.5t-29 10t-13.5 28q-8 132 -9 301q-22 -2 -46 -3q-17 0 -29 11t-12.5 27.5t10.5 28.5t27 13q26 1 49 2v151q0 16 12 28t28 12t28 -12
t12 -28z" />
    <glyph glyph-name="u" unicode="u" horiz-adv-x="679" 
d="M212 527q-1 -9 -4 -38t-4 -41t-2.5 -37t-1.5 -40t1 -35t4 -37t8 -34q10 -32 36.5 -65t61.5 -53q76 -45 134 -6q38 26 50 139q4 32 5 65t0.5 75.5t-0.5 46.5q0 17 12 28.5t28.5 11.5t28 -12t11.5 -28v-49q0 -47 -1 -81t-5 -66q-16 -149 -85 -196q-35 -24 -75 -29t-75 4
q-35 8 -68 28q-47 28 -83 72q-37 45 -51 93q-7 23 -11 50.5t-5 47.5t0.5 54t2 47t4.5 50.5t4 42.5q2 16 14.5 26.5t29 9t27 -14t9.5 -29.5z" />
    <glyph glyph-name="v" unicode="v" horiz-adv-x="615" 
d="M156 527l88 -197q33 -72 55 -113q12 -22 20 -33q-2 -1 -4 -3h1q2 1 4 1q3 -5 5 -6l-2 6l-1 1q6 2 15 11q21 23 43 74q17 40 36 96q4 15 12 40.5t10 32.5q6 16 20.5 23t30.5 1.5t23 -20t2 -30.5q-3 -7 -10.5 -31.5t-12.5 -39.5q-19 -61 -38 -104q-28 -63 -58 -96
q-48 -52 -104 -35q-12 4 -24 16q-6 6 -13 16q-10 15 -25 42q-23 43 -58 117l-87 199q-7 15 -1 30.5t21 22t30.5 0.5t21.5 -21zM322 183q-2 1 -3 1l1 -2q1 0 2 1z" />
    <glyph glyph-name="w" unicode="w" horiz-adv-x="946" 
d="M138 509q13 -35 81 -196l51 -116l5 -11q4 6 8 13q21 37 47 115q6 16 20 59.5t21 62.5q10 29 19 45q7 12 15 19q19 18 43 13q15 -4 28 -17l13 -18q9 -16 20 -44q12 -27 44 -117q29 -79 44 -112q9 -21 16 -32q7 2 15 8q13 9 32 31l3 5l12 26l34 80q53 124 63 142
q7 15 23 20t30.5 -2.5t19.5 -23.5t-3 -30q-6 -12 -60 -137l-35 -81l-12 -27q-3 -6 -4 -9q-4 -8 -8 -13q-28 -31 -49 -45q-40 -30 -80 -23q-25 4 -45 33q-12 16 -24 45q-17 36 -47 118q-35 96 -38 103l-35 -105q-28 -84 -52 -127q-18 -32 -37 -49q-28 -26 -61 -23
q-14 2 -25 12l-4 6l-4 6q-3 5 -7 13q-7 14 -18 39l-51 117q-69 163 -82 201q-6 15 1 30t22.5 20.5t30.5 -1.5t20 -23z" />
    <glyph glyph-name="x" unicode="x" horiz-adv-x="689" 
d="M298 302l-179 218q-10 13 -7.5 29t15.5 26.5t29 8t27 -15.5q61 -80 164 -201q85 113 157 185q12 12 28.5 12t28 -12t11.5 -28.5t-12 -27.5q-72 -71 -160 -191q120 -141 181 -219q10 -13 8.5 -29.5t-14.5 -26.5t-29.5 -8.5t-26.5 14.5q-60 77 -168 203q-71 -99 -110 -148
q-10 -13 -26.5 -14.5t-29.5 8.5t-14.5 26.5t8.5 29.5q31 39 119 161z" />
    <glyph glyph-name="y" unicode="y" horiz-adv-x="561" 
d="M449 498q32 -205 -24 -342q-26 -63 -73 -125q-5 -13 -17 -21q-45 -54 -117 -120q-12 -11 -28.5 -10.5t-27.5 12.5t-10.5 28.5t12.5 27.5q61 56 100 102l-65 108q-48 81 -76 141q-10 22 -37 93l-33 93q-6 16 1 31t22.5 20.5t30.5 -1.5t20 -22l34 -93q26 -71 34 -87
q26 -57 72 -134l49 -81q21 34 36 69q47 116 19 299q-3 16 7 29.5t26 16t29.5 -7.5t15.5 -26z" />
    <glyph glyph-name="z" unicode="z" horiz-adv-x="556" 
d="M79 555q9 0 60 4t85 5q54 3 88 1q22 -1 37 -4q23 -5 36 -15q43 -35 45 -80q1 -36 -25 -72q-16 -20 -45 -46l-19 -16q-8 -7 -11 -11q-15 -15 -88 -99l-38 -46q17 1 28 0q28 -3 75 1q16 1 33 3l39 6q21 3 33 4q16 3 29 -7t15.5 -26.5t-7.5 -29.5t-27 -15q-108 -15 -109 -15
q-53 -4 -89 -1q-5 1 -20 0q-22 -1 -30 -1q-58 1 -76 42q-5 13 -1 27q1 3 2 7q2 3 4 7q2 3 6 8l18 23l55 65l90 103q6 6 17 15l19 16q22 20 32 34q10 13 10 21t-13 19q-1 1 -3 1q-10 2 -26 3q-30 1 -80 -1q-34 -2 -86 -5.5t-61 -4.5q-16 0 -28 11t-12.5 27.5t10.5 28.5t28 13
z" />
    <glyph glyph-name="braceleft" unicode="{" horiz-adv-x="499" 
d="M290 615q-11 2 -25 5q-1 0 -8.5 1.5t-11.5 2.5q-16 3 -23 1q-41 -10 -61 -63q-20 -54 -2 -96h1q6 -5 19 -13q44 -28 43 -66q-1 -27 -23 -46q-9 -8 -28 -18l-6 -3l2 -2q28 -37 26 -66q-8 -80 -33 -104q-16 -16 -37 -16q0 -13 2 -35q3 -38 22 -62t55 -41q23 -10 49 -17.5
t63 -16.5l56 -12q16 -5 24.5 -19t4 -30t-18.5 -24.5t-30 -4.5q-10 3 -51 12t-73 18q-30 10 -57 22q-115 53 -124 169q-3 38 -2 62q1 27 7 42q7 15 20 23q15 8 32 5q3 0 6 -1q3 14 5 34l-9 13q-30 38 -23 70q5 23 27 40q8 5 21 12q-32 20 -42 43q-33 71 0 156q15 40 44.5 71
t70.5 42q25 6 59 -1l21 -5q10 -2 16 -2q17 -2 27 -15t8.5 -29.5t-14.5 -26.5t-29 -9z" />
    <glyph glyph-name="bar" unicode="|" 
d="M258 643q-2 -122 2.5 -348t4.5 -321q0 -16 -12 -28t-28 -12t-28 12t-12 28q0 95 -4 322q-3 169 -3 347q0 17 12 28.5t28.5 11.5t28 -12t11.5 -28z" />
    <glyph glyph-name="braceright" unicode="}" horiz-adv-x="394" 
d="M123 676q34 -9 51 -14t43 -18t40 -29q50 -55 13 -167q-6 -18 -33 -53q-7 -10 -9 -15q3 -3 8 -7q37 -31 38.5 -61.5t-25.5 -65.5q-14 -18 -15 -21q-5 -25 -7 -42q18 -5 31 -18q25 -26 34 -87q9 -58 -16 -98q-26 -39 -71 -60q-50 -23 -151 -33q-17 -1 -29.5 9.5t-14 27
t9 29t26.5 14.5q87 8 125 25q26 12 36.5 29t6.5 45q-5 29 -11 41h-3q-17 1 -28 8q-19 12 -24 37t8 89q4 22 31 55q4 5 6 9q-3 3 -8 7q-37 31 -38 63q0 32 27 68q18 24 20 29q23 69 4 89q-15 17 -95 37q-16 5 -24.5 19t-4 30t18.5 24.5t30 4.5z" />
    <glyph glyph-name="asciitilde" unicode="~" horiz-adv-x="647" 
d="M87 652q51 60 80 81q40 27 78 14q8 -3 17 -8t19.5 -12t11.5 -8q27 -16 58 -22q10 -2 19.5 -2t19 2t17.5 4t19 7l18 9l23 11l24 12q15 7 30.5 1.5t22.5 -20.5t1.5 -30.5t-20.5 -22.5q-7 -3 -21 -10l-22 -12q-10 -5 -24.5 -11t-27.5 -10t-28.5 -6.5t-32 -2.5t-32.5 3
q-46 8 -85 32q-10 6 -17 11t-10 6l-5 3q-3 -1 -7 -4q-21 -14 -66 -67q-10 -12 -27 -14q-16 -1 -28.5 9.5t-14 27t9.5 29.5z" />
    <glyph glyph-name="quoteleft" unicode="&#x2018;" 
d="M260 668l-88 -167q-8 -14 -23.5 -19t-30 3t-19.5 23.5t3 30.5l88 165q7 15 23 20t30.5 -2.5t19.5 -23.5t-3 -30z" />
    <glyph glyph-name="quoteright" unicode="&#x2019;" horiz-adv-x="313" 
d="M213 684l-15 -60q-4 -18 -5 -23q-1 -6 -1 -11.5t-0.5 -25.5t-1.5 -43q-1 -17 -13 -28t-28.5 -10.5t-27.5 12.5t-11 28q3 85 4 89q1 10 7 31l14 59q4 16 18 25t30 5t25 -18t5 -30z" />
    <glyph glyph-name="quotedblleft" unicode="&#x201c;" horiz-adv-x="502" 
d="M227 645l-43 -112q-6 -16 -21 -22.5t-30.5 -0.5t-22 21t-0.5 30l43 112q6 16 21 22.5t30.5 0.5t22 -21t0.5 -30zM402 655l-28 -139q-3 -16 -17 -25t-30 -6t-25 17t-6 30l28 139q3 16 17 25t30 6t25 -17t6 -30z" />
    <glyph glyph-name="quotedblright" unicode="&#x201d;" horiz-adv-x="503" 
d="M203 638l-64 -150q-6 -15 -21.5 -21.5t-30.5 -0.5t-21.5 21.5t-0.5 30.5q30 75 66 152q7 15 22 21t30 -1t21 -22t-1 -30zM402 664l-27 -95q-4 -16 -18.5 -24t-30.5 -3.5t-24 19t-3 30.5l27 95q4 16 18.5 24t30.5 3.5t24 -19t3 -30.5z" />
    <glyph glyph-name="uni3000" unicode="&#x3000;" horiz-adv-x="1000" 
 />
  </font>
</defs>
</svg>
