<?xml version="1.0" standalone="no"?>
<!DOCTYPE svg PUBLIC "-//W3C//DTD SVG 1.1//EN" "http://www.w3.org/Graphics/SVG/1.1/DTD/svg11.dtd" >
<svg>
<metadata>
Created by FontForge 20120731 at Tue Aug  4 04:48:14 2020
 By ffonts
KIDERSUN Koplexs_Studio. 2020. All Rights Reserved
</metadata>
<defs>
<font id="KIDERSUN" horiz-adv-x="305" >
  <font-face 
    font-family="KIDERSUN"
    font-weight="400"
    font-stretch="normal"
    units-per-em="1000"
    panose-1="2 0 6 0 0 0 0 0 0 0"
    ascent="800"
    descent="-200"
    x-height="467"
    cap-height="699"
    bbox="-406.084 -353.387 829 843"
    underline-thickness="50"
    underline-position="-50"
    unicode-range="U+001D-FB02"
  />
<missing-glyph horiz-adv-x="452" 
d="M402 0h-402v700h402v-700zM378 24v652h-354v-652h354zM184 222h-15c-12 31 -17 55 -17 72c0 25 13 60 39 106c27 47 40 82 40 106c0 37 -22 60 -60 60c-24 0 -40 -9 -61 -27v22c29 26 55 35 83 35c58 0 99 -31 99 -85c0 -33 -14 -62 -53 -112c-21 -26 -37 -47 -49 -64
c-11 -17 -17 -33 -17 -48c0 -13 4 -34 11 -65zM179 104c-4 0 -7 2 -10 5l-30 35c-2 2 -3 5 -3 8c0 4 1 7 5 11l28 28c3 4 7 5 10 5s6 -2 10 -5l28 -29c3 -4 4 -7 4 -10c0 -4 -2 -7 -5 -11l-27 -30c-5 -5 -8 -7 -10 -7z" />
    <glyph glyph-name=".notdef" horiz-adv-x="452" 
d="M402 0h-402v700h402v-700zM378 24v652h-354v-652h354zM184 222h-15c-12 31 -17 55 -17 72c0 25 13 60 39 106c27 47 40 82 40 106c0 37 -22 60 -60 60c-24 0 -40 -9 -61 -27v22c29 26 55 35 83 35c58 0 99 -31 99 -85c0 -33 -14 -62 -53 -112c-21 -26 -37 -47 -49 -64
c-11 -17 -17 -33 -17 -48c0 -13 4 -34 11 -65zM179 104c-4 0 -7 2 -10 5l-30 35c-2 2 -3 5 -3 8c0 4 1 7 5 11l28 28c3 4 7 5 10 5s6 -2 10 -5l28 -29c3 -4 4 -7 4 -10c0 -4 -2 -7 -5 -11l-27 -30c-5 -5 -8 -7 -10 -7z" />
    <glyph glyph-name=".notdef" horiz-adv-x="452" 
d="M402 0h-402v700h402v-700zM378 24v652h-354v-652h354zM184 222h-15c-12 31 -17 55 -17 72c0 25 13 60 39 106c27 47 40 82 40 106c0 37 -22 60 -60 60c-24 0 -40 -9 -61 -27v22c29 26 55 35 83 35c58 0 99 -31 99 -85c0 -33 -14 -62 -53 -112c-21 -26 -37 -47 -49 -64
c-11 -17 -17 -33 -17 -48c0 -13 4 -34 11 -65zM179 104c-4 0 -7 2 -10 5l-30 35c-2 2 -3 5 -3 8c0 4 1 7 5 11l28 28c3 4 7 5 10 5s6 -2 10 -5l28 -29c3 -4 4 -7 4 -10c0 -4 -2 -7 -5 -11l-27 -30c-5 -5 -8 -7 -10 -7z" />
    <glyph glyph-name="space" unicode=" " horiz-adv-x="287" 
 />
    <glyph glyph-name="space" unicode="&#xa0;" horiz-adv-x="287" 
 />
    <glyph glyph-name="exclam" unicode="!" horiz-adv-x="232" 
d="M80 678l8 -1c47 -3 78 -41 93 -112c1 -14 1 -24 0 -31l-65 -360c-5 -17 -25 -19 -39 -18h-7c-29 3 -51 70 -68 204c-2 82 -1 158 4 226c13 64 37 95 74 92zM65 101c24 2 57 0 72 -39l4 -14c0 -37 -25 -58 -57 -58h-7c-27 0 -48 23 -53 55c-5 19 20 54 41 56z" />
    <glyph glyph-name="quotedbl" unicode="&#x22;" 
d="M179 816c40 0 65 -40 76 -119v-23c-4 -67 -29 -111 -74 -131h-11c-11 0 -18 7 -20 22c18 52 27 83 27 93v8c0 10 -12 20 -35 29c-21 16 -31 35 -31 55v6c0 28 22 48 68 60zM70 756c24 0 44 -24 61 -72c6 -18 9 -37 9 -55v-16c0 -45 -20 -80 -58 -105l-12 -2
c-9 0 -16 6 -21 18c19 46 29 72 29 78v11c0 13 -16 23 -47 28c-21 15 -31 29 -31 43c0 24 16 46 47 68c6 3 13 4 23 4z" />
    <glyph glyph-name="numbersign" unicode="#" horiz-adv-x="776" 
d="M406 619h5c20 -6 30 -20 30 -43v-10c0 -11 -11 -38 -33 -82l26 3h43c55 85 91 127 107 127h2c19 0 38 -16 34 -56c-8 -24 -19 -48 -31 -74h3c89 0 134 -8 134 -25v-8c0 -26 -28 -41 -86 -46c-10 0 -42 -1 -97 -5c0 -2 -13 -27 -38 -76h5c93 0 140 -9 140 -26v-7
c0 -23 -23 -37 -69 -43c-42 -4 -84 -6 -127 -8c-68 -131 -116 -196 -145 -196h-10c-22 7 -31 24 -31 36v10c0 12 22 60 67 145h-64c-63 -124 -114 -196 -145 -186c-24 11 -36 25 -36 43c0 12 22 59 64 140h-13c-141 -2 -128 28 -127 46c0 26 36 38 109 38c30 2 54 3 72 3
c5 0 20 24 45 74h-22c-75 0 -118 9 -128 28v17c0 26 40 39 120 39l86 5c55 91 91 137 110 137zM324 324h3c3 2 6 2 10 2h48c0 3 13 26 39 69h-59c-4 -1 -18 -25 -41 -71z" />
    <glyph glyph-name="dollar" unicode="$" horiz-adv-x="511" 
d="M217 807c33 0 54 -43 64 -130c58 0 100 -28 125 -83c4 -5 5 -12 5 -19v-4c0 -30 -30 -50 -90 -59c-9 -2 -20 -3 -33 -3h-38c-12 0 -29 1 -49 3c-28 -12 -43 -27 -43 -45c9 -38 21 -57 36 -57c0 -5 42 -10 127 -14c45 -9 81 -29 109 -59c21 -38 31 -75 31 -111v-26
c0 -61 -47 -110 -142 -149c-3 -4 -6 -24 -9 -59c-11 -42 -27 -70 -48 -83h-23c-18 9 -32 26 -43 52c-9 34 -14 53 -14 57c-72 0 -120 41 -144 125c-3 12 -5 23 -5 33v2c0 30 13 45 38 45c12 0 65 -11 158 -33h12c43 9 64 20 64 36c0 35 -37 55 -111 61
c-87 0 -141 18 -163 54c-21 32 -31 63 -31 95v24c0 74 48 137 144 189h3v7c0 79 19 129 59 151h11z" />
    <glyph glyph-name="percent" unicode="%" horiz-adv-x="517" 
d="M434 672h7c14 -9 21 -23 21 -43v-4c0 -24 -18 -62 -53 -114c-53 -92 -151 -241 -293 -447c-37 -41 -63 -62 -77 -62h-7c-21 12 -32 26 -32 43v2c0 25 85 160 255 407c56 87 108 157 156 209c7 6 15 9 23 9zM98 670h5c32 0 59 -28 79 -84c3 -10 4 -20 4 -30v-15
c0 -48 -23 -83 -70 -104l-13 -3h-5c-26 0 -52 16 -79 48c-13 21 -19 41 -19 59v15c0 46 24 82 73 110c10 2 18 4 25 4zM68 552c0 -33 10 -49 28 -49c16 0 24 15 24 45v6c0 30 -9 45 -28 45c-16 -4 -24 -20 -24 -47zM381 235c38 0 66 -32 83 -96c2 -7 3 -16 3 -28
c0 -51 -24 -87 -71 -109l-13 -2h-4c-30 0 -58 18 -84 54c-10 18 -15 35 -15 51v19c0 40 21 74 62 103c13 6 26 8 39 8zM349 113c0 -25 8 -40 26 -45c17 0 25 15 25 45c0 35 -9 52 -28 52c-14 0 -22 -17 -23 -52z" />
    <glyph glyph-name="ampersand" unicode="&#x26;" horiz-adv-x="492" 
d="M196 705h14c84 0 152 -60 169 -174l5 -32c0 -96 -49 -174 -146 -233c45 -67 70 -105 73 -114c7 0 37 13 91 41c40 12 32 -55 32 -55c0 -22 -21 -43 -64 -64v-4l37 -55c16 -24 -15 -64 -51 -46c-1 0 -21 20 -59 59c-61 -27 -111 -41 -151 -41h-23c-72 3 -121 66 -123 137
v14c0 48 37 95 110 142c-69 92 -97 156 -101 242c-5 101 63 162 187 183zM110 513v-23c0 -28 26 -80 77 -156c61 49 92 105 92 170c0 49 -20 80 -60 91h-23c-57 -7 -86 -34 -86 -82zM114 143v-10c0 -24 12 -36 37 -36h4c15 0 40 4 78 14v4c-31 42 -53 74 -64 96
c-37 -29 -55 -52 -55 -68z" />
    <glyph glyph-name="quotesingle" unicode="'" horiz-adv-x="169" 
d="M58 770c35 0 55 -36 61 -109v-5c-3 -60 -24 -97 -63 -112h-7c-9 0 -15 6 -17 19c15 43 22 67 22 71v12c0 9 -9 17 -28 24c-17 16 -26 30 -26 42v9c0 21 17 38 51 49h7z" />
    <glyph glyph-name="parenleft" unicode="(" horiz-adv-x="431" 
d="M234 798c56 -6 86 -24 88 -55c1 -18 -19 -35 -62 -52c-47 -51 -83 -134 -105 -248c-17 -98 -23 -184 -17 -260l2 -29c9 -121 45 -198 108 -232c98 -10 148 -28 149 -55l1 -7c-20 -31 -55 -48 -105 -52l-26 -2c-106 -7 -184 46 -234 162c-22 71 -36 143 -41 215l-1 18
c-23 306 44 503 200 590c17 4 31 6 43 7z" />
    <glyph glyph-name="parenright" unicode=")" horiz-adv-x="431" 
d="M59 787l25 2c106 5 183 -50 231 -166c21 -72 33 -144 37 -217l1 -18c16 -306 -55 -501 -213 -585c-17 -4 -31 -6 -43 -6c-56 6 -85 25 -87 57c-1 17 20 34 63 50c48 50 85 132 110 246c20 97 27 184 23 260l-2 29c-6 121 -40 199 -103 234c-97 12 -147 31 -148 58l-1 7
c20 30 56 47 107 49z" />
    <glyph glyph-name="asterisk" unicode="*" horiz-adv-x="410" 
d="M195 807c13 0 19 -40 19 -119c65 47 101 76 111 76c0 0 23 3 24 -18v-3c0 -11 -40 -51 -119 -120c87 -60 130 -95 130 -107v-6c0 -3 -4 -12 -15 -12h-8c-18 0 -59 22 -123 67v-3c0 -79 -8 -119 -23 -119h-20c-16 0 -24 31 -24 92v21c-57 -47 -95 -70 -114 -70
c-4 0 -15 3 -20 15v3c0 13 41 52 122 116c-89 61 -134 98 -134 111c-1 4 -1 11 0 15c0 4 3 6 8 6h8c14 0 57 -25 130 -73h4v21c0 71 11 107 32 107h12z" />
    <glyph glyph-name="plus" unicode="+" horiz-adv-x="644" 
d="M287 646h2c13 0 25 -12 36 -36c7 -59 11 -132 11 -220c19 0 35 0 47 1c134 0 201 -4 201 -11c7 -4 10 -9 10 -15v-3c0 -12 -12 -24 -36 -36c-34 -6 -105 -11 -214 -14l-8 -2c0 -22 0 -59 2 -110c0 -99 -12 -148 -35 -148h-3c-26 0 -39 19 -39 57c-2 23 -3 60 -3 112v89
c-10 -1 -54 -3 -133 -5c-67 0 -108 8 -122 23l-3 5v8c0 18 9 30 26 36c72 7 149 11 232 11c0 4 0 15 -2 34c3 145 9 218 18 218c5 4 9 6 13 6z" />
    <glyph glyph-name="comma" unicode="," horiz-adv-x="202" 
d="M74 150c45 0 71 -46 78 -139v-7c-4 -76 -31 -124 -80 -143h-9c-12 0 -19 8 -22 24c19 55 29 86 29 91v15c0 12 -13 22 -37 31c-22 20 -33 38 -33 54v11c0 27 22 48 65 63h9z" />
    <glyph glyph-name="hyphenminus" unicode="-" horiz-adv-x="459" 
d="M117 283h120c93 0 147 -5 162 -14c6 -4 10 -13 10 -19v-4c0 -18 -7 -34 -29 -43c-31 -7 -93 -11 -183 -11h-100c-54 0 -86 10 -96 30l-1 3v12c0 29 15 44 46 44c23 1 47 2 71 2z" />
    <glyph glyph-name="hyphenminus" unicode="&#xad;" horiz-adv-x="459" 
d="M117 283h120c93 0 147 -5 162 -14c6 -4 10 -13 10 -19v-4c0 -18 -7 -34 -29 -43c-31 -7 -93 -11 -183 -11h-100c-54 0 -86 10 -96 30l-1 3v12c0 29 15 44 46 44c23 1 47 2 71 2z" />
    <glyph glyph-name="period" unicode="." horiz-adv-x="172" 
d="M46 101c24 2 57 0 72 -39l4 -14c0 -37 -25 -58 -57 -58h-7c-27 0 -48 23 -53 55c-5 19 20 54 41 56z" />
    <glyph glyph-name="slash" unicode="/" horiz-adv-x="433" 
d="M332 694h4c24 0 40 -20 47 -61v-6c0 -43 -81 -233 -242 -569c-35 -55 -65 -83 -90 -83c-34 16 -51 33 -51 51v3c0 31 61 173 182 429c59 121 102 197 131 230c7 4 14 6 19 6z" />
    <glyph glyph-name="zero" unicode="0" horiz-adv-x="454" 
d="M173 671h9c86 0 143 -35 173 -106c33 -89 49 -171 49 -249c0 -121 -25 -309 -176 -323c-80 -8 -131 18 -150 55c-52 72 -78 175 -78 309v34c0 142 24 227 72 254c34 18 67 26 101 26zM152 395c2 -134 8 -240 61 -238c34 4 50 101 49 138c11 101 -28 227 -86 210
c-19 -13 -24 -56 -24 -110z" />
    <glyph glyph-name="one" unicode="1" horiz-adv-x="354" 
d="M187 676h3c114 -6 97 -479 97 -560v-47c0 -35 -13 -67 -79 -74c-85 18 -75 124 -75 170c0 62 1 135 3 217c-2 30 -5 56 -9 80c-24 -8 -45 -12 -63 -12c-43 5 -64 19 -64 43v10c0 45 46 99 136 160c20 9 37 13 51 13z" />
    <glyph glyph-name="two" unicode="2" horiz-adv-x="528" 
d="M193 678c137 1 191 -132 178 -246c-7 -142 -152 -270 -152 -270v-3c8 0 138 20 164 20c45 0 89 -21 95 -92c-1 -72 -256 -80 -256 -80c-95 0 -153 24 -175 72c-2 10 -3 18 -3 23c0 40 36 103 107 190c38 59 57 114 57 166c-2 39 -13 60 -33 60c-5 0 -48 1 -116 -51
c-38 -9 -59 31 -56 65v12c16 65 95 128 190 134z" />
    <glyph glyph-name="three" unicode="3" horiz-adv-x="484" 
d="M72 676c121 3 192 -48 213 -144c2 -11 3 -22 3 -33c0 -36 -36 -72 -108 -108c-8 -2 -14 -7 -18 -15c104 -51 156 -107 156 -167v-9c0 -62 -35 -119 -105 -171c-53 -24 -111 -36 -174 -36h-27c-59 5 -93 17 -102 36c-2 4 -6 16 -6 24c0 28 57 61 171 102
c20 12 30 28 30 48c0 41 -55 69 -165 84c-23 8 -38 18 -45 30v15c0 36 45 74 135 113c14 14 21 25 21 33v6c-11 26 -50 39 -117 39c-88 -7 -164 145 138 153z" />
    <glyph glyph-name="four" unicode="4" horiz-adv-x="460" 
d="M258 676c51 0 81 -17 92 -52c40 -134 60 -285 60 -452c-3 -104 -7 -177 -89 -186h-9c-30 0 -65 16 -63 85c10 73 15 118 15 134v25c0 16 -5 26 -15 30h-6c-84 -38 -134 -58 -148 -58h-21c-50 11 -74 36 -74 74v3c0 63 51 181 154 354c18 29 53 43 104 43zM178 389
c2 -8 6 -12 12 -12c41 7 62 17 62 30c0 9 -3 40 -9 92c-43 -38 -65 -75 -65 -110z" />
    <glyph glyph-name="five" unicode="5" horiz-adv-x="496" 
d="M265 673h12c98 0 147 -26 147 -77c-10 -41 -41 -62 -92 -62c-62 7 -102 10 -119 10c-35 0 -53 -23 -53 -68c0 -41 19 -65 56 -70c82 -24 136 -40 159 -50c47 -33 71 -77 71 -132v-21c0 -75 -53 -137 -160 -184c0 0 -51 -21 -150 -22c-70 0 -105 25 -105 74s23 74 68 74
h92c53 0 80 14 80 43c-3 47 -25 70 -65 70c-206 6 -170 116 -175 267c0 80 -2 105 34 120c51 18 117 28 200 28z" />
    <glyph glyph-name="six" unicode="6" horiz-adv-x="471" 
d="M147 679h14c42 -14 63 -35 63 -63v-18c0 -37 -27 -130 -80 -277v-9c66 14 113 22 140 24c71 0 115 -33 134 -99c0 -6 1 -13 3 -20c0 -67 -52 -132 -155 -197c-40 -16 -74 -24 -102 -24h-8c-78 0 -128 56 -153 167c-2 15 -3 32 -3 51v3c0 78 35 220 105 426
c15 24 29 36 42 36zM156 193c9 -32 24 -48 44 -48c30 0 47 19 54 57c0 10 -10 16 -30 18c-46 -7 -68 -16 -68 -27z" />
    <glyph glyph-name="seven" unicode="7" horiz-adv-x="547" 
d="M300 685c110 -10 165 -38 165 -85c0 0 32 -111 -198 -449c-75 -102 -132 -152 -171 -152c-30 0 -48 21 -54 63c0 62 70 186 210 370c6 14 9 24 9 29v12c0 13 -56 21 -168 26c-68 2 -93 39 -93 66v13c0 34 42 63 126 88c70 21 174 19 174 19z" />
    <glyph glyph-name="eight" unicode="8" horiz-adv-x="425" 
d="M168 680h8c90 0 152 -47 188 -141c4 -14 6 -25 6 -35v-12c0 -63 -33 -111 -99 -144c70 -41 104 -100 104 -176c0 -84 -43 -139 -130 -165c-28 -5 -52 -8 -72 -8h-11c-67 0 -112 33 -133 101c-6 18 -9 38 -9 60v6c0 64 21 121 64 173c-56 50 -84 108 -84 174
s33 117 98 150c27 11 50 17 70 17zM124 478c0 -30 19 -47 58 -52h6c31 0 46 19 46 58v5c-4 31 -17 47 -38 47h-8c-43 -8 -64 -27 -64 -58zM136 227v-3c0 -53 12 -78 63 -87c19 0 45 19 49 55c0 44 -21 71 -63 81h-6c-24 0 -38 -15 -43 -46z" />
    <glyph glyph-name="nine" unicode="9" horiz-adv-x="503" 
d="M242 671c81 9 156 -14 167 -69c29 -197 44 -313 44 -349v-18c0 -129 -27 -217 -145 -245c-127 -22 -177 28 -225 116c-24 44 -3 69 15 63c54 -23 89 -35 104 -35h14c37 0 64 22 81 64c4 7 6 18 6 32v26c-3 62 -8 94 -15 98c-48 -51 -149 -38 -149 -38
c-55 4 -99 61 -114 127c-25 102 63 213 217 228zM170 489v-5c0 -29 15 -44 46 -44c38 6 58 23 58 52c-5 35 -21 52 -49 52h-9c-31 -8 -46 -26 -46 -55z" />
    <glyph glyph-name="colon" unicode=":" horiz-adv-x="154" 
d="M43 402c40 -10 61 -25 61 -44v-10c-7 -31 -23 -46 -47 -46h-9c-32 8 -48 23 -48 46v6c0 19 12 35 35 48h8zM31 180h8c28 0 50 -14 65 -41v-15c0 -13 -9 -26 -26 -39c-8 -3 -17 -5 -26 -5c-35 5 -52 22 -52 52c0 16 10 32 31 48z" />
    <glyph glyph-name="semicolon" unicode=";" horiz-adv-x="169" 
d="M49 398c42 -9 63 -25 63 -46v-9c-7 -31 -24 -47 -50 -47c-36 7 -54 24 -54 52c9 34 22 50 41 50zM63 191h4c29 0 47 -24 52 -72v-8c0 -49 -21 -84 -63 -105c-8 -4 -15 -6 -20 -6h-8c-15 1 -22 7 -22 19v1c31 33 46 50 46 52c2 5 2 9 2 13c0 5 -12 15 -37 32
c-10 11 -16 21 -17 31c0 21 21 35 63 43z" />
    <glyph glyph-name="less" unicode="&#x3c;" horiz-adv-x="523" 
d="M432 566h12c11 -5 17 -14 17 -26v-7c0 -23 -30 -50 -89 -81c-65 -41 -147 -88 -247 -140v-4c9 0 106 -49 290 -147c34 -18 53 -33 58 -45v-13c0 -19 -9 -31 -29 -34h-9c-31 0 -129 47 -295 140c-39 19 -79 43 -122 72c-7 0 -13 11 -18 33v12c4 17 74 60 210 131
c126 72 200 108 222 109z" />
    <glyph glyph-name="equal" unicode="=" horiz-adv-x="502" 
d="M131 384h127c125 0 188 -6 188 -17c4 -2 6 -6 6 -11v-5c0 -16 -13 -28 -39 -36c-33 -3 -86 -6 -161 -8c-25 1 -48 2 -71 2h-91c-45 0 -75 7 -88 23l-2 8v5c0 25 17 38 50 38c27 1 54 1 81 1zM175 269h91c122 -2 183 -8 183 -19l3 -11v-1c-6 -27 -22 -40 -49 -40
c-49 -4 -112 -6 -189 -6h-97c-62 0 -99 7 -112 20l-5 8v10c0 24 16 36 49 36c25 2 67 3 126 3z" />
    <glyph glyph-name="greater" unicode="&#x3e;" horiz-adv-x="523" 
d="M42 556c21 -1 95 -37 221 -109c136 -71 206 -114 210 -131v-12c-4 -22 -10 -33 -18 -33c-43 -29 -83 -53 -121 -72c-167 -93 -265 -140 -296 -140h-9c-19 3 -29 15 -29 34v13c5 12 24 27 58 45c185 98 281 147 290 147v4c-99 52 -182 99 -246 140c-60 31 -89 58 -89 81v7
c0 12 5 21 16 26h13z" />
    <glyph glyph-name="question" unicode="?" horiz-adv-x="394" 
d="M194 730h15c67 0 111 -39 132 -118c2 -11 3 -21 3 -32v-10c0 -42 -34 -126 -101 -252c-13 -34 -24 -72 -34 -116c-18 -34 -39 -51 -62 -51c-39 10 -59 36 -59 78c0 27 31 93 94 199c18 41 27 76 27 106v19c0 26 -8 40 -22 40c-24 0 -64 -31 -118 -91l-13 -3
c-20 0 -38 25 -56 74v10c0 70 52 118 155 145c16 1 29 2 39 2zM101 127h7c57 -11 85 -31 85 -61c-6 -44 -28 -66 -66 -66h-7c-39 11 -59 29 -59 56v12c0 20 14 39 40 59z" />
    <glyph glyph-name="A" unicode="A" horiz-adv-x="567" 
d="M251 678c58 0 127 -101 206 -302c40 -112 60 -195 60 -249c0 -40 -23 -75 -70 -105l-18 -3c-38 0 -79 68 -123 204c-5 3 -10 5 -15 5c-125 -8 -80 -241 -196 -229h-10c-57 13 -85 35 -85 66v22c0 91 121 479 231 586c4 6 8 7 20 5zM315 375v2c-11 64 -23 87 -42 87
c-16 0 -36 -29 -54 -105l3 -5z" />
    <glyph glyph-name="B" unicode="B" horiz-adv-x="488" 
d="M146 660c89 0 158 -32 206 -98c17 -28 25 -55 25 -80c0 -45 -19 -94 -58 -148c0 0 118 -49 128 -141c8 -71 -51 -133 -173 -186c-35 -12 -68 -18 -98 -18c-65 0 -113 25 -146 76c0 0 10 212 9 251c0 42 -4 117 -34 254c-3 21 -5 34 -5 40c41 33 89 50 146 50zM163 522
c0 -1 0 -4 -2 -10c7 -51 10 -79 10 -85c23 0 46 10 70 30l3 5v12c0 12 -25 28 -76 48h-5zM194 246c-4 -4 -5 -8 -5 -10c3 -35 5 -58 5 -71v-17h2c29 0 53 10 73 32v15c-18 21 -43 38 -75 51z" />
    <glyph glyph-name="C" unicode="C" horiz-adv-x="553" 
d="M269 678c77 3 139 0 197 -57c59 -69 67 -171 -85 -125c-88 27 -123 2 -144 -9c-41 -21 -67 -69 -61 -156s14 -150 42 -175c23 -14 111 0 172 111c21 23 38 26 59 22c30 -5 48 -29 54 -89c0 -75 -53 -137 -160 -187c-34 -14 -71 -17 -103 -17h-15c-56 0 -107 18 -155 84
c-44 69 -70 214 -64 295c0 143 53 238 160 286c38 11 72 16 103 17z" />
    <glyph glyph-name="D" unicode="D" horiz-adv-x="507" 
d="M208 678c119 0 195 -55 227 -164c15 -53 22 -104 22 -153v-50c0 -145 -72 -243 -216 -294c-46 -14 -88 -20 -126 -20c-113 -14 -89 244 -115 658c0 7 60 15 181 23h27zM157 423c7 -52 22 -235 22 -235c98 -13 145 80 115 219c-7 35 -40 91 -126 83c-10 0 -15 -36 -11 -67
z" />
    <glyph glyph-name="E" unicode="E" horiz-adv-x="500" 
d="M254 685h18c106 -8 163 -26 168 -52c7 -27 10 -49 10 -66c0 -47 -30 -84 -66 -79c-41 7 -81 30 -140 24c-35 0 -74 -16 -71 -61v-7c4 -19 27 -42 54 -40c42 5 57 19 76 13c13 -4 23 -22 26 -73c-3 -43 -14 -60 -34 -60l-68 8c-16 0 -43 -11 -43 -36c-1 -36 25 -74 72 -81
h20c47 -6 93 21 136 20c37 0 56 -19 56 -58v-5c-2 -59 -58 -115 -227 -128h-27c-84 0 -143 35 -176 106c-25 62 -38 147 -38 256c0 131 24 204 48 239c32 46 112 82 206 80z" />
    <glyph glyph-name="F" unicode="F" horiz-adv-x="494" 
d="M196 675h42c87 0 151 -26 194 -78c8 -12 12 -21 12 -27v-18c-11 -43 -51 -65 -118 -65l-88 7c-63 2 -93 -37 -87 -59c0 -20 8 -30 23 -30c24 5 40 8 50 8h8c55 -7 77 -50 77 -82v-3c0 -30 -24 -61 -81 -68c-3 0 -21 0 -55 2c-27 1 23 -118 25 -172c2 -49 -4 -89 -45 -96
c-16 -3 -28 -5 -38 -5h-17c-23 4 -43 31 -56 83c-28 108 -42 219 -42 332c2 122 8 188 37 223c33 34 102 48 159 48z" />
    <glyph glyph-name="G" unicode="G" horiz-adv-x="551" 
d="M199 685h13c64 2 130 -23 201 -85c30 -30 45 -61 45 -81v-12c0 -21 -13 -33 -38 -35c-18 -2 -83 24 -133 27c-67 0 -109 -47 -126 -140c-1 -11 -2 -23 -2 -38c0 -75 23 -127 70 -156c12 -4 21 -5 28 -5c31 0 60 20 88 60c2 3 2 7 2 10s-2 9 -10 8c-56 -27 -106 3 -113 50
c-9 59 79 99 151 101c84 0 126 -41 126 -123c0 -76 -36 -153 -108 -232c-39 -39 -84 -57 -121 -57h-20c-66 0 -129 47 -189 143c-50 90 -63 169 -60 261c6 157 54 255 143 294c21 7 39 10 53 10z" />
    <glyph glyph-name="H" unicode="H" horiz-adv-x="543" 
d="M100 713h15c27 0 55 -25 75 -70c8 -19 13 -41 13 -66v-53c0 -68 18 -103 55 -103h8c24 0 50 25 50 76v2c0 16 -6 58 -8 128c-1 45 34 61 61 61h10c33 0 88 -27 98 -96c27 -182 35 -311 35 -384c0 -101 -21 -168 -65 -199c-10 -7 -21 -10 -31 -10h-5c-32 0 -48 39 -62 113
c-6 27 -13 125 -13 131c-3 45 -22 68 -50 68c-25 0 -43 -22 -43 -66v-5c0 -88 8 -142 8 -160c0 -60 -26 -104 -81 -113c-75 -14 -108 89 -119 276c-4 70 -13 136 -13 196v80c0 129 8 194 62 194z" />
    <glyph glyph-name="I" unicode="I" horiz-adv-x="213" 
d="M53 699c55 -1 79 -29 85 -87c17 -139 25 -293 25 -460c-1 -65 -2 -152 -55 -150h-23c-47 0 -70 29 -70 89c-5 48 -10 170 -15 366c0 108 5 178 14 212c5 21 24 29 39 30z" />
    <glyph glyph-name="J" unicode="J" horiz-adv-x="497" 
d="M201 685h17c54 0 114 -34 164 -118c16 -26 37 -74 48 -144c15 -87 17 -155 17 -205c0 -154 -80 -231 -239 -231h-5c-90 12 -156 53 -196 127c-5 11 -7 24 -7 39c0 26 15 40 47 43c24 0 70 -14 141 -43c21 -8 39 -12 53 -12c27 0 45 18 55 55l3 29v17v7v15
c0 100 -21 188 -74 252c-25 20 -43 9 -68 27c-33 25 -32 54 -24 77c12 44 34 65 68 65z" />
    <glyph glyph-name="K" unicode="K" horiz-adv-x="562" 
d="M14 649c8 27 40 49 79 51c14 -2 33 -10 46 -19c23 -16 27 -71 28 -126l2 -103s90 61 199 201c20 15 40 23 60 23c43 -5 63 -24 76 -45c5 -8 7 -21 7 -28c0 -43 -38 -93 -109 -159c-66 -47 -113 -85 -140 -113c-7 -10 -10 -16 -10 -20c123 -54 242 -190 236 -247v-7
c-5 -37 -51 -65 -93 -60c-43 5 -109 57 -196 173c-15 15 -21 24 -33 23c-8 -5 -7 -15 -7 -23c6 -52 11 -93 12 -123c0 -59 -23 -88 -70 -88h-10c-85 12 -92 96 -88 226c11 250 -5 407 11 464z" />
    <glyph glyph-name="L" unicode="L" horiz-adv-x="553" 
d="M103 683c12 2 28 3 36 2c51 -6 55 -74 47 -135c0 -19 -2 -94 -7 -227c0 -78 22 -129 65 -153c26 -13 51 -20 73 -20c57 -1 74 18 116 18c49 -4 70 -28 70 -61c0 -47 -34 -86 -101 -118c-38 -15 -82 -22 -130 -22c-130 1 -190 26 -226 95c-40 98 -46 195 -46 302
c0 175 13 300 103 319z" />
    <glyph glyph-name="M" unicode="M" horiz-adv-x="829" 
d="M666 695c61 -4 98 -83 110 -248c2 -9 3 -33 3 -73v-33c0 -114 -3 -191 -9 -231c-3 -22 -10 -51 -18 -66c-15 -27 -44 -56 -86 -55h-5c-36 0 -64 36 -73 136c-2 21 1 151 5 201c-3 18 -10 27 -20 28c-59 1 -57 -65 -98 -114c-26 -40 -58 -61 -86 -60h-5
c-30 0 -64 49 -103 146c-18 35 -39 48 -50 48c-10 0 -15 -19 -15 -56v-32c0 -30 6 -94 17 -194v-15c0 -39 -27 -68 -83 -88c-6 -2 -12 -2 -17 -2c-71 0 -114 117 -131 351c-2 37 -2 72 -2 104c0 80 5 137 9 170c4 28 25 42 35 50c19 15 43 23 71 23h15
c63 0 113 -39 149 -118c58 -79 105 -118 140 -118c32 0 70 51 113 153c41 73 88 96 134 93z" />
    <glyph glyph-name="N" unicode="N" horiz-adv-x="648" 
d="M487 730c44 2 76 -52 83 -75c16 -31 24 -118 25 -262c0 -9 3 -120 3 -120v-40c0 -144 -26 -216 -78 -216c-36 0 -85 31 -134 103c-15 22 -23 41 -31 54c-13 22 -33 49 -59 81c-35 33 -63 50 -83 51c-6 0 -13 -4 -12 -18c26 -115 40 -182 40 -203c0 -44 -18 -73 -53 -88
c-11 -8 -52 -8 -60 -8c-60 0 -98 82 -116 246c-8 83 -12 165 -12 247v15v15c0 120 31 181 95 181h8c40 0 76 -33 108 -98c47 -79 86 -133 118 -164c17 -13 34 -20 53 -20c18 0 27 12 35 35c3 11 5 46 5 46c2 27 3 86 5 176c5 41 25 61 60 62z" />
    <glyph glyph-name="O" unicode="O" horiz-adv-x="573" 
d="M269 677h16c77 0 145 -56 204 -169c24 -54 37 -111 37 -171c0 -127 -52 -226 -154 -297c-38 -19 -70 -28 -98 -28c-52 0 -115 32 -190 96c-56 64 -84 136 -84 217v23c0 107 47 201 141 284c47 30 89 45 128 45zM178 345c7 -65 32 -125 64 -147c10 -6 22 -9 36 -9
c46 15 70 62 70 157c0 70 -19 118 -58 142c-7 3 -15 5 -24 5c-40 0 -72 -42 -85 -124c-2 -9 -3 -17 -3 -24z" />
    <glyph glyph-name="P" unicode="P" horiz-adv-x="588" 
d="M239 688h35c114 0 195 -41 226 -109c14 -25 20 -50 20 -76c0 -54 -11 -113 -70 -149c-178 -77 -284 3 -274 -93v-13c0 -11 6 -62 18 -153v-18c0 -51 -31 -85 -93 -100h-15c-55 0 -83 50 -83 150c5 112 8 174 8 186c-7 151 -11 236 -11 257v105c1 4 3 5 5 5h48
c112 5 174 8 186 8zM191 527c0 -40 16 -60 46 -60h12c35 -1 83 12 86 47c-5 43 -43 46 -78 43h-8c-33 0 -53 -10 -58 -30z" />
    <glyph glyph-name="Q" unicode="Q" horiz-adv-x="573" 
d="M212 675c63 -4 130 -33 203 -88c62 -55 93 -112 93 -168v-40c0 -26 -17 -84 -50 -174c-7 -26 -10 -44 -10 -55c0 -4 20 -22 60 -55c10 -11 15 -22 15 -33c0 -19 -18 -37 -55 -53h-5c-9 0 -45 15 -108 45c-12 4 -22 6 -30 6h-10c-58 -17 -93 -26 -106 -26h-2
c-100 0 -165 74 -197 222c-6 34 -10 70 -10 108c0 146 43 244 129 294c20 11 48 17 83 17zM159 391v-20c0 -53 24 -99 73 -138c8 -5 17 -8 25 -8h10c29 0 51 23 65 68c2 15 3 24 3 28c0 51 -21 93 -63 126c-17 10 -34 15 -50 15h-8c-32 0 -50 -24 -55 -71z" />
    <glyph glyph-name="R" unicode="R" horiz-adv-x="483" 
d="M192 689c105 -1 158 -19 211 -102c15 -24 18 -50 22 -75c12 -72 -26 -125 -56 -136c-33 -25 -127 -45 -127 -52c0 0 41 -50 132 -125c37 -36 49 -71 52 -99c1 -8 -1 -39 -10 -50c-9 -13 -28 -23 -56 -26h-2c-45 0 -102 61 -164 145c-13 17 -34 54 -41 54h-3
c8 -48 7 -137 7 -161c0 -34 -14 -55 -41 -65c-36 -9 -88 12 -103 43c-3 6 -6 35 -6 35c-4 53 -8 226 -13 556c-6 59 106 59 198 58zM141 532c-15 -74 -9 -102 1 -102c2 -2 7 -2 12 -2h5c50 0 98 32 116 59v5c0 29 -30 48 -88 58h-3c-28 0 -40 -7 -43 -18z" />
    <glyph glyph-name="S" unicode="S" horiz-adv-x="540" 
d="M279 683h5c89 0 162 -39 168 -136v-7c-6 -32 -32 -48 -78 -48h-25c-18 0 -57 14 -105 7c-30 -10 -46 -26 -46 -47c5 -39 17 -42 31 -56c9 -8 22 -12 40 -12h27c86 0 144 -30 174 -88c13 -39 20 -69 20 -91v-15c0 -64 -29 -111 -88 -141c-71 -45 -140 -67 -206 -67
c-89 0 -143 54 -161 163v8c0 36 18 55 53 55c7 0 59 -27 172 -35c17 -2 26 10 35 33c11 30 -24 62 -55 58c-97 0 -170 12 -207 59c-24 40 -31 75 -33 129c0 74 44 147 143 196c49 23 94 35 136 35z" />
    <glyph glyph-name="T" unicode="T" horiz-adv-x="691" 
d="M283 710c244 15 304 -31 335 -60c19 -16 23 -29 23 -38v-5c0 -33 -20 -70 -73 -78c-21 -1 -32 -2 -35 -2c-22 0 -53 2 -93 5c-80 0 -121 -50 -121 -148c0 -12 13 -96 38 -254c1 -16 3 -25 3 -33c0 -42 -17 -68 -48 -83c-32 -16 -48 -24 -86 -17c-18 9 -31 20 -37 34
c-4 6 -10 26 -13 46c-2 16 -4 41 -5 75v15c0 31 6 118 18 262v5c0 52 -16 78 -48 78c-37 -5 -61 -8 -73 -8c-38 0 -60 31 -68 93v8c0 59 58 99 180 98c24 3 59 6 103 7z" />
    <glyph glyph-name="U" unicode="U" horiz-adv-x="571" 
d="M76 687c7 4 15 6 15 6c108 20 89 -75 93 -170l-3 -162c0 -63 22 -118 73 -131h23c27 0 43 26 48 76v15c0 22 -3 78 -8 168c0 126 22 189 65 189h8c125 6 121 -2 131 -247c0 0 0 -75 -16 -361c0 -42 -25 -66 -75 -73c-40 0 -72 -2 -93 65c-80 -30 -141 -45 -183 -45
c-60 0 -95 16 -106 48c-27 66 -16 230 -40 487c-8 84 44 122 68 135z" />
    <glyph glyph-name="V" unicode="V" horiz-adv-x="728" 
d="M492 590c37 73 69 110 98 110c22 0 45 -13 62 -44c11 -17 24 -50 26 -71c0 -104 -46 -243 -138 -417c-70 -114 -126 -171 -168 -171h-18c-61 0 -117 62 -168 186c-124 254 -186 400 -186 437c0 27 25 47 75 60c2 2 9 3 20 3h3c57 0 96 -34 118 -101
c70 -172 118 -260 143 -264h10c19 15 60 106 123 272z" />
    <glyph glyph-name="W" unicode="W" horiz-adv-x="879" 
d="M65 695c55 0 102 -62 141 -186c32 -86 57 -138 75 -155h3c9 0 20 11 35 35c49 62 65 95 108 93h3c48 0 58 -28 80 -93c17 -42 28 -63 33 -63h5c10 9 33 60 68 156c47 117 113 181 150 181h8c28 0 46 -33 55 -98c0 -118 -73 -286 -218 -503c-26 -35 -43 -53 -53 -53
c-20 0 -56 48 -106 144c-20 33 -38 50 -52 50c-36 -25 -54 -91 -72 -135c-36 -72 -74 -76 -97 -76c-38 0 -93 122 -166 367c-43 101 -65 174 -65 218v25c0 55 22 86 65 93z" />
    <glyph glyph-name="X" unicode="X" horiz-adv-x="855" 
d="M56 725c0 0 105 26 312 -191c18 -19 41 -29 65 -32c24 0 65 34 128 98c79 81 111 82 171 78c40 -3 64 -17 73 -51v-10c0 -33 -55 -91 -164 -173c-46 -38 -70 -67 -70 -88c0 -29 167 -135 201 -221c15 -30 18 -59 10 -93c-9 -35 -42 -55 -75 -55c-63 0 -122 47 -179 140
c-46 64 -86 96 -120 96h-3c-20 0 -54 -36 -103 -108c-42 -50 -74 -83 -96 -99c-11 -8 -41 -24 -56 -28c-24 -8 -45 -16 -64 -16c-45 -3 -86 33 -85 67c0 28 42 81 125 159c96 79 143 132 143 158v5c0 32 -68 99 -206 201c-31 27 -47 57 -47 88v8c0 37 13 59 40 67z" />
    <glyph glyph-name="Y" unicode="Y" horiz-adv-x="624" 
d="M475 718c23 0 52 -12 83 -48c13 -21 16 -38 12 -65s-64 -110 -191 -246c-22 -26 -33 -72 -33 -139l8 -113c0 -65 -23 -104 -68 -118l-35 -7c-96 -6 -65 215 -63 238c0 66 -29 129 -88 189c-10 9 -48 50 -56 62c-29 45 -44 93 -44 141v5c0 54 19 81 57 81
c59 0 97 -29 116 -88c39 -86 67 -128 83 -128h2c38 3 57 32 68 58c45 91 80 146 106 165c17 9 31 13 43 13z" />
    <glyph glyph-name="Z" unicode="Z" horiz-adv-x="637" 
d="M271 700c236 -6 255 -17 269 -67l2 -18v-8c0 -45 -83 -152 -249 -319c-21 -24 -38 -48 -52 -70v-5c3 -19 17 -28 40 -28c96 12 150 18 161 18c103 -2 137 -30 143 -73v-13c0 -33 2 -72 -88 -88c-68 -12 -255 -19 -333 -14c-91 5 -150 24 -154 82c-10 117 156 248 289 397
c17 23 -6 53 -33 51h-5c-53 -10 -91 -37 -146 -38c-70 7 -105 40 -105 98c0 64 87 100 261 95z" />
    <glyph glyph-name="bracketleft" unicode="[" horiz-adv-x="387" 
d="M114 843h6c95 0 172 -34 229 -104c0 -2 4 -10 3 -23c0 -36 -60 -57 -179 -62h-16c9 -336 16 -543 22 -621c124 -11 185 -37 185 -77v-4c-3 -22 -35 -47 -95 -77c-51 -19 -97 -28 -139 -28c-72 0 -108 29 -108 86c-15 181 -22 366 -22 554v27c0 204 12 293 40 306
c24 16 49 23 74 23z" />
    <glyph glyph-name="backslash" unicode="\" horiz-adv-x="433" 
d="M54 691c29 0 114 -156 253 -467c51 -110 76 -174 76 -191v-10c0 -22 -18 -39 -54 -51h-3c-42 0 -106 105 -192 316c-89 190 -134 298 -134 326v7c5 46 23 70 54 70z" />
    <glyph glyph-name="bracketright" unicode="]" horiz-adv-x="387" 
d="M223 843c71 0 107 -27 107 -83c14 -178 21 -359 21 -544v-27c0 -200 -4 -279 -39 -300c-24 -16 -49 -23 -74 -23h-6c-94 0 -170 34 -227 103c-2 3 -3 10 -3 22c0 35 60 56 178 61h15c-8 330 -15 532 -21 609c-123 11 -184 36 -184 76v4c4 21 35 46 95 76
c50 18 96 26 138 26z" />
    <glyph glyph-name="underscore" unicode="_" horiz-adv-x="774" 
d="M332 160c244 0 375 -28 392 -84v-5c0 -12 -14 -26 -42 -41c-28 -20 -126 -30 -296 -30h-61c-217 0 -325 30 -325 89c0 40 76 64 229 71h103z" />
    <glyph glyph-name="a" unicode="a" horiz-adv-x="382" 
d="M171 478c76 0 139 -15 151 -80c8 -77 9 -157 14 -272c0 -84 -10 -122 -49 -126c-96 -9 -97 63 -97 63c-7 0 -22 -22 -65 -49c-14 -8 -28 -12 -42 -12c-52 0 -103 54 -108 140c-2 11 -3 21 -3 32v7c7 63 33 77 65 95c12 4 60 19 109 17c81 8 40 52 -28 50h-49
c-31 0 -66 12 -65 53v7c0 22 17 47 58 61c40 9 76 14 109 14zM106 162c4 -26 43 -34 67 -29c15 3 34 23 34 35c0 25 -7 38 -32 37h-9c-38 -2 -63 -22 -60 -43z" />
    <glyph glyph-name="b" unicode="b" horiz-adv-x="469" 
d="M32 730h6c95 -1 95 -139 95 -185c0 -10 -3 -84 0 -126c14 0 43 0 86 2c75 -1 144 -46 172 -117c15 -32 22 -63 22 -90c0 -81 -39 -142 -119 -186c-15 -9 -42 -16 -79 -20c-94 0 -155 10 -183 29c-24 14 -35 61 -35 141c0 42 -1 88 -3 139c-6 99 -4 231 -4 298
c0 61 11 98 33 113c2 1 5 2 9 2zM144 220c0 -34 7 -51 20 -51h13c39 0 61 15 67 45v4c-3 34 -17 51 -42 51h-3c-35 0 -53 -4 -53 -11c0 -14 0 -27 -2 -38z" />
    <glyph glyph-name="c" unicode="c" horiz-adv-x="405" 
d="M224 480c62 0 98 -20 111 -61v-13c0 -27 -36 -52 -108 -75c-59 -36 -89 -77 -89 -122c0 -33 17 -61 51 -81h11c5 0 31 6 80 20h11c42 0 64 -17 64 -51c0 -36 -14 -63 -40 -82c-39 -16 -80 -24 -121 -24c-100 0 -159 37 -179 110c-10 30 -15 63 -15 97
c0 102 43 187 130 256c33 18 65 26 94 26z" />
    <glyph glyph-name="d" unicode="d" horiz-adv-x="506" 
d="M389 727h2c37 0 68 -45 66 -162c-1 -63 -1 -192 -1 -192c-3 -210 -9 -326 -19 -347c-18 -15 -44 -23 -80 -23c-24 0 -40 10 -47 31c-8 15 -13 26 -14 33h-4c-45 -35 -89 -52 -132 -52c-62 0 -110 37 -143 109c-11 31 -17 63 -17 99c0 89 28 149 84 178c25 14 49 21 70 21
h78c47 0 70 7 70 20c8 12 11 104 11 141c0 42 -10 143 76 144zM136 229c0 -41 20 -62 61 -62c65 7 97 23 97 48c1 6 2 15 2 26v6c0 28 -18 47 -54 58c-1 0 -8 1 -20 2c-58 -10 -86 -29 -86 -58v-20z" />
    <glyph glyph-name="e" unicode="e" horiz-adv-x="399" 
d="M216 484c60 0 101 -38 123 -115c1 -6 2 -12 2 -18v-13c0 -72 -64 -119 -194 -141c-12 -6 -17 -14 -17 -22v-2c0 -16 11 -27 35 -33c54 -8 76 10 145 48c6 4 14 8 20 5c12 -8 18 -19 18 -33v-7c2 -64 -50 -112 -93 -132c-26 -11 -84 -23 -112 -18c-56 10 -97 26 -119 77
c-14 41 -20 111 -20 212v7c-4 76 -1 193 212 185zM127 318c0 -6 9 -10 27 -11c33 0 59 15 79 44v5c-6 9 -18 13 -37 13h-5c-29 0 -50 -12 -61 -35z" />
    <glyph glyph-name="f" unicode="f" horiz-adv-x="395" 
d="M154 460c103 0 166 -23 189 -70l2 -11v-9c0 -36 -41 -70 -122 -62c-64 7 -93 6 -89 -37v-5c2 -44 9 -66 22 -66l63 7c43 0 65 -21 65 -62v-9c0 -27 -22 -62 -71 -75c-31 -8 -45 -14 -45 -26c0 -19 4 -90 11 -212c0 -66 21 -184 -96 -176h-12c-26 6 -39 33 -39 81
c-21 376 -32 584 -32 624c0 23 0 38 4 52c3 14 10 22 19 28s25 13 48 20c21 5 48 8 83 8z" />
    <glyph glyph-name="g" unicode="g" horiz-adv-x="449" 
d="M182 484h20c81 0 131 -15 149 -44c21 -36 31 -98 31 -216v-214c0 -90 -1 -173 -56 -263c-36 -51 -71 -61 -155 -61c-54 8 -121 13 -159 106c-15 61 -1 63 26 66c28 3 56 -2 74 -13c93 -61 143 -2 119 182c-3 25 -3 38 -9 38c-4 0 -9 1 -14 2c-39 -1 -72 -2 -98 -2h-35
c-109 25 -101 133 -104 188c3 114 2 209 211 231zM119 307c0 0 -18 -102 58 -110h21c29 3 43 8 43 15c0 5 -1 37 -4 125c-7 7 -15 11 -23 11h-6c-35 0 -71 1 -89 -41z" />
    <glyph glyph-name="h" unicode="h" horiz-adv-x="477" 
d="M52 759c26 2 56 -16 68 -55c5 -14 3 -27 3 -35c0 -28 0 -102 1 -109c5 -31 13 -80 24 -117c57 23 99 18 146 13c61 -7 96 -29 106 -86c11 -66 19 -125 17 -176c-2 -120 -21 -179 -48 -179h-29c-39 0 -65 15 -68 46c0 1 -3 6 -2 13l13 131c4 44 -19 88 -64 88h-11
c-28 0 -51 -23 -51 -69v-13c0 -79 5 -122 5 -128c0 -43 -14 -73 -44 -83c-10 -4 -19 -5 -27 -5h-18c-27 0 -54 24 -64 75c-29 149 -19 298 -19 437c0 0 -10 196 11 221c17 20 35 30 51 31z" />
    <glyph glyph-name="i" unicode="i" horiz-adv-x="227" 
d="M85 690c37 -1 68 -37 64 -77v-5c-7 -51 -28 -77 -62 -77c-27 0 -49 18 -59 55c-2 6 -3 13 -3 20v10c2 46 27 76 60 74zM80 466h5c36 0 59 -18 68 -53c17 -69 25 -150 25 -243v-6c0 -85 -11 -133 -32 -146c-12 -8 -23 -13 -34 -13c-47 0 -66 29 -71 57
c-13 63 -19 127 -19 194c3 100 8 162 18 185c7 17 24 23 40 25z" />
    <glyph glyph-name="j" unicode="j" horiz-adv-x="261" 
d="M-117 692c30 0 58 -26 61 -72v-10c-2 -53 -17 -76 -59 -76h-10c-38 5 -51 31 -54 66v18c8 49 28 74 62 74zM-118 482h15c32 0 75 -45 87 -135c15 -112 22 -337 24 -383c0 -130 -37 -218 -112 -262c-59 -29 -112 -37 -157 -37h-17c-46 2 -118 1 -128 72c-2 59 32 88 66 88
h4c160 -28 183 62 183 62c6 24 10 54 11 91c0 79 2 178 -19 312c-8 48 -10 90 -10 126s14 57 42 64c2 1 6 2 11 2z" />
    <glyph glyph-name="k" unicode="k" horiz-adv-x="461" 
d="M54 701h11c22 0 37 -10 45 -28c10 -25 15 -59 15 -101c0 -20 -1 -70 6 -101c1 -16 6 -47 15 -47c80 34 133 76 176 81c89 10 68 -81 68 -81c0 -21 -186 -102 -177 -114c23 -29 58 -57 103 -105c29 -34 84 -81 88 -119v-7c1 -65 -62 -64 -62 -64c-40 0 -89 49 -121 102
c-29 39 -68 69 -68 69v-11c0 -16 5 -67 0 -124c0 -50 -32 -60 -58 -60h-3c-38 0 -63 40 -73 119c-13 224 -19 408 -19 552c1 28 33 39 54 39z" />
    <glyph glyph-name="l" unicode="l" horiz-adv-x="198" 
d="M56 803c33 0 57 -20 73 -61c13 -43 24 -215 32 -516v-75c0 -88 2 -155 -49 -155h-34c-42 0 -63 38 -63 113c-5 53 -10 191 -15 412c0 152 6 240 19 264c5 9 17 18 37 18z" />
    <glyph glyph-name="m" unicode="m" horiz-adv-x="696" 
d="M75 508c44 -5 66 -22 66 -51c-5 -41 50 48 130 39c56 0 102 -66 102 -66s61 58 155 56h7c36 -1 59 -14 75 -44c33 -45 36 -154 36 -345c0 -45 -6 -102 -56 -108h-11c-45 16 -70 72 -75 167c-2 119 -9 180 -19 183c0 5 -7 8 -20 11h-9c-32 0 -49 -25 -49 -75
c-3 -162 -13 -251 -28 -264c-9 -15 -90 -28 -115 44c0 0 -9 195 -9 205c0 50 -20 81 -59 93c-31 0 -47 -24 -47 -71c0 -13 3 -56 7 -130c0 -97 -17 -146 -51 -146h-11c-38 0 -67 32 -86 95c-6 33 -8 62 -8 86c0 36 14 256 14 266c0 32 19 51 57 55h4z" />
    <glyph glyph-name="n" unicode="n" horiz-adv-x="443" 
d="M62 528h11c43 -7 64 -21 64 -42v-7h2c64 22 106 23 138 23h11c42 0 81 -30 89 -63c26 -76 25 -141 16 -264v-86c-2 -66 -31 -99 -60 -97h-4c-17 0 -83 3 -82 126l11 128v4v9c0 43 -19 79 -57 90h-7c-30 0 -36 -36 -40 -78c5 -42 1 -86 1 -129c0 -93 -17 -139 -51 -139h-9
c-32 0 -57 22 -77 66c-12 28 -18 66 -18 115v20l11 222v44c5 39 22 58 51 58z" />
    <glyph glyph-name="o" unicode="o" horiz-adv-x="427" 
d="M182 523h20c59 0 112 -40 152 -143c10 -27 20 -136 18 -156c-9 -91 -55 -217 -185 -216c-40 1 -100 21 -148 89c-28 48 -41 95 -42 141c-3 136 37 225 123 268c26 11 47 17 62 17zM136 240c4 -62 20 -93 47 -93h15c26 0 40 29 42 86v13c-8 105 -24 136 -49 136h-14
c-25 0 -40 -32 -41 -140v-2z" />
    <glyph glyph-name="p" unicode="p" horiz-adv-x="559" 
d="M-1 432c-1 17 16 28 29 32c204 59 387 40 463 -138c10 -28 16 -55 16 -79v-3c1 -58 -15 -117 -84 -152c-73 -25 -99 -20 -181 -20c-91 1 -67 -51 -64 -119v-4c0 -12 7 -66 5 -160c0 -48 -9 -82 -38 -100c-14 -8 -27 -11 -40 -11c-46 0 -74 50 -86 152
c-4 64 -11 241 -20 529v73zM156 271c0 -35 9 -55 29 -60c19 -7 37 -11 53 -11c56 0 89 20 99 60c0 31 -18 54 -53 70c-10 3 -19 5 -27 5h-17c-49 0 -77 -16 -84 -46v-18z" />
    <glyph glyph-name="q" unicode="q" horiz-adv-x="542" 
d="M388 487c59 -4 89 -17 89 -40c10 -130 15 -262 15 -394c0 -222 -4 -306 -22 -356c-11 -24 -33 -29 -50 -30h-2c-61 6 -97 8 -91 141c1 30 2 63 2 97v2v29v35c0 41 -29 66 -44 66c-23 3 -121 0 -121 0c-45 0 -87 19 -126 68c-25 45 -38 96 -38 155c0 72 26 132 78 178
c31 24 65 36 101 36c41 0 87 -19 139 -58c16 46 41 76 70 71zM157 247c2 -47 35 -82 79 -82c28 2 60 12 71 23c12 12 13 39 13 39c0 37 -9 59 -26 68c-25 17 -49 23 -71 24c-44 0 -66 -24 -66 -72z" />
    <glyph glyph-name="r" unicode="r" horiz-adv-x="439" 
d="M67 496c37 0 61 -17 71 -51c39 26 104 36 143 36c38 -1 75 -20 88 -51c16 -27 17 -76 13 -95c-3 -22 -12 -33 -28 -33c-31 -4 -59 27 -104 33c0 0 -54 3 -88 -33c-9 -13 -13 -33 -13 -57c0 -21 4 -33 7 -101c6 -102 -18 -143 -53 -143c-50 0 -81 23 -93 108
c-3 20 -10 99 -3 330c0 33 20 52 60 57z" />
    <glyph glyph-name="s" unicode="s" horiz-adv-x="372" 
d="M139 481c69 2 114 -19 141 -57c13 -19 20 -39 20 -48v-7c0 -18 -15 -27 -44 -27h-58c-47 0 -70 -14 -70 -41v-3c11 -32 42 -30 123 -50c47 -15 71 -56 71 -124v-9c0 -48 -27 -82 -82 -101c-10 -6 -34 -11 -73 -16c-70 -2 -134 9 -154 67c-1 7 -2 12 -2 13
c0 22 17 33 53 33c0 0 60 -1 72 -2c27 0 40 6 40 20c0 29 -20 46 -62 50c-49 0 -80 12 -92 29c-15 18 -22 52 -22 101v11c0 76 30 126 90 150c10 4 27 8 49 11z" />
    <glyph glyph-name="t" unicode="t" horiz-adv-x="419" 
d="M144 682c56 0 85 -14 89 -59c6 -34 -2 -38 -3 -81c0 0 142 0 152 -43l-1 -45c0 -30 -53 -44 -159 -44h-5s-34 -288 23 -284h9c8 0 38 5 90 16c41 5 47 -14 33 -43c-16 -34 -31 -67 -94 -97c-11 -6 -33 -10 -67 -13c-65 0 -112 40 -141 121c-9 34 -13 67 1 223v38
c0 9 1 24 2 44h-2c-81 0 -121 15 -123 64l3 21c0 24 25 39 75 45l57 1c8 78 31 136 61 136z" />
    <glyph glyph-name="u" unicode="u" horiz-adv-x="462" 
d="M83 548c31 0 46 -31 46 -93c-1 -65 -2 -115 -2 -150c0 -92 17 -131 51 -139c4 -1 7 -2 11 -2c50 0 75 11 75 31c1 11 2 19 2 27l-13 216c0 69 17 103 53 103c58 0 92 -46 103 -139c3 -18 -9 -304 -9 -304v-42c-1 -46 -22 -60 -61 -59c-47 4 -69 24 -69 46v7h-2
c-63 -24 -109 -36 -137 -36h-26c-38 0 -63 17 -73 51c-17 66 -32 193 -26 382c2 62 19 92 62 99z" />
    <glyph glyph-name="v" unicode="v" horiz-adv-x="522" 
d="M406 498h6c21 0 40 -18 55 -55c1 -3 3 -11 5 -24c0 -84 -41 -195 -122 -331c-40 -53 -73 -79 -99 -79c-47 0 -91 49 -130 147c-75 153 -115 248 -121 287c0 23 22 38 66 44h4c40 0 67 -25 82 -75c50 -119 83 -178 99 -178h5c17 19 39 65 66 136c32 86 60 128 84 128z" />
    <glyph glyph-name="w" unicode="w" horiz-adv-x="644" 
d="M60 507c32 0 76 -47 101 -170c10 -51 18 -77 24 -77c7 3 23 26 47 71c18 31 36 42 48 44h7c20 0 49 -31 86 -93c2 -3 5 -4 9 -2c15 13 33 40 53 81c40 83 77 124 110 124c0 0 49 -5 46 -53v-2c0 -40 -20 -97 -62 -172c-51 -128 -95 -199 -123 -223
c-20 -17 -37 -22 -49 -22h-6c-19 4 -24 21 -27 42c-14 76 -28 115 -42 115h-6c-9 -4 -30 -43 -64 -117c-17 -30 -32 -36 -46 -36c-39 0 -87 86 -146 256c-13 49 -20 93 -20 130v5c0 47 5 91 51 99h9z" />
    <glyph glyph-name="x" unicode="x" horiz-adv-x="544" 
d="M454 476c21 -2 28 -19 31 -42c4 -30 -6 -47 -62 -84c-63 -48 -94 -82 -94 -103c0 -14 40 -57 121 -128c31 -30 42 -51 44 -66c-5 -31 -27 -40 -49 -40h-2c-54 0 -112 46 -174 139c-8 9 -17 13 -26 13c-25 0 -61 -34 -106 -103c-25 -35 -57 -43 -80 -40
c-22 3 -39 19 -44 40c-10 43 18 90 89 136c27 18 41 35 41 51c0 14 -38 52 -114 112c-23 20 -29 36 -29 47v6c3 20 16 30 46 31h5c43 0 89 -29 139 -88c16 -12 27 -18 33 -18h9c14 0 48 25 103 75c53 42 93 62 119 62z" />
    <glyph glyph-name="y" unicode="y" horiz-adv-x="448" 
d="M72 469c55 -1 66 -22 69 -64v-45c0 -21 -1 -42 -2 -64c-1 -49 11 -86 33 -96c0 0 45 -13 47 14l-2 31l-6 134v3c0 40 9 65 27 76c7 4 12 6 16 6h9c52 0 89 -18 89 -101c1 -21 72 -376 9 -554c-32 -67 -92 -97 -182 -93h-20c-68 0 -130 56 -131 116v6c0 24 19 51 48 37
c138 -68 205 -27 164 208c-21 -6 -153 -44 -200 25c-19 35 -40 119 -40 267v23c13 48 37 72 72 71z" />
    <glyph glyph-name="z" unicode="z" horiz-adv-x="437" 
d="M182 467c103 0 168 -10 176 -50v-11c0 -31 -53 -101 -160 -210c-21 -22 -35 -39 -42 -53c0 -12 10 -20 30 -22c49 -1 61 16 104 13c69 -6 97 -26 97 -53v-4c0 -25 -14 -57 -66 -62c-42 -4 -94 -6 -154 -6h-86c-72 1 -81 25 -80 57c1 26 27 70 82 132c24 31 61 75 110 130
c8 13 6 42 -24 36c-53 -18 -87 -27 -102 -27c-46 2 -66 28 -66 62v4c0 43 61 64 181 64z" />
    <glyph glyph-name="quoteleft" unicode="&#x2018;" horiz-adv-x="204" 
d="M73 505c-42 0 -66 43 -73 130v6c4 72 29 117 75 135h9c11 0 18 -7 20 -22c-18 -53 -27 -81 -27 -86v-14c0 -11 12 -21 35 -29c21 -19 31 -36 31 -51v-10c0 -26 -21 -45 -61 -59h-9z" />
    <glyph glyph-name="quoteright" unicode="&#x2019;" horiz-adv-x="182" 
d="M68 792c41 0 65 -42 71 -127v-6c-3 -71 -28 -114 -73 -132h-8c-11 0 -18 8 -20 22c17 51 26 79 26 84v14c0 10 -12 20 -34 28c-20 18 -30 35 -30 49v10c0 25 20 45 60 58h8z" />
    <glyph glyph-name="quotesinglbase" unicode="&#x201a;" horiz-adv-x="208" 
d="M77 162c47 0 74 -48 81 -145v-7c-4 -80 -32 -130 -83 -149h-9c-13 0 -20 8 -23 25c20 58 29 89 29 95v16c0 12 -12 22 -38 31c-23 22 -34 41 -34 57v11c0 29 23 51 68 66h9z" />
    <glyph glyph-name="quotedblleft" unicode="&#x201c;" 
d="M76 483c-40 0 -66 39 -76 119v22c4 68 29 112 74 132h10c12 0 18 -8 21 -23c-18 -51 -27 -82 -27 -92v-8c0 -10 12 -20 35 -29c20 -16 31 -35 31 -56v-6c0 -27 -23 -47 -68 -59zM185 542c-24 0 -45 24 -62 72c-5 19 -8 37 -8 56v16c0 44 19 79 57 105l13 2
c9 0 16 -6 20 -19c-19 -46 -28 -72 -28 -78v-10c0 -14 15 -23 47 -29c27 -10 31 -28 31 -43c0 -23 -16 -46 -48 -68c-5 -2 -12 -4 -22 -4z" />
    <glyph glyph-name="quotedblright" unicode="&#x201d;" 
d="M179 804c40 0 65 -40 76 -119v-23c-4 -67 -29 -111 -74 -131h-11c-11 0 -18 7 -20 22c18 52 27 83 27 93v8c0 10 -12 20 -35 29c-21 16 -31 35 -31 55v6c0 28 22 48 68 60zM70 744c24 0 44 -24 61 -72c6 -18 9 -37 9 -55v-16c0 -45 -20 -80 -58 -105l-12 -2
c-9 0 -16 6 -21 18c19 46 29 72 29 78v11c0 13 -16 23 -47 28c-28 11 -31 29 -31 43c0 24 16 46 47 68c6 3 13 4 23 4z" />
    <glyph glyph-name="quotedblbase" unicode="&#x201e;" 
d="M70 86c24 0 44 -24 61 -72c6 -18 9 -37 9 -55v-16c0 -45 -20 -80 -58 -105l-12 -2c-9 0 -16 6 -21 18c19 46 29 72 29 78v11c0 13 -16 23 -47 28c-28 11 -31 29 -31 43c0 24 16 46 47 68c6 3 13 4 23 4zM179 146c40 0 65 -40 76 -119v-23c-4 -67 -29 -111 -74 -131h-11
c-11 0 -18 7 -20 22c18 52 27 83 27 93v8c0 10 -12 20 -35 29c-21 16 -31 35 -31 55v6c0 28 22 48 68 60z" />
    <glyph glyph-name="trademark" unicode="&#x2122;" horiz-adv-x="630" 
d="M92 728h39c55 0 99 -12 131 -37c10 21 26 31 46 31c28 0 52 -20 73 -61c20 -25 36 -37 49 -37c14 0 33 25 55 73c20 18 36 27 49 28c26 0 41 -38 46 -113v-110c-7 -47 -22 -70 -46 -70h-9c-10 0 -18 18 -25 55v88c0 5 -2 7 -6 7c-6 0 -23 -21 -52 -61
c-6 -5 -14 -9 -24 -13c-17 6 -32 27 -46 64c-11 13 -18 19 -21 19c-2 -11 -3 -20 -3 -25c0 -25 3 -57 9 -94c0 -22 -15 -36 -46 -43c-36 12 -55 74 -55 186v28l3 15c-9 -8 -23 -13 -42 -15c-11 2 -21 3 -28 3h-9c-31 0 -46 -20 -46 -58l15 -125c0 -25 -18 -37 -54 -37h-3
c-15 9 -22 27 -22 55v18c4 66 6 101 6 107v9c0 14 -5 21 -15 21l-37 -3c-16 9 -24 20 -24 34v21c18 27 49 40 92 40z" />
    <glyph glyph-name="fi" unicode="&#xfb01;" horiz-adv-x="50" 
 />
    <glyph glyph-name="fl" unicode="&#xfb02;" horiz-adv-x="50" 
 />
    </font>
</defs>
</svg>
