<?xml version="1.0" standalone="no"?>
<!DOCTYPE svg PUBLIC "-//W3C//DTD SVG 1.1//EN" "http://www.w3.org/Graphics/SVG/1.1/DTD/svg11.dtd" >
<svg>
<metadata>
Created by FontForge 20090622 at Sun Nov 11 21:02:01 2018
 By ffonts
MTF Cool Kid &#194;&#169; Miss Tiina. 2009.
</metadata>
<defs>
<font id="MTFCoolKid" horiz-adv-x="726" >
  <font-face 
    font-family="MTF Cool Kid"
    font-weight="400"
    font-stretch="normal"
    units-per-em="2048"
    panose-1="0 0 0 0 0 0 0 0 0 0"
    ascent="1451"
    descent="-597"
    x-height="420"
    cap-height="1435"
    bbox="56.4074 -494 1341 1547"
    underline-thickness="102"
    underline-position="-103"
    unicode-range="U+000D-U+FB02"
  />
<missing-glyph horiz-adv-x="1467" 
 />
    <glyph glyph-name=".notdef" horiz-adv-x="1467" 
 />
    <glyph glyph-name="NULL" horiz-adv-x="0" 
 />
    <glyph glyph-name="NULL" horiz-adv-x="0" 
 />
    <glyph glyph-name="nonmarkingreturn" unicode="&#xd;" horiz-adv-x="364" 
 />
    <glyph glyph-name="space" unicode=" " horiz-adv-x="364" 
 />
    <glyph glyph-name="exclam" unicode="!" horiz-adv-x="266" 
d="M117 152h6q86 0 86 -86q-14 -66 -54 -66h-20q-55 0 -78 83v9q12 60 60 60zM155 1455q54 -8 54 -49v-217q0 -48 -3.5 -122.5l-8 -176.5t-8 -231.5t-3.5 -286.5v-28q0 -22 3 -101q-14 -40 -49 -40h-8q-32 0 -52 38q-2 42 -3 69.5t0 41.5q10 351 16.5 541.5t6.5 220.5v281
q0 39 29 54q21 6 26 6z" />
    <glyph glyph-name="quotedbl" unicode="&#x22;" horiz-adv-x="309" 
d="M380 1283h2q33 0 72 -48q34 -27 34 -78v-6q0 -66 -63 -106h-20q-38 0 -48 55v8q0 11 8 23q-71 9 -71 61v11q0 58 86 80zM143 1283h3q31 0 72 -48q34 -27 34 -78v-6q0 -66 -63 -106h-20q-37 0 -49 55v8q0 9 9 23q-72 9 -72 61v11q0 57 86 80z" />
    <glyph glyph-name="numbersign" unicode="#" horiz-adv-x="957" 
 />
    <glyph glyph-name="dollar" unicode="$" horiz-adv-x="670" 
d="M395 705h-3q-7 -174 -10.5 -308t-3.5 -231v-23h3q112 76 112 235q0 148 -98 327zM180 1103q0 -98 109 -146v3q0 80 1.5 143t1.5 111v109q-39 0 -67 -44t-42 -133q-3 -18 -3 -28.5v-14.5zM341 1547h11q49 -7 49 -49v-66h3q83 0 172 -80q37 -44 37 -89v-14q-6 -43 -43 -43
h-17q-42 0 -52 69q-42 45 -100 45v-8q0 -151 -3 -436q51 -53 90 -115t65 -134q23 -63 33 -120t10 -106v-46q0 -237 -206 -329q-6 -3 -9 -3v-6q0 -60 -57 -60q-52 9 -52 49h-6q-152 0 -197 131q-7 20 -9.5 37.5t-2.5 34.5v32q0 79 11 121.5t24 49.5l20 6h14q54 -10 54 -51
q-7 -49 -10.5 -82.5t-3.5 -52.5v-6q0 -93 83 -111h20v48q0 79 4.5 246t12.5 422q-51 27 -87.5 50.5t-58.5 43.5q-66 77 -66 166v26q0 184 115 287q35 15 60.5 23t42.5 8v63q8 49 49 49z" />
    <glyph glyph-name="percent" unicode="%" horiz-adv-x="1153" 
 />
    <glyph glyph-name="ampersand" unicode="&#x26;" horiz-adv-x="607" 
d="M198 679q3 -46 4.5 -149.5t6.5 -268.5q2 -78 16.5 -116.5t35.5 -38.5v3q0 90 -6 255t-9 409q-45 -15 -45 -74q-5 0 -3 -20zM169 1237v-20q0 -263 34 -289q15 -11 25 -17t15 -6v3q0 7 -4 108.5t-13 301.5h-3q-54 0 -54 -81zM266 1518h9q54 0 54 -77v-17q98 0 98 -49v-14
q-7 -49 -43 -49h-15l-34 3q6 -115 10.5 -219t6.5 -199h63q35 0 43 -63q0 -46 -68 -46h-35q3 -253 6.5 -422t7.5 -260q23 0 55 4.5t74 15.5q43 0 52 -60q0 -52 -100 -63q-62 -6 -72 -6v-23q0 -39 -49 -46q-60 7 -60 58q0 14 -5 14h-3q-111 0 -138 112q-26 60 -26 226v129
q0 117 -2.5 178t-2.5 68q0 64 48 123v3q-57 62 -63 121q-5 0 -11 64.5t-9 195.5q-2 78 25 126.5t81 68.5q37 9 55 9h3v28l-3 17q7 49 48 49z" />
    <glyph glyph-name="quotesingle" unicode="'" horiz-adv-x="309" 
d="M143 1283h3q31 0 72 -48q34 -27 34 -78v-6q0 -66 -63 -106h-20q-37 0 -49 55v8q0 9 9 23q-72 9 -72 61v11q0 57 86 80z" />
    <glyph glyph-name="parenleft" unicode="(" horiz-adv-x="543" 
 />
    <glyph glyph-name="parenright" unicode=")" horiz-adv-x="543" 
 />
    <glyph glyph-name="asterisk" unicode="*" horiz-adv-x="733" 
 />
    <glyph glyph-name="plus" unicode="+" 
 />
    <glyph glyph-name="comma" unicode="," horiz-adv-x="309" 
d="M143 159h3q32 0 72 -49q34 -27 34 -77v-6q0 -66 -63 -106h-20q-37 0 -49 55v8q0 9 9 23q-72 9 -72 60v12q0 57 86 80z" />
    <glyph glyph-name="hyphen" unicode="-" horiz-adv-x="480" 
 />
    <glyph glyph-name="period" unicode="." horiz-adv-x="266" 
d="M123 155q86 0 86 -89q0 -57 -69 -66q-51 0 -80 74q-3 4 -3 21q0 48 66 60z" />
    <glyph glyph-name="slash" unicode="/" horiz-adv-x="467" 
d="M352 1346q58 -8 58 -51v-6l-120 -685t-98 -498q-12 -54 -30 -80t-39 -26h-23q-36 0 -43 46q20 57 41.5 148t44.5 218l116.5 644t49.5 267q15 23 43 23z" />
    <glyph glyph-name="zero" unicode="0" horiz-adv-x="687" 
d="M169 629v-35q0 -177 89 -266q32 -23 54 -23h9q38 0 77.5 40.5t74.5 125.5q29 70 40 134.5t11 123.5q0 119 -69 158q-20 11 -51 11h-14q-89 0 -195 -135q-26 -64 -26 -134zM390 1007h14q146 0 203 -146q23 -61 23 -138v-8q0 -263 -166 -459q-74 -63 -143 -63
q-160 0 -235 224q-16 48 -22.5 93t-6.5 87q0 285 252 395q45 15 81 15z" />
    <glyph glyph-name="one" unicode="1" horiz-adv-x="392" 
d="M169 914h11q122 0 149 -224q4 -31 5 -58.5t1 -52.5v-52q0 -37 -6.5 -150t-19.5 -305q0 -7 3 -32q0 -33 -48 -40h-3q-28 0 -44 16.5t-16 49.5v43q0 87 4.5 158.5t9.5 127.5t9.5 96t4.5 65v46q0 89 -15.5 139t-41.5 61h-9q-4 0 -57 -14h-11q-29 0 -38 46v14q0 42 60 57
q31 9 52 9z" />
    <glyph glyph-name="two" unicode="2" horiz-adv-x="771" 
d="M315 954h3q110 0 152 -135q3 -17 3 -31q0 -205 -187 -659q0 -4 -5 -17h23q208 0 363 48q46 -12 46 -45v-18q0 -25 -30 -41t-90 -27q-66 -13 -163.5 -21t-228.5 -8q-52 13 -52 49v8q16 51 54 158l95 275q35 105 50.5 176.5t15.5 109.5v17q0 35 -43 52q-66 0 -129 -140
q-9 -21 -16.5 -53.5t-12.5 -78.5q-23 -29 -43 -29h-14q-43 0 -49 55q0 138 118 283q73 72 140 72z" />
    <glyph glyph-name="three" unicode="3" horiz-adv-x="550" 
d="M275 768q112 0 172 -146q8 -20 11 -40.5t3 -40.5v-20q0 -53 -40 -100v-3q72 -77 72 -183v-3q0 -158 -164 -223q-23 -9 -48 -9h-15q-62 0 -111 51.5t-81 154.5q-10 30 -13.5 59.5t-3.5 58.5q12 43 43 43h23q43 -7 43 -55q32 -203 118 -203q100 27 100 132q0 96 -89 140
q-73 0 -83 49v23q0 34 46 43h3q11 0 24 -2l27 -4q40 7 40 37v17q-18 109 -74 109q-37 0 -86 -57q-11 -9 -26 -9h-6q-36 0 -48 55v8q0 50 114 109q27 9 49 9z" />
    <glyph glyph-name="four" unicode="4" horiz-adv-x="475" 
d="M349 762h23q37 0 46 -52q-12 -41 -23.5 -109.5t-22.5 -165.5q31 0 43 -45v-18q0 -39 -57 -45q-7 -77 -19 -139.5t-30 -110.5q-14 -39 -30.5 -58t-32.5 -19h-8q-55 12 -55 46v17q60 136 60 212q3 0 9 63q-38 6 -78 10.5t-82 6.5q-35 21 -35 43v298q0 33 52 43q57 0 57 -63
v-218l98 -11q33 312 74 312q6 3 11 3z" />
    <glyph glyph-name="five" unicode="5" horiz-adv-x="687" 
d="M235 748h8q293 -44 293 -72q8 0 8 -26v-11q-9 -49 -46 -49h-2q-51 11 -100.5 20.5t-97.5 16.5q-6 0 -6 -3q0 -28 -2.5 -57t-8.5 -60q349 -99 349 -264q0 -142 -163 -229q-45 -14 -83 -14q-168 0 -304 258q-9 17 -14.5 31.5t-8.5 25.5v12q8 40 55 40h3q47 0 71 -83
q100 -175 206 -175q72 0 121 94l3.5 12t2.5 8q1 4 2 6q0 35 -39.5 70.5t-120.5 67.5q-39 15 -83.5 27.5l-94.5 26.5q-23 23 -23 43q14 57 20 112.5t6 110.5v18q0 31 49 43z" />
    <glyph glyph-name="six" unicode="6" horiz-adv-x="604" 
d="M169 312q0 -75 60 -163q43 -37 80 -37q91 0 129 111l3 29q0 38 -26 80q-35 32 -83 32h-14q-37 0 -74.5 -14t-74.5 -38zM378 931h3q38 0 49 -60q0 -43 -89 -63q-101 -56 -149 -221q-8 -25 -14 -62.5t-12 -86.5q90 32 146 32h37q142 0 187 -132q6 -17 8.5 -37t2.5 -46
q0 -188 -186 -249q-35 -6 -55 -6q-75 0 -131.5 48t-91.5 147q-14 38 -20 80t-6 89v28q0 143 38.5 257.5t119.5 198.5q41 42 82.5 62.5t80.5 20.5z" />
    <glyph glyph-name="seven" unicode="7" horiz-adv-x="553" 
d="M309 828h15q116 0 163 -138q9 -45 9 -74v-14q0 -167 -124 -536q-8 -66 -54 -66h-3q-54 9 -54 49v5q0 23 88 315q20 63 29 121t9 112v22q0 74 -52 95h-31q-49 0 -184 -63h-5q-58 14 -58 51v15q0 46 198 100q22 6 54 6z" />
    <glyph glyph-name="eight" unicode="8" horiz-adv-x="633" 
d="M266 201v-3q0 -74 75 -86h6q78 0 114 71q6 12 6 32q0 70 -86 97q-21 3 -34 3q-51 0 -78 -89q-3 -11 -3 -25zM166 536q0 -79 100 -112q16 -3 26 -3h17q83 0 138 112q2 10 4 18.5t2 15.5q0 71 -118 83h-69q-58 0 -94 -83q-6 -12 -6 -31zM269 759h37q179 0 241 -120
q12 -32 12 -58v-31q0 -76 -78 -163q95 -74 95 -158v-26q0 -101 -123 -174q-26 -15 -53 -22t-56 -7q-119 0 -175 137q-9 39 -9 69q0 56 35 126q-138 64 -138 206q0 132 149 210q44 11 63 11z" />
    <glyph glyph-name="nine" unicode="9" horiz-adv-x="670" 
d="M172 874v-26q0 -121 80 -143q6 -2 11.5 -2.5t11.5 -0.5q91 0 149 97q7 18 11 46q0 56 -66 112q-28 17 -63 17h-14q-120 -15 -120 -100zM304 1083q72 0 140 -46q24 29 49 29h17q41 -13 40 -41q-2 -47 -4 -79t-2 -49q0 -149 60 -662q9 -83 9 -172v-14q0 -43 -57 -49
q-46 0 -52 60q0 138 -54 599q-92 -66 -169 -66h-20q-117 0 -189 160q-15 58 -15 101q0 173 195 226q34 3 52 3z" />
    <glyph glyph-name="colon" unicode=":" horiz-adv-x="266" 
d="M149 538q60 -11 60 -57v-20q0 -51 -46 -69q-2 -2 -37 -5q-69 9 -69 63v8q0 48 72 78q2 2 20 2zM132 1011l17 3q60 -14 60 -54v-23q0 -75 -86 -75q-59 0 -66 69q0 53 75 80z" />
    <glyph glyph-name="semicolon" unicode=";" horiz-adv-x="312" 
d="M137 546h15q26 0 63 -43q40 -34 40 -83q0 -69 -60 -109q-4 -3 -12 -3h-11q-36 0 -49 51v15q3 12 3 20q-69 9 -69 69q0 54 80 83zM146 1021h3q54 0 63 -69q0 -83 -83 -83q-72 0 -72 69q0 59 89 83z" />
    <glyph glyph-name="less" unicode="&#x3c;" 
 />
    <glyph glyph-name="equal" unicode="=" 
 />
    <glyph glyph-name="greater" unicode="&#x3e;" 
 />
    <glyph glyph-name="question" unicode="?" horiz-adv-x="791" 
d="M266 152h9q83 0 83 -75v-17q-12 -60 -57 -60h-20q-72 28 -72 80v20q0 37 57 52zM407 1458q238 0 303 -206q12 -38 17.5 -72t5.5 -66v-97q0 -282 -195 -364q-23 -6 -65 -12t-104 -14q-26 -20 -25 -43q1 -19 2 -33.5t1 -23.5v-275q-11 -49 -46 -49h-12q-51 7 -51 52v329
q0 122 103 144q66 7 111.5 16.5t68.5 23.5q55 32 82 108.5t27 194.5q0 216 -134 264q-23 8 -50 11t-59 3q-150 0 -215 -203q-6 -47 -6 -55q21 -146 120 -146h9q77 0 109 66v12q0 23 -17 34h-6q-6 0 -43 -26l-14 -3q-58 12 -58 58q0 60 118 83h17q89 0 112 -144v-11
q0 -51 -34.5 -93t-106.5 -73q-16 -7 -35 -9.5t-39 -2.5q-160 0 -229 169q-5 19 -8.5 39.5t-3.5 43.5q-2 90 36 167t113 143q91 60 201 60z" />
    <glyph glyph-name="at" unicode="@" horiz-adv-x="822" 
d="M327 716v-29q0 -114 85 -114q63 0 75 83q-9 126 -14 126q-23 11 -55 11h-11q-80 0 -80 -77zM473 1435q215 1 252 -137q11 -42 12 -107.5t8 -156.5q6 -82 13 -153.5t7 -135.5q0 -112 -22 -178t-67 -92q-23 -13 -43 -20.5t-37 -7.5h-23q-38 0 -66 43q-43 -23 -83 -23h-26
q-78 0 -134 71q-49 76 -49 164v23q0 136 137 172l34 3.5t24 1.5q103 0 169 -66q10 -30 15.5 -68.5t4.5 -85.5q-1 -49 -2 -76.5t-1 -35.5q3 -6 3 -11h3q54 0 54 166q0 42 -7 147.5l-19 278.5q-5 76 -15 114t-28 38q0 8 -56 15t-170 11q-48 2 -90.5 -5.5t-81.5 -20.5
q-11 -37 -18 -91.5t-5 -128.5q11 -439 21.5 -658t15.5 -219q12 -78 26 -83q0 -6 71 -12.5t216 -4.5q63 1 94.5 8t31.5 15q4 14 6.5 34t4.5 49l-11 195q-2 21 13 33.5t44 14.5q27 1 39.5 -20.5t14.5 -65.5q2 -59 5.5 -98t3.5 -59v-14q0 -130 -66 -166q-57 -32 -258 -32
q-118 0 -184.5 6t-84.5 17q-42 24 -61.5 113.5t-24.5 247.5q-9 322 -17.5 498t-8.5 206v49q0 189 49 235q57 54 126 54q0 8 241 9z" />
    <glyph glyph-name="A" unicode="A" horiz-adv-x="1020" 
d="M441 1103h-3q-21 -94 -48.5 -194.5t-60.5 -209.5h3q73 0 130 3t99 3h12q-39 97 -71.5 196t-60.5 202zM438 1406h3q49 0 49 -63q54 -219 106 -380.5t106 -269.5q60 -9 60 -51q0 -21 -17 -40q38 -79 75 -185t91 -234q24 -57 37.5 -86t13.5 -31v-17q0 -37 -54 -49h-9
q-18 0 -37.5 31.5t-42.5 94.5q-11 28 -42.5 114t-89.5 230q-25 63 -42.5 92t-20.5 31l-91 6q-8 -2 -16 -2.5t-16 -0.5q-71 0 -206 -9l-92 -369.5t-45 -174.5q-19 -20 -41 -20h-8q-52 9 -52 49v2q0 5 27 134.5t96 381.5q65 233 104.5 356.5t39.5 144.5q7 26 22.5 99l40.5 193
q14 23 51 23z" />
    <glyph glyph-name="B" unicode="B" horiz-adv-x="716" 
d="M209 616l-3 -6l-3.5 -259.5t-1.5 -192.5v-52q142 0 257 92q75 72 75 169v8q0 180 -149 212q-63 14 -106 21t-69 8zM221 1300v-11q0 -232 -9 -518h3q235 53 289 100q46 38 46 126q0 150 -152 263q-80 40 -177 40zM158 1444h14q28 0 49 -35q157 0 262 -74.5t159 -226.5
q10 -29 13.5 -53t3.5 -44v-31q0 -196 -261 -278q0 -2 17.5 -7.5t51.5 -18.5q50 -18 84.5 -50t55.5 -76q18 -38 26.5 -74t8.5 -69v-35q0 -94 -44.5 -170.5t-136.5 -132.5q-59 -36 -122.5 -52.5t-132.5 -16.5h-34q-112 0 -112 37q-3 6 -3 15q0 28 35 57v51q0 120 2 248t6 268
q-8 14 -8 37q0 2 2.5 10t8.5 22q9 348 9 547v106q7 46 46 46z" />
    <glyph glyph-name="C" unicode="C" horiz-adv-x="1025" 
d="M917 1435q42 0 51 -66q0 -43 -100 -51q-187 -40 -307.5 -77t-176.5 -75q-111 -76 -164.5 -185t-53.5 -251v-8q0 -222 76.5 -363t232.5 -199q74 -28 149 -40.5t152 -10.5q57 1 88.5 3.5t37.5 2.5q35 -14 35 -52q0 -58 -95 -60q-23 -1 -41 -2t-30 -1q-255 0 -421 97.5
t-241 297.5q-29 76 -40.5 157t-11.5 167q0 469 453 624q63 22 164.5 45.5t242.5 46.5z" />
    <glyph glyph-name="D" unicode="D" horiz-adv-x="768" 
d="M258 1300l-83 9q7 -76 16.5 -244t26.5 -432l15 -213t16 -291q93 33 155 83.5t100 116.5q47 82 72.5 168t25.5 182v46q0 137 -32.5 251.5t-99.5 206.5q-60 82 -212 117zM112 1421q201 0 326.5 -72t185.5 -215q40 -97 63 -195t23 -200v-54q0 -422 -312 -613
q-156 -72 -252 -72q-39 0 -46 49v5q0 37 40 55l-3 14q0 64 -13 264.5t-32 537.5l-11.5 198t-23.5 240q8 58 55 58z" />
    <glyph glyph-name="E" unicode="E" horiz-adv-x="874" 
d="M444 1426q186 -2 277.5 -16t91.5 -35l3 -20v-6q-12 -57 -57 -57q-71 13 -146.5 19.5t-159.5 6.5q-52 0 -164 -3q-5 -3 -8 -3q4 -58 6 -100.5t2 -68.5q0 -28 -1.5 -68.5t-1.5 -94.5q1 -130 4 -194t5 -64q78 0 196.5 7.5l279.5 18.5q17 2 28.5 -12t16.5 -40
q0 -30 -20.5 -44t-62.5 -16q-130 -8 -240 -15.5t-201 -10.5l-3 -26l-8 -415q3 -21 3 -52q217 15 438 15q40 -12 40 -49v-9q0 -45 -55 -51h-2q-236 0 -353 -7.5t-117 -15.5l-12 3q-51 -3 -68 -3q-24 0 -35 40v14q9 55 55 55v120q0 48 -2 100.5t-1 111.5q1 69 4.5 113.5
t3.5 64.5q-50 0 -57 63q6 48 49 48h6l5 -2v2q0 97 -2.5 150.5t-2.5 64.5q2 85 2 144.5v96.5q0 16 -1.5 45.5t-6.5 74.5h-3q-19 0 -74 -3q-38 13 -38 46v12q0 47 55 51q84 7 166.5 11.5t165.5 2.5z" />
    <glyph glyph-name="F" unicode="F" horiz-adv-x="725" 
d="M289 1458h46q177 0 309 -43q20 -19 23 -43q-8 -60 -51 -60q-139 37 -272 37h-86q-8 -49 -12 -98t-3 -100q2 -131 4 -210.5t2 -109.5v-32l106 -6q56 -3 107 2l99 10q43 0 49 -55q0 -54 -83 -57q-29 -1 -68 -3.5t-90 -2.5h-34q-31 0 -92 3q-9 -664 -25 -664
q-22 -23 -52 -26q-24 5 -37 14t-12 23q3 91 7 244.5t8 374.5q2 0 5 54q-25 12 -25 35v11q0 33 31 49v54q0 56 -2.5 135t-3.5 183q0 63 3.5 104t8.5 62q-3 0 -3 3l-14 -3h-35q-33 0 -40 46v12q0 52 95 54q38 1 72 2t65 1z" />
    <glyph glyph-name="G" unicode="G" horiz-adv-x="733" 
d="M401 1412h40q101 0 215 -49q20 -17 20 -40v-11q-8 -49 -46 -49h-3q-141 46 -217 46q-176 0 -215 -243q-12 -72 -19 -170t-7 -223v-212q0 -270 115 -324q32 -15 58.5 -21.5t47.5 -6.5h11q111 0 140 152q6 11 10 95.5t5 242.5q1 108 -60 137q-42 14 -98 14q-26 0 -26 -68
q-23 -32 -51 -32q-55 7 -55 49v3q0 125 83 149q15 2 35 5t46 3q116 2 174 -64.5t58 -198.5v-43q0 -93 3 -204q1 -90 -55 -229q-81 -120 -220 -120q-76 0 -137.5 31t-112.5 92q-41 50 -64 167.5t-19 308.5q6 272 19 408t24 136q12 79 78 169q92 100 223 100z" />
    <glyph glyph-name="H" unicode="H" horiz-adv-x="1020" 
d="M321 1421q60 -12 60 -55q-23 -149 -41.5 -295t-33.5 -292q35 0 88.5 1t126.5 2q106 1 183.5 -5.5t129.5 -17.5q10 121 15 223.5t5 189.5v25q0 40 -2 85.5t-4 98.5q-1 26 46 37h11q53 0 55 -95q1 -24 1.5 -54.5t0.5 -68.5v-31q0 -98 -15.5 -319l-41.5 -566
q-5 -67 -5.5 -128.5t-0.5 -118.5q-15 -37 -48 -37h-9q-45 0 -51 54v3q0 106 7.5 252t23.5 335q3 0 3 3q-47 14 -109 20.5t-143 5.5q-118 -1 -186.5 -2t-88.5 -1l-3 -5q-11 -145 -15.5 -270.5t-4.5 -234.5v-111q-7 -49 -49 -49h-14q-36 0 -46 49v117q0 130 6 256t17 251
q-123 0 -123 34q-3 0 -6 6.5t-3 19.5v12q0 29 40 43q64 -6 101 -6v3q17 174 37 325t43 285q14 26 43 26z" />
    <glyph glyph-name="I" unicode="I" horiz-adv-x="596" 
d="M289 1435q24 0 52 -31h3q29 0 68 1.5l89 3.5q29 1 37 -51q0 -59 -85 -60l-52.5 -2t-51.5 -1v-3q0 -35 3 -85t3 -116v-34l-11 -676v-17q0 -76 2 -139t6 -113h6q22 0 51 0.5t66 2.5q35 -15 35 -52q0 -60 -95 -60h-226q-37 0 -97 -3q-35 17 -35 40v23q0 37 52 46
q14 2 28.5 2.5t31.5 0.5h74q-4 45 -6 108t-2 144v20l11 676v28q0 67 -1.5 118t-3.5 86q-9 0 -124 -6q-37 12 -37 52q0 30 23.5 44t71.5 16q25 1 40.5 2t22.5 1q7 34 51 34z" />
    <glyph glyph-name="J" unicode="J" horiz-adv-x="1140" 
d="M693 1418q49 -11 49 -40v-15h3q46 0 300 3q38 -13 38 -48v-15q0 -34 -49 -46q-112 -2 -184.5 -2h-107.5v-9q0 -11 4 -48t9 -101.5t9 -156t4 -210.5v-28q0 -103 -14.5 -215.5t-43.5 -237.5q-93 -249 -389 -249q-200 0 -261 149q-3 12 -3 20q11 40 49 40h17q30 0 60 -63
q49 -40 123 -40h12q215 0 281 160q11 29 24 105.5t27 204.5q3 27 6 57t3 63q0 15 -4 56t-9 107.5t-9 159t-4 210.5v23q-225 -3 -295 -3q-43 9 -43 43v20q0 38 57 46q29 0 98.5 0.5t182.5 2.5q0 48 60 57z" />
    <glyph glyph-name="K" unicode="K" horiz-adv-x="1014" 
d="M149 1421h9q23 0 36.5 -13.5t14.5 -41.5l9 -544q3 0 398 395q19 6 143 141l20 5h17q52 -7 52 -48v-3q0 -18 -53 -70.5l-153 -150.5l-276 -275.5t-94 -93.5q60 -45 99 -78.5t59 -56.5q19 -21 94.5 -88.5l211.5 -180.5q56 -47 108.5 -81t100.5 -59q12 -15 12 -32
q-15 -57 -52 -57h-8q-36 0 -131.5 70t-252.5 208l-111 98l-104 96q-4 0 -77 61q0 -148 -6.5 -294t-19.5 -294q-21 -34 -58 -34q-50 6 -48 40q10 144 15 268t5 233v6q0 24 3 72q-55 7 -55 54v9q0 26 52 57v3q0 131 -9 641q15 38 49 38z" />
    <glyph glyph-name="L" unicode="L" horiz-adv-x="725" 
d="M158 1381q48 -12 48 -43v-69q0 -53 -9 -211.5t-28 -427.5q-2 -6 -3.5 -44.5t-2.5 -110.5q-1 -90 8.5 -180.5t26.5 -182.5q75 -6 97 -6q14 0 95.5 4.5l231.5 12.5q37 1 45 -49v-11q0 -49 -88 -52l-188 -8.5t-110 -2.5q-195 4 -195 32q-9 10 -9 25v6q0 10 12 37
q-16 85 -24 176.5t-8 193.5q0 67 9 240.5t29 452.5q2 5 2 31.5v77.5v48q0 61 61 61z" />
    <glyph glyph-name="M" unicode="M" horiz-adv-x="1051" 
d="M126 1401h23q25 0 46 -46q17 -12 17 -29v-28q0 -20 65 -159l196 -403q2 -17 8 -17q48 92 139.5 237.5t230.5 346.5v52q7 46 46 46h14q42 0 51 -58q15 -12 15 -34q-8 -29 -17 -37q2 -18 2 -28.5v-14.5l32 -1183q1 -37 -52 -46h-5q-55 0 -55 80q0 61 -6.5 318.5
t-19.5 712.5q-265 -378 -332 -558q-15 -17 -34 -20q-83 0 -83 66q-41 117 -198 432h-3v-8q0 -169 -6.5 -306.5t-14 -244t-13.5 -182.5t-6 -121q3 -17 3 -23q-12 -49 -46 -49h-14q-52 0 -52 72q0 42 7 123.5t16 203t16 283.5t7 364v123q-23 81 -23 89q13 46 46 46z" />
    <glyph glyph-name="N" unicode="N" horiz-adv-x="1045" 
d="M146 1409h6q54 0 54 -80q0 -8 63 -86q36 -61 90 -168l131 -262q27 -55 89.5 -146.5l156.5 -222.5q28 -39 53.5 -83.5t49.5 -94.5h3l18.5 355.5t4.5 214.5l-14 367q-3 88 6 131.5t25 43.5q19 14 40 14q37 0 46 -37q-5 -62 -7 -100t-1 -52q6 -161 10.5 -251t3.5 -113
l-26 -724q0 -4 37 -41l3 -14v-11q0 -36 -51 -49h-9q-19 0 -46 20q-27 0 -51 60q-38 53 -77 118.5t-81 145.5q-109 147 -184 262.5t-117 201.5q-2 0 -154 309h-3v-6q0 -78 3 -144.5t7 -122.5t6 -100.5t1 -78.5l-17 -436v-60q0 -30 6 -132q-15 -31 -41 -31h-14q-60 0 -60 114
v98q0 21 5 125t12 293q2 54 -5 213t-21 428q-40 34 -40 52v12q0 31 55 54q7 6 15 10t19 4z" />
    <glyph glyph-name="O" unicode="O" horiz-adv-x="1349" 
d="M166 733v-43q0 -329 246 -507q127 -74 267 -74q270 0 432 223q69 120 69 244v26q0 157 -53 289.5t-165 237.5q-53 50 -136 81.5t-193 52.5h-63q-86 0 -161.5 -40t-136.5 -126q-56 -79 -81 -170t-25 -194zM581 1375h15q166 0 384 -123q51 -36 97 -82.5t83 -106.5
q69 -115 100.5 -234t31.5 -242q0 -196 -96 -334t-294 -216q-53 -21 -105 -29t-104 -8h-14q-154 0 -280.5 63t-220.5 198q-65 93 -93 206t-28 243v6q0 149 39.5 274t126.5 222q76 85 167 124t191 39z" />
    <glyph glyph-name="P" unicode="P" horiz-adv-x="745" 
d="M221 1283v-3q0 -8 1 -23t1 -37q2 -93 -4.5 -202.5t-17.5 -238.5h2q216 0 338 123q38 53 38 95v11q0 104 -115 192q-134 83 -243 83zM160 1415q19 0 49 -20q140 0 315 -103q163 -120 163 -295v-6q0 -223 -340 -301q-25 -6 -63.5 -10.5t-91.5 -9.5q-13 -152 -19.5 -273
t-6.5 -214q0 -46 3 -149q-13 -34 -46 -34h-11q-23 0 -36.5 13.5t-15.5 40.5q-2 32 -2.5 61t-0.5 57v6q0 95 6.5 219t19.5 282q-11 0 -20 34v20q0 20 29 43q8 85 14 194.5t9 246.5q-2 22 -2.5 40t-0.5 32q-38 12 -38 52q12 48 29 48q37 26 57 26z" />
    <glyph glyph-name="Q" unicode="Q" horiz-adv-x="1292" 
d="M166 622q0 -155 87 -274t265 -199q50 -22 94.5 -29.5t83.5 -7.5q122 0 218 71q-106 45 -106 72q-3 12 -3 23q9 49 40 49h9q70 -23 146 -66q126 167 126 372v46q0 212 -138 470q-112 169 -235 169h-17q-59 0 -136 -34.5t-170 -109.5q-67 -55 -108 -108t-61 -101
q-95 -170 -95 -343zM748 1429q137 0 245.5 -108t186.5 -330q31 -88 43 -167t12 -151v-37q0 -249 -144 -438v-3q73 -54 81 -92v-17q0 -31 -46 -49h-15q-19 0 -60 49l-37 34q-156 -120 -321 -120q-230 0 -452 201q-184 169 -184 429q0 352 307 630q223 169 384 169z" />
    <glyph glyph-name="R" unicode="R" horiz-adv-x="962" 
d="M275 1289q-7 -72 -14 -198t-15 -309q-2 0 -14 -120q40 -15 86 -15h34q169 0 327 152q83 104 83 195v17q0 161 -278 244q-35 11 -86.5 19.5t-122.5 14.5zM223 1412h3q7 0 46 -14h14q298 0 499 -192q86 -109 86 -192v-37q0 -143 -169 -301q-48 -37 -83 -59.5t-58 -29.5v-3
q15 -50 46.5 -116t85.5 -147q34 -51 85.5 -110t120.5 -131l6 -23q-14 -57 -57 -57q-18 0 -46.5 27.5t-73.5 78.5q-91 103 -159.5 211.5t-113.5 229.5q-34 -6 -57.5 -8.5t-36.5 -2.5h-40q-49 0 -103 14v-3q-41 -436 -58 -513q-20 -31 -60 -31q-43 6 -43 40l63 593.5t26 277.5
q6 123 10 216t10 159q-31 16 -31 49q12 60 57 60q0 9 31 14z" />
    <glyph glyph-name="S" unicode="S" horiz-adv-x="673" 
d="M341 1435q197 0 266 -137q9 -45 9 -49q0 -40 -52 -49q-54 0 -63 72q-42 51 -169 51q-87 0 -111 -57q-20 -48 -30.5 -88.5t-10.5 -74.5q0 -111 138 -166q64 -34 120 -105t103 -182q30 -70 44 -139.5t14 -138.5q0 -288 -247 -363q-50 -9 -77 -9q-167 0 -209 146
q-5 17 -7 33t-2 30v23q0 87 11.5 129.5t23.5 42.5q0 8 28 11h3q57 -12 57 -48v-9q-7 -49 -10.5 -82t-3.5 -50q0 -117 112 -117q136 0 200 157q15 61 15 112q0 193 -152 401q-51 54 -152 103q-115 76 -115 221v5q0 179 104 281q65 46 163 46z" />
    <glyph glyph-name="T" unicode="T" horiz-adv-x="1020" 
d="M487 1418h11q30 0 52 -40q-3 -39 -3 -58v-123q121 11 214 17t158 6q35 0 43 -54q-9 -55 -51 -55q-58 0 -147.5 -6t-213.5 -17l27.5 -683.5t12.5 -361.5q2 -34 -54 -43h-3q-37 0 -52 43q-2 103 -12.5 362l-27.5 675q-101 -11 -186 -15.5t-155 -4.5q-36 0 -43 48v9
q0 45 55 52h3q57 0 137 4.5t186 15.5q-3 52 -3 77v57q0 95 52 95z" />
    <glyph glyph-name="U" unicode="U" horiz-adv-x="733" 
d="M137 1392q55 -9 55 -43v-100q0 -25 -4.5 -78.5t-10 -135.5t-10 -192.5t-4.5 -249.5v-37q0 -236 52 -287q97 -77 223 -77q77 0 103 66q0 8 3 8q-3 106 -3 141q0 77 2.5 179.5t3.5 232.5q1 91 -2 164.5t-1 133.5q4 133 17.5 198.5t34.5 65.5q3 2 11 2h20q39 0 49 -54
q-26 -133 -26 -252l3 -26q0 -23 2 -81.5t1 -153.5q-1 -88 -3.5 -157t-2.5 -121v-131q0 -135 12 -373q-15 -34 -46 -34h-9q-57 0 -57 97v12h-3q-52 -26 -112 -26h-37q-159 0 -283 132q-58 79 -58 298q0 30 4 91.5t9 155.5t9 219.5t4 283.5v63q0 66 54 66z" />
    <glyph glyph-name="V" unicode="V" horiz-adv-x="888" 
d="M773 1406q58 -8 58 -54q-189 -847 -350 -1286q0 -30 -40 -60q-9 -6 -17 -6h-17q-49 8 -49 43q0 8 9 37q-29 116 -82 281.5l-125 386.5q-54 168 -78.5 309.5t-24.5 257.5q0 36 55 43q54 -8 54 -52q0 -149 60.5 -382.5t174.5 -554.5q19 -52 25.5 -78.5t8.5 -26.5
q60 189 133 468.5t160 650.5q16 23 45 23z" />
    <glyph glyph-name="W" unicode="W" horiz-adv-x="1398" 
d="M1226 1392q51 -9 51 -43q-2 -19 -3.5 -46t-1.5 -63v-23q0 -32 9.5 -151t18.5 -327q5 -115 1.5 -198.5t-3.5 -139.5q0 -150 43 -306v-18q-17 -45 -61 -45q-13 0 -40.5 29.5t-73.5 87.5q-123 153 -209.5 277t-143.5 221q-49 85 -88 163t-63 155h-3q-58 -160 -122.5 -394
t-138.5 -548q-23 -23 -43 -23h-11q-57 0 -78 137q-48 189 -82.5 364.5l-68.5 340.5l-40.5 204t-17.5 163q0 71 29 83q11 5 18.5 6.5t12.5 1.5q40 0 52 -40q-3 -42 -3 -57q0 -55 21 -167l56 -286l38.5 -190.5t62.5 -281.5q4 0 16.5 54.5t40.5 163.5q49 192 104.5 360.5
t113.5 317.5q19 75 54 75h20q49 -9 49 -46q-2 -9 -5.5 -20.5t-8.5 -25.5q9 -116 78 -275.5t211 -354.5l175 -241h2v3q0 48 -2.5 81t-2.5 51q2 126 3.5 197.5t-0.5 91.5l-29 473v60q0 138 29 138q19 11 34 11z" />
    <glyph glyph-name="X" unicode="X" horiz-adv-x="1045" 
d="M106 1412h11q34 0 144 -186q30 -51 81 -145.5l128 -232.5q18 -32 38.5 -62l41.5 -58h3l179 327.5t139 279.5q21 77 60 77q57 -12 57 -54v-17q-42 -106 -130.5 -277.5t-224.5 -413.5q-14 -17 -14 -28l145 -213t115 -191q38 -70 56.5 -110t18.5 -51q-12 -57 -57 -57h-3
q-39 0 -63 77q-111 205 -278 453q-271 -346 -344 -484q-23 -12 -29 -12h-8q-55 12 -55 46v17q0 45 338 484q29 38 29 49q-164 235 -318 544l-41.5 64.5l-61.5 90.5q-6 10 -6 23v3q0 43 49 57z" />
    <glyph glyph-name="Y" unicode="Y" horiz-adv-x="1169" 
d="M109 1409h6q28 0 88 -74q91 -79 196.5 -160.5t230.5 -166.5h6q38 45 85 91t104 93q91 75 203 194q10 9 20 9h12q42 0 51 -57q0 -25 -48.5 -74.5t-143.5 -129.5q-111 -94 -164 -149.5t-53 -70.5q0 -39 -5 -104t-11 -157t-11 -210.5t-5 -264.5v-3q0 -29 9 -126
q0 -36 -57 -49h-6q-46 0 -46 74q-6 0 -6 78v60q0 148 4.5 263t10 197t10 131t4.5 65q0 34 -3 34l-243 175.5t-195 157.5q-95 82 -95 117q15 57 52 57z" />
    <glyph glyph-name="Z" unicode="Z" horiz-adv-x="948" 
d="M115 1389q40 -7 163.5 -12.5t334.5 -10.5l97 -14q21 3 35 3q63 -21 63 -63v-6q0 -48 -60 -57q-44 -60 -90.5 -146t-99.5 -197l-113.5 -246l-132.5 -293q-4 -8 -27.5 -59l-66.5 -148h3q2 -2 5 -2t6 -1q260 -14 415 -21t209 -7q35 -15 35 -49v-8q0 -45 -55 -52h-2
q-17 0 -67 5t-133.5 11t-200.5 11t-267 5h-6q-14 -32 -45 -32q-58 14 -58 52q0 66 26 83q8 0 17.5 19t25.5 55q32 55 104 225.5l197 450.5q48 109 101 199t105 168v3q-56 5 -174 9t-301 11q-51 2 -76 14.5t-25 33.5v6q9 60 58 60z" />
    <glyph glyph-name="bracketleft" unicode="[" horiz-adv-x="543" 
 />
    <glyph glyph-name="backslash" unicode="\" horiz-adv-x="407" 
 />
    <glyph glyph-name="bracketright" unicode="]" horiz-adv-x="543" 
 />
    <glyph glyph-name="asciicircum" unicode="^" 
 />
    <glyph glyph-name="underscore" unicode="_" horiz-adv-x="733" 
 />
    <glyph glyph-name="grave" unicode="`" horiz-adv-x="733" 
 />
    <glyph glyph-name="a" unicode="a" horiz-adv-x="748" 
d="M169 309v-17q0 -35 26 -67.5t80 -61.5q24 -13 48.5 -18t48.5 -5q131 0 184 169q-13 109 -29 109q-80 46 -146 46q-98 0 -195 -97q-17 -34 -17 -58zM581 644q55 0 55 -74q0 -52 7 -98t22 -85l2 -40q1 -6 -2 -43q11 -75 16.5 -132.5t5.5 -99.5v-9q0 -7 3 -11
q-9 -52 -43 -52h-20q-48 0 -48 74v46q-92 -88 -210 -88h-11q-184 0 -281 189q-11 22 -15.5 44.5t-4.5 43.5q0 149 218 247q26 7 48.5 10.5t43.5 3.5h25q64 0 135 -29v61q0 34 54 42z" />
    <glyph glyph-name="b" unicode="b" horiz-adv-x="662" 
d="M172 238q48 -126 134 -126h15q89 0 154 106q11 19 16 38.5t5 38.5v9q0 94 -106 126q-11 3 -21 4t-20 1h-8q-93 0 -149 -71q-20 -26 -20 -126zM155 934q41 0 48 -52q0 -50 -3.5 -143.5t-10.5 -231.5h3q70 37 137 37h23q169 0 241 -166q6 -23 8.5 -43.5t2.5 -39.5
q0 -185 -203 -278q-53 -17 -95 -17q-60 0 -123 40q-25 -37 -48 -37h-20q-52 0 -52 175q0 52 -6 97q16 53 35 458q2 50 2.5 88.5t0.5 66.5q0 40 60 46z" />
    <glyph glyph-name="c" unicode="c" horiz-adv-x="533" 
d="M335 639h43q40 0 46 -58v-2q0 -49 -72 -49q-141 0 -183 -155q-3 -29 -3 -43q0 -159 169 -215q20 -4 40 -6t40 -2h18q35 0 42 -52q0 -51 -60 -57h-11q-223 0 -324 206q-23 64 -23 126q0 198 186 290q57 17 92 17z" />
    <glyph glyph-name="d" unicode="d" horiz-adv-x="602" 
d="M166 281v-9q0 -106 129 -160q16 -3 26 -3h8q68 0 98 126v26q0 36 -29 68q-38 66 -106 66h-8q-82 0 -115 -89q-3 -15 -3 -25zM467 925h23q39 -9 37 -34q-4 -64 -6.5 -113.5t-2.5 -87.5v-3q0 -20 4 -66.5t9 -120t9 -173.5t4 -227v-54q0 -39 -60 -43q-43 12 -43 34h-6
q-52 -37 -111 -37q-69 0 -127.5 35.5t-104.5 110.5q-20 31 -27.5 63t-7.5 63v17q0 153 198 215q13 0 37 3q58 0 120 -37h3l-3.5 114.5t-1.5 91.5v17q0 221 31 221q12 11 26 11z" />
    <glyph glyph-name="e" unicode="e" horiz-adv-x="644" 
d="M189 252v-9h3q120 36 180 124v8q-34 26 -71 26h-15q-76 0 -97 -149zM298 513q100 0 172 -89q14 -23 14 -49v-3q0 -57 -51 -111t-155 -103q-18 -8 -29.5 -11.5t-13.5 -3.5q38 -34 109 -34q137 0 137 100q0 27 52 34q54 -8 54 -51v-3q0 -157 -220 -189h-35q-135 0 -217 120
q-46 0 -58 35v28q0 22 26 40l-3 6v29q0 157 141 240q40 15 77 15z" />
    <glyph glyph-name="f" unicode="f" horiz-adv-x="650" 
d="M410 1200h2q169 -18 181 -71v-15q0 -42 -57 -54l-57.5 18.5t-37.5 9.5h-34q-45 0 -75 -49.5t-48 -150.5q-4 -23 -8 -70t-4 -119q0 -23 1.5 -44t1.5 -39q158 -27 158 -86v-3q-11 -57 -55 -57q-9 0 -72 28q-18 6 -22 6v-3q15 -166 23 -279.5t8 -178.5q0 -36 -54 -43
q-28 3 -40.5 16t-14.5 36l-34 466q-115 7 -115 49v23q13 46 43 46h12q18 0 57 -9q-3 6 -3 9q0 441 138 533q47 31 106 31z" />
    <glyph glyph-name="g" unicode="g" horiz-adv-x="693" 
d="M198 232q0 -90 106 -123q15 -3 28 -3q108 0 158 123q3 26 6 32q0 37 -22 64.5t-67 41.5q-15 5 -30 6.5t-30 1.5h-9q-120 0 -140 -143zM590 518q46 -9 46 -37q-17 -146 -25.5 -301.5t-8.5 -325.5q-8 -60 -18 -104.5t-25 -73.5q-58 -106 -167 -106h-20q-157 0 -275 178
q-40 80 -40 157q0 84 40 84h20q37 0 52 -55q-3 -31 -6 -37q0 -115 138 -198q40 -23 71 -23h18q65 0 97 118q6 54 6 83q0 32 -3 83q3 36 3 89h-3q-73 -52 -152 -52h-3q-174 0 -240 181q-6 34 -6 54v6q0 130 126 212q28 18 59 26t64 8h17q95 0 166 -54q0 88 69 88z" />
    <glyph glyph-name="h" unicode="h" horiz-adv-x="639" 
d="M129 1131h17q27 0 43 -34q0 -37 6.5 -170t19.5 -366h3q36 0 57 3t29 3q186 0 249 -157q28 -73 28 -167v-20q0 -181 -31 -209q-26 -14 -43 -14q-49 8 -49 46q9 63 13 110t4 79q0 223 -160 223h-29q-8 0 -24.5 -1.5t-40.5 -3.5v-3q0 -78 3 -171t5 -202q-8 -51 -51 -51h-9
q-34 0 -49 37l-5 347l-3 17h-12q-33 0 -43 57q11 52 52 52q-11 180 -18.5 315.5t-10.5 231.5q10 48 49 48z" />
    <glyph glyph-name="i" unicode="i" horiz-adv-x="321" 
d="M140 559h9q52 -8 52 -49q-29 -80 -29 -201v-266q0 -34 -49 -43h-8q-52 7 -52 52q0 15 -2 76t-4 167q-1 88 12 150.5t37 101.5q22 12 34 12zM178 1031q60 0 86 -57v-26q0 -43 -75 -63h-14q-51 0 -72 80q0 46 49 63q16 3 26 3z" />
    <glyph glyph-name="j" unicode="j" horiz-adv-x="713" 
d="M556 593h8q53 -11 52 -49q-24 -610 -46 -610q-7 -29 -28 -64.5t-58 -75.5q-83 -66 -166 -66h-6q-149 0 -252 186q-3 6 -3 14v12q15 46 46 46h20q24 0 72 -81q57 -68 117 -68h9q103 0 152 149q5 0 9 83t14 252l14 243q17 29 46 29zM564 1008h17q75 0 75 -77v-6
q-8 -69 -57 -69h-12q-55 0 -80 78v23q0 39 57 51z" />
    <glyph glyph-name="k" unicode="k" horiz-adv-x="602" 
d="M143 940q50 -9 49 -38l-9 -183q-3 -57 1.5 -105t7.5 -90q188 153 212 166l14 3q49 -12 49 -63q0 -32 -100 -103l-49 -43q226 -326 226 -375v-6q0 -42 -57 -54q-39 0 -75 88q-69 126 -183 281q0 -7 -28 -20q8 -126 12.5 -213.5t4.5 -138.5q0 -37 -55 -46q-54 9 -54 46
q0 72 -4.5 149.5t-12.5 162.5q-35 17 -35 60q0 17 29 40q-5 75 -8 139.5t-4 118.5q-1 209 29 209q0 9 40 15z" />
    <glyph glyph-name="l" unicode="l" horiz-adv-x="241" 
d="M103 991h23q19 0 30.5 -14t12.5 -43l14 -576v-34q0 -153 -8.5 -228.5t-19.5 -75.5q-17 -20 -40 -20h-18q-33 0 -40 43q9 63 13 133.5t4 150.5v28l-14 596q14 40 43 40z" />
    <glyph glyph-name="m" unicode="m" horiz-adv-x="679" 
d="M112 556l14 3h23q43 -10 43 -49v-12l29 3h17q44 0 80 -26q64 35 120 35q63 0 102.5 -43t61.5 -129q8 -32 14 -89t6 -143v-46q0 -60 -52 -60h-9q-48 9 -48 43v66q0 298 -80 298q-26 -3 -66 -29q8 -26 8 -74v-3q0 -212 -26 -212q-11 -15 -37 -15q-51 10 -51 43v12
q0 18 3 57.5t5 99.5q2 52 -7.5 78t-26.5 26h-17q-34 0 -35 -12q-6 -88 -11.5 -156t-8.5 -116q-20 -32 -51 -32q-55 7 -55 52q0 33 4.5 93.5t12.5 149.5q-14 12 -14 35v6q0 16 20 45q0 95 32 101z" />
    <glyph glyph-name="n" unicode="n" horiz-adv-x="567" 
d="M132 573h5q35 -6 35 -23q49 9 74 9q89 0 149.5 -46.5t91.5 -140.5q13 -38 18 -80.5t5 -90.5v-135q0 -53 -37 -66h-29q-43 12 -43 40v172q0 170 -100 223q-17 9 -34 14t-35 4q-37 -3 -37 -12q19 -128 28 -222.5t9 -158.5q0 -42 -57 -49h-3q-46 0 -49 66q-18 341 -46 341
q-9 0 -20 35v11q0 12 17 32v7t-2 15q0 43 60 55z" />
    <glyph glyph-name="o" unicode="o" horiz-adv-x="771" 
d="M166 341q0 -135 155 -215q25 -7 51.5 -11.5t54.5 -5.5q143 -1 172 120l3 35q5 60 -27.5 111t-93.5 89q-19 12 -36.5 16t-32.5 4h-45q-139 0 -184 -63q-17 -31 -17 -80zM384 593h26q151 0 263 -178q40 -79 40 -149q0 -94 -50.5 -158t-152.5 -97q-20 -7 -40 -9t-40 -2h-15
q-202 0 -326 201q-32 72 -32 143v5q0 88 45 144.5t139 82.5q35 10 71.5 13.5t71.5 3.5z" />
    <glyph glyph-name="p" unicode="p" horiz-adv-x="604" 
d="M175 286v-2q0 -76 9 -114t22 -38q24 -20 52 -20q81 0 163 91q17 40 17 61q0 63 -123 108h-11q-83 0 -129 -86zM109 510h3q54 0 54 -60v-12h3q67 43 123 43h26q93 0 200 -126q29 -55 29 -100q0 -107 -132 -203q-83 -49 -157 -49q-8 0 -21.5 2t-35.5 6q20 -188 42 -289
q0 -36 -45 -51h-18q-47 0 -63 140q-6 53 -17.5 134.5t-22.5 194.5q-17 39 -17 86q0 42 3 80q-6 61 -6 138v23q0 33 52 43z" />
    <glyph glyph-name="q" unicode="q" horiz-adv-x="610" 
d="M166 248q0 -88 109 -129q6 -3 31 -6q81 0 121 98q3 33 3 48q0 39 -72 72q-29 10 -69 14q-86 0 -117 -66q-6 -12 -6 -31zM498 546h3q52 -7 52 -52q0 -136 -19.5 -297t-55.5 -353q-31 -172 -45 -172q-12 -9 -26 -9h-9q-54 10 -54 55q54 285 54 306h-3q-42 -17 -74 -17h-29
q-116 0 -203 126q-32 58 -32 115q0 138 152 195q46 11 75 11q65 0 157 -43v3l3 17v63q0 44 54 52z" />
    <glyph glyph-name="r" unicode="r" horiz-adv-x="590" 
d="M109 561h14q22 0 52 -48q91 46 169 46h14q95 0 169 -69l6 -20v-17q-7 -52 -49 -52q-13 0 -77 37q-35 12 -66 12q-60 0 -129 -43q25 -97 54 -353q0 -42 -60 -54h-3q-48 0 -48 86q-11 88 -20.5 154.5t-19.5 114.5h-12q-33 0 -43 52v8q0 17 17 40q-20 38 -20 46v9
q10 51 52 51z" />
    <glyph glyph-name="s" unicode="s" horiz-adv-x="590" 
d="M344 816q91 0 189 -111v-26q0 -33 -52 -46h-6q-11 0 -31 14t-52 40q-14 11 -27 15.5t-24 4.5q-60 -20 -60 -60q0 -11 -3 -11q0 -26 14 -44.5t43 -27.5q72 -23 107.5 -43t35.5 -40q40 -53 40 -137q0 -98 -37 -176.5t-114 -135.5q-23 -17 -47 -24.5t-48 -7.5h-11
q-124 0 -172 109q-32 73 -32 149q0 146 103 195q14 6 25.5 8.5t20.5 2.5q38 0 49 -60q0 -40 -57 -55q-35 -33 -35 -85v-15q15 -143 92 -143q37 0 70.5 29.5t61.5 90.5q13 29 18 56.5t5 55.5q0 85 -61 112q-113 30 -134 66q-43 46 -43 120q0 125 126 175l26.5 3.5t19.5 1.5z
" />
    <glyph glyph-name="t" unicode="t" horiz-adv-x="461" 
d="M183 1037h23q43 0 49 -66q3 -42 6 -57h94q44 0 49 -58q-8 -51 -52 -51h-83q11 -167 15.5 -286.5t4.5 -194.5q0 -313 -28 -313q-24 -11 -35 -11h-11q-34 0 -46 40q5 55 8 125t3 156q0 103 -5.5 223.5t-14.5 260.5h-51q-45 0 -52 54v3q7 52 49 52h46l-3 5q0 31 -6 75
q10 43 40 43z" />
    <glyph glyph-name="u" unicode="u" horiz-adv-x="550" 
d="M106 636h3q52 0 57 -66q3 -8 3 -43v-80q0 -189 46 -235q26 -14 57 -14h14q13 0 34.5 4t51.5 13q-19 135 -28 227.5t-9 144.5v6q0 32 49 43h8q52 0 52 -77q0 -20 11 -126t35 -301q1 -8 2 -24t1 -42v-20q0 -46 -58 -46q-23 0 -37 15.5t-14 47.5v43q-65 -14 -100 -14h-12
q-209 0 -209 286v20q0 80 -6 206q15 32 49 32z" />
    <glyph glyph-name="v" unicode="v" horiz-adv-x="607" 
d="M493 561q57 -14 57 -54q0 -7 -14 -35l-40 -80q-26 -55 -58 -147l-74 -222q-18 -23 -43 -23h-9q-51 9 -51 49q4 28 8 28q-30 75 -72.5 155.5l-93.5 171.5q-26 46 -36 73.5t-10 35.5q11 43 43 43h20q43 0 81 -109l120 -212q50 166 117 286q22 40 55 40z" />
    <glyph glyph-name="w" unicode="w" horiz-adv-x="914" 
d="M100 604h23q40 0 69 -108q71 -190 94 -287l104.5 151l87.5 133q22 14 38 14q57 -14 57 -49v-5q0 -13 -6 -23q13 -45 29.5 -90.5t36.5 -93.5h3q0 37 123 318q20 20 34 20h6q57 -12 57 -57q0 -7 -11.5 -35.5l-33.5 -79.5q-27 -63 -56.5 -148.5l-64.5 -194.5
q-25 -23 -46 -23h-14q-16 0 -32 26.5t-39 79.5q-14 22 -31 62.5t-38 97.5q-131 -173 -178 -289q-20 -23 -37 -23h-26q-40 9 -40 37v15q0 14 6 14q-28 101 -64 214t-82 241q-12 18 -12 35v3q9 45 43 45z" />
    <glyph glyph-name="x" unicode="x" horiz-adv-x="656" 
d="M135 561h20q36 0 66 -88q41 -67 103 -126q4 0 189 183q12 8 23 8h14q37 0 49 -54v-3q0 -28 -78 -94q-1 -5 -120 -121q195 -180 195 -192q3 -5 3 -11v-11q0 -40 -61 -52q-9 0 -22.5 10.5t-34.5 29.5l-166 152q-143 -124 -198 -140h-11q-40 0 -49 51v14q0 26 101 86
l49 39.5t31 26.5q-140 164 -149 249q0 31 46 43z" />
    <glyph glyph-name="y" unicode="y" horiz-adv-x="676" 
d="M112 420h8q27 0 72 -81q46 -52 92 -97t94 -83q143 243 155 255l20 6h14q52 -15 52 -52v-3q0 -25 -161 -281q6 -20 6 -22v-20q-13 -46 -52 -46q-14 0 -48 -72q-56 -84 -97 -174.5t-75 -186.5q-11 -57 -52 -57h-11q-49 9 -49 46v3q33 166 238 507v2q-229 205 -244 258
q-6 0 -17 35v17q0 34 55 46z" />
    <glyph glyph-name="z" unicode="z" horiz-adv-x="581" 
d="M284 504q116 -2 174 -11t58 -20q8 -16 8 -23v-12q0 -39 -49 -57q-8 -22 -68 -84.5t-172 -167.5q-4 -3 -5.5 -5.5t-3.5 -4.5q-2 -3 -3 -4q22 -2 37.5 -2.5t25.5 -0.5h23q25 0 55 2.5t66 8.5q48 -14 48 -60q0 -63 -166 -63h-8q-41 0 -132 9q-38 -6 -69 -6q-30 0 -46 54
q0 63 247 281l28.5 32.5t16.5 21.5l-20 3h-43q-36 0 -80 -3.5t-97 -10.5q-37 0 -49 54v12q0 46 83 46q18 4 53 8t88 3z" />
    <glyph glyph-name="braceleft" unicode="{" 
 />
    <glyph glyph-name="bar" unicode="|" 
 />
    <glyph glyph-name="braceright" unicode="}" 
 />
    <glyph glyph-name="asciitilde" unicode="~" horiz-adv-x="1146" 
d="M885 710q140 0 198 -172l3.5 -37.5t1.5 -25.5q0 -157 -163 -211q-11 -4 -21 -5t-19 -1h-31q-106 0 -169 109q-9 31 -9 51v20q0 34 54 43q58 0 58 -80q22 -34 74 -34q92 0 115 83q3 19 3 31q-20 121 -95 121h-14q-84 0 -238 -175l-58.5 -49t-44.5 -34q-113 -78 -221 -78
h-23q-172 0 -223 167q-6 28 -6 51v6q0 85 40 138.5t121 73.5q8 2 14.5 2.5t13.5 0.5h15q130 0 186 -129q11 -25 11 -66q-7 -43 -54 -43q-53 0 -60 80q-29 52 -86 52q-80 0 -95 -109q0 -97 132 -115h17q64 0 146 57.5t189 169.5q56 57 116.5 82.5t121.5 25.5z" />
    <glyph glyph-name="Euro" unicode="&#x20ac;" 
 />
    <glyph glyph-name="quotesinglbase" unicode="&#x201a;" horiz-adv-x="309" 
d="M143 152h3q31 0 72 -49q34 -27 34 -77v-6q0 -66 -63 -106h-20q-37 0 -49 54v9q0 9 9 23q-72 9 -72 60v12q0 57 86 80z" />
    <glyph glyph-name="quotedblbase" unicode="&#x201e;" horiz-adv-x="309" 
d="M380 152h2q32 0 72 -49q34 -27 34 -77v-6q0 -66 -63 -106h-20q-38 0 -48 54v9q0 11 8 23q-71 9 -71 60v12q0 58 86 80zM143 152h3q31 0 72 -49q34 -27 34 -77v-6q0 -66 -63 -106h-20q-37 0 -49 54v9q0 9 9 23q-72 9 -72 60v12q0 57 86 80z" />
    <glyph glyph-name="ellipsis" unicode="&#x2026;" horiz-adv-x="1467" 
 />
    <glyph glyph-name="dagger" unicode="&#x2020;" 
 />
    <glyph glyph-name="daggerdbl" unicode="&#x2021;" 
 />
    <glyph glyph-name="circumflex" unicode="&#x2c6;" horiz-adv-x="733" 
 />
    <glyph glyph-name="guilsinglleft" unicode="&#x2039;" horiz-adv-x="452" 
 />
    <glyph glyph-name="quoteleft" unicode="&#x2018;" horiz-adv-x="309" 
d="M166 1045h-3q-31 0 -71 49q-35 27 -35 78v5q0 67 63 106h20q37 0 49 -54v-9q0 -8 -9 -23q72 -8 72 -60v-11q0 -57 -86 -81z" />
    <glyph glyph-name="quoteright" unicode="&#x2019;" horiz-adv-x="309" 
d="M143 1283h3q31 0 72 -48q34 -27 34 -78v-6q0 -66 -63 -106h-20q-37 0 -49 55v8q0 9 9 23q-72 9 -72 61v11q0 57 86 80z" />
    <glyph glyph-name="quotedblleft" unicode="&#x201c;" horiz-adv-x="309" 
d="M166 1045h-3q-31 0 -71 49q-35 27 -35 78v5q0 67 63 106h20q37 0 49 -54v-9q0 -8 -9 -23q72 -8 72 -60v-11q0 -57 -86 -81zM402 1045h-2q-32 0 -72 49q-34 27 -34 78v5q0 68 63 106h20q36 0 48 -54v-9q0 -7 -8 -23q71 -7 71 -60v-11q0 -57 -86 -81z" />
    <glyph glyph-name="quotedblright" unicode="&#x201d;" horiz-adv-x="309" 
d="M380 1283h2q33 0 72 -48q34 -27 34 -78v-6q0 -66 -63 -106h-20q-38 0 -48 55v8q0 11 8 23q-71 9 -71 61v11q0 58 86 80zM143 1283h3q31 0 72 -48q34 -27 34 -78v-6q0 -66 -63 -106h-20q-37 0 -49 55v8q0 9 9 23q-72 9 -72 61v11q0 57 86 80z" />
    <glyph glyph-name="bullet" unicode="&#x2022;" horiz-adv-x="733" 
 />
    <glyph glyph-name="endash" unicode="&#x2013;" horiz-adv-x="793" 
 />
    <glyph glyph-name="emdash" unicode="&#x2014;" horiz-adv-x="1467" 
 />
    <glyph glyph-name="tilde" unicode="&#x2dc;" horiz-adv-x="733" 
 />
    <glyph glyph-name="trademark" unicode="&#x2122;" horiz-adv-x="1072" 
 />
    <glyph glyph-name="guilsinglright" unicode="&#x203a;" horiz-adv-x="452" 
 />
    <glyph glyph-name="uni00A0" unicode="&#xa0;" horiz-adv-x="364" 
 />
    <glyph glyph-name="exclamdown" unicode="&#xa1;" horiz-adv-x="481" 
 />
    <glyph glyph-name="cent" unicode="&#xa2;" horiz-adv-x="816" 
 />
    <glyph glyph-name="sterling" unicode="&#xa3;" 
 />
    <glyph glyph-name="currency" unicode="&#xa4;" 
 />
    <glyph glyph-name="yen" unicode="&#xa5;" horiz-adv-x="904" 
 />
    <glyph glyph-name="brokenbar" unicode="&#xa6;" 
 />
    <glyph glyph-name="section" unicode="&#xa7;" 
 />
    <glyph glyph-name="dieresis" unicode="&#xa8;" horiz-adv-x="733" 
 />
    <glyph glyph-name="copyright" unicode="&#xa9;" horiz-adv-x="1199" 
 />
    <glyph glyph-name="ordfeminine" unicode="&#xaa;" horiz-adv-x="464" 
 />
    <glyph glyph-name="guillemotleft" unicode="&#xab;" horiz-adv-x="676" 
 />
    <glyph glyph-name="logicalnot" unicode="&#xac;" 
 />
    <glyph glyph-name="uni00AD" unicode="&#xad;" horiz-adv-x="480" 
 />
    <glyph glyph-name="registered" unicode="&#xae;" horiz-adv-x="1199" 
 />
    <glyph glyph-name="macron" unicode="&#xaf;" horiz-adv-x="480" 
 />
    <glyph glyph-name="degree" unicode="&#xb0;" horiz-adv-x="483" 
 />
    <glyph glyph-name="plusminus" unicode="&#xb1;" 
 />
    <glyph glyph-name="uni00B2" unicode="&#xb2;" 
 />
    <glyph glyph-name="uni00B3" unicode="&#xb3;" 
 />
    <glyph glyph-name="acute" unicode="&#xb4;" horiz-adv-x="733" 
 />
    <glyph glyph-name="mu" unicode="&#xb5;" horiz-adv-x="845" 
 />
    <glyph glyph-name="paragraph" unicode="&#xb6;" horiz-adv-x="733" 
 />
    <glyph glyph-name="periodcentered" unicode="&#xb7;" horiz-adv-x="364" 
 />
    <glyph glyph-name="cedilla" unicode="&#xb8;" horiz-adv-x="733" 
 />
    <glyph glyph-name="uni00B9" unicode="&#xb9;" 
 />
    <glyph glyph-name="ordmasculine" unicode="&#xba;" horiz-adv-x="514" 
 />
    <glyph glyph-name="guillemotright" unicode="&#xbb;" horiz-adv-x="676" 
 />
    <glyph glyph-name="onequarter" unicode="&#xbc;" horiz-adv-x="1223" 
 />
    <glyph glyph-name="onehalf" unicode="&#xbd;" horiz-adv-x="1406" 
 />
    <glyph glyph-name="threequarters" unicode="&#xbe;" horiz-adv-x="1223" 
 />
    <glyph glyph-name="questiondown" unicode="&#xbf;" horiz-adv-x="536" 
 />
    <glyph glyph-name="Agrave" unicode="&#xc0;" horiz-adv-x="1103" 
 />
    <glyph glyph-name="Aacute" unicode="&#xc1;" horiz-adv-x="1103" 
 />
    <glyph glyph-name="Acircumflex" unicode="&#xc2;" horiz-adv-x="1103" 
 />
    <glyph glyph-name="Atilde" unicode="&#xc3;" horiz-adv-x="1103" 
 />
    <glyph glyph-name="Adieresis" unicode="&#xc4;" horiz-adv-x="1103" 
 />
    <glyph glyph-name="Aring" unicode="&#xc5;" horiz-adv-x="1103" 
 />
    <glyph glyph-name="AE" unicode="&#xc6;" horiz-adv-x="1517" 
 />
    <glyph glyph-name="Ccedilla" unicode="&#xc7;" horiz-adv-x="1002" 
 />
    <glyph glyph-name="Egrave" unicode="&#xc8;" horiz-adv-x="824" 
 />
    <glyph glyph-name="Eacute" unicode="&#xc9;" horiz-adv-x="824" 
 />
    <glyph glyph-name="Ecircumflex" unicode="&#xca;" horiz-adv-x="824" 
 />
    <glyph glyph-name="Edieresis" unicode="&#xcb;" horiz-adv-x="824" 
 />
    <glyph glyph-name="Igrave" unicode="&#xcc;" horiz-adv-x="470" 
 />
    <glyph glyph-name="Iacute" unicode="&#xcd;" horiz-adv-x="470" 
 />
    <glyph glyph-name="Icircumflex" unicode="&#xce;" horiz-adv-x="470" 
 />
    <glyph glyph-name="Idieresis" unicode="&#xcf;" horiz-adv-x="470" 
 />
    <glyph glyph-name="Eth" unicode="&#xd0;" horiz-adv-x="1087" 
 />
    <glyph glyph-name="Ntilde" unicode="&#xd1;" horiz-adv-x="1113" 
 />
    <glyph glyph-name="Ograve" unicode="&#xd2;" horiz-adv-x="1156" 
 />
    <glyph glyph-name="Oacute" unicode="&#xd3;" horiz-adv-x="1156" 
 />
    <glyph glyph-name="Ocircumflex" unicode="&#xd4;" horiz-adv-x="1156" 
 />
    <glyph glyph-name="Otilde" unicode="&#xd5;" horiz-adv-x="1156" 
 />
    <glyph glyph-name="Odieresis" unicode="&#xd6;" horiz-adv-x="1156" 
 />
    <glyph glyph-name="multiply" unicode="&#xd7;" 
 />
    <glyph glyph-name="Oslash" unicode="&#xd8;" horiz-adv-x="1156" 
 />
    <glyph glyph-name="Ugrave" unicode="&#xd9;" horiz-adv-x="1075" 
 />
    <glyph glyph-name="Uacute" unicode="&#xda;" horiz-adv-x="1075" 
 />
    <glyph glyph-name="Ucircumflex" unicode="&#xdb;" horiz-adv-x="1075" 
 />
    <glyph glyph-name="Udieresis" unicode="&#xdc;" horiz-adv-x="1075" 
 />
    <glyph glyph-name="Yacute" unicode="&#xdd;" horiz-adv-x="883" 
 />
    <glyph glyph-name="Thorn" unicode="&#xde;" horiz-adv-x="802" 
 />
    <glyph glyph-name="germandbls" unicode="&#xdf;" horiz-adv-x="896" 
 />
    <glyph glyph-name="agrave" unicode="&#xe0;" horiz-adv-x="660" 
 />
    <glyph glyph-name="aacute" unicode="&#xe1;" horiz-adv-x="660" 
 />
    <glyph glyph-name="acircumflex" unicode="&#xe2;" horiz-adv-x="660" 
 />
    <glyph glyph-name="atilde" unicode="&#xe3;" horiz-adv-x="660" 
 />
    <glyph glyph-name="adieresis" unicode="&#xe4;" horiz-adv-x="660" 
 />
    <glyph glyph-name="aring" unicode="&#xe5;" horiz-adv-x="660" 
 />
    <glyph glyph-name="ae" unicode="&#xe6;" horiz-adv-x="1041" 
 />
    <glyph glyph-name="ccedilla" unicode="&#xe7;" horiz-adv-x="648" 
 />
    <glyph glyph-name="egrave" unicode="&#xe8;" horiz-adv-x="651" 
 />
    <glyph glyph-name="eacute" unicode="&#xe9;" horiz-adv-x="651" 
 />
    <glyph glyph-name="ecircumflex" unicode="&#xea;" horiz-adv-x="651" 
 />
    <glyph glyph-name="edieresis" unicode="&#xeb;" horiz-adv-x="651" 
 />
    <glyph glyph-name="igrave" unicode="&#xec;" horiz-adv-x="368" 
 />
    <glyph glyph-name="iacute" unicode="&#xed;" horiz-adv-x="368" 
 />
    <glyph glyph-name="icircumflex" unicode="&#xee;" horiz-adv-x="368" 
 />
    <glyph glyph-name="idieresis" unicode="&#xef;" horiz-adv-x="368" 
 />
    <glyph glyph-name="eth" unicode="&#xf0;" horiz-adv-x="816" 
 />
    <glyph glyph-name="ntilde" unicode="&#xf1;" horiz-adv-x="793" 
 />
    <glyph glyph-name="ograve" unicode="&#xf2;" horiz-adv-x="723" 
 />
    <glyph glyph-name="oacute" unicode="&#xf3;" horiz-adv-x="723" 
 />
    <glyph glyph-name="ocircumflex" unicode="&#xf4;" horiz-adv-x="723" 
 />
    <glyph glyph-name="otilde" unicode="&#xf5;" horiz-adv-x="723" 
 />
    <glyph glyph-name="odieresis" unicode="&#xf6;" horiz-adv-x="723" 
 />
    <glyph glyph-name="divide" unicode="&#xf7;" 
 />
    <glyph glyph-name="oslash" unicode="&#xf8;" horiz-adv-x="723" 
 />
    <glyph glyph-name="ugrave" unicode="&#xf9;" horiz-adv-x="758" 
 />
    <glyph glyph-name="uacute" unicode="&#xfa;" horiz-adv-x="758" 
 />
    <glyph glyph-name="ucircumflex" unicode="&#xfb;" horiz-adv-x="758" 
 />
    <glyph glyph-name="udieresis" unicode="&#xfc;" horiz-adv-x="758" 
 />
    <glyph glyph-name="yacute" unicode="&#xfd;" horiz-adv-x="622" 
 />
    <glyph glyph-name="thorn" unicode="&#xfe;" horiz-adv-x="723" 
 />
    <glyph glyph-name="ydieresis" unicode="&#xff;" horiz-adv-x="622" 
 />
    <glyph glyph-name="fraction" unicode="&#x2044;" horiz-adv-x="245" 
 />
    <glyph glyph-name="fi" unicode="&#xfb01;" horiz-adv-x="768" 
 />
    <glyph glyph-name="fl" unicode="&#xfb02;" horiz-adv-x="774" 
 />
    <glyph glyph-name="breve" unicode="&#x2d8;" horiz-adv-x="733" 
 />
    <glyph glyph-name="dotaccent" unicode="&#x2d9;" horiz-adv-x="733" 
 />
    <glyph glyph-name="ring" unicode="&#x2da;" horiz-adv-x="733" 
 />
    <glyph glyph-name="hungarumlaut" unicode="&#x2dd;" horiz-adv-x="733" 
 />
    <glyph glyph-name="ogonek" unicode="&#x2db;" horiz-adv-x="733" 
 />
    <glyph glyph-name="caron" unicode="&#x2c7;" horiz-adv-x="733" 
 />
    <glyph glyph-name="dotlessi" unicode="&#x131;" horiz-adv-x="368" 
 />
    <glyph glyph-name="minus" unicode="&#x2212;" 
 />
    <glyph glyph-name="uni02C9" unicode="&#x2c9;" horiz-adv-x="733" 
 />
    <glyph glyph-name="franc" unicode="&#x20a3;" 
 />
    <glyph glyph-name="lira" unicode="&#x20a4;" 
 />
    <glyph glyph-name="peseta" unicode="&#x20a7;" horiz-adv-x="1452" 
 />
    <glyph glyph-name="afii61352" unicode="&#x2116;" horiz-adv-x="1626" 
 />
    <glyph glyph-name="partialdiff" unicode="&#x2202;" 
 />
    <glyph glyph-name="Delta" unicode="&#x2206;" horiz-adv-x="774" 
 />
    <glyph glyph-name="product" unicode="&#x220f;" horiz-adv-x="1085" 
 />
    <glyph glyph-name="summation" unicode="&#x2211;" horiz-adv-x="864" 
 />
    <glyph glyph-name="radical" unicode="&#x221a;" 
 />
    <glyph glyph-name="infinity" unicode="&#x221e;" 
 />
    <glyph glyph-name="integral" unicode="&#x222b;" horiz-adv-x="476" 
 />
    <glyph glyph-name="approxequal" unicode="&#x2248;" 
 />
    <glyph glyph-name="lessequal" unicode="&#x2264;" 
 />
    <glyph glyph-name="greaterequal" unicode="&#x2265;" 
 />
    <glyph glyph-name="uniF001" unicode="&#xf001;" horiz-adv-x="768" 
 />
    <glyph glyph-name="uniF002" unicode="&#xf002;" horiz-adv-x="774" 
 />
    <glyph glyph-name="uni037E" unicode="&#x37e;" horiz-adv-x="312" 
d="M137 546h15q26 0 63 -43q40 -34 40 -83q0 -69 -60 -109q-4 -3 -12 -3h-11q-36 0 -49 51v15q3 12 3 20q-69 9 -69 69q0 54 80 83zM146 1021h3q54 0 63 -69q0 -83 -83 -83q-72 0 -72 69q0 59 89 83z" />
    <glyph glyph-name="uni2219" unicode="&#x2219;" horiz-adv-x="364" 
 />
    <glyph glyph-name="uni2215" unicode="&#x2215;" horiz-adv-x="245" 
 />
    </font>
</defs>
</svg>
