<?xml version="1.0" standalone="no"?>
<!DOCTYPE svg PUBLIC "-//W3C//DTD SVG 1.1//EN" "http://www.w3.org/Graphics/SVG/1.1/DTD/svg11.dtd" >
<svg>
<metadata>
Created by FontForge 20120731 at Mon Apr 20 04:48:10 2020
 By ffonts
Kiddie Land (c) Figuree Studio. 2020. All Rights Reserved
</metadata>
<defs>
<font id="KiddieLand" horiz-adv-x="0" >
  <font-face 
    font-family="Kiddie Land"
    font-weight="400"
    font-stretch="normal"
    units-per-em="1000"
    panose-1="2 0 6 0 0 0 0 0 0 0"
    ascent="800"
    descent="-200"
    x-height="723"
    cap-height="717"
    bbox="-5717 -218 731 996"
    underline-thickness="50"
    underline-position="-50"
    unicode-range="U+0020-FB02"
  />
<missing-glyph horiz-adv-x="402" 
d="M402 0h-402v700h402v-700zM378 24v652h-354v-652h354zM184 222h-15q-17 47 -17 72q0 37 39.5 106.5t39.5 105.5q0 55 -60 60q-18 0 -31.5 -7t-29.5 -20v22q41 35 83 35q43 0 71 -22.5t28 -62.5q0 -25 -12 -50t-42 -63t-47.5 -63t-17.5 -48q0 -19 11 -65zM179 104
q-6 0 -10 5l-30 35q-3 4 -3 8q0 5 5 11l28 28q5 5 10 5q4 0 10 -5l28 -29q4 -6 4 -10q0 -6 -5 -11l-27 -30q-7 -7 -10 -7z" />
    <glyph glyph-name=".notdef" horiz-adv-x="402" 
d="M402 0h-402v700h402v-700zM378 24v652h-354v-652h354zM184 222h-15q-17 47 -17 72q0 37 39.5 106.5t39.5 105.5q0 55 -60 60q-18 0 -31.5 -7t-29.5 -20v22q41 35 83 35q43 0 71 -22.5t28 -62.5q0 -25 -12 -50t-42 -63t-47.5 -63t-17.5 -48q0 -19 11 -65zM179 104
q-6 0 -10 5l-30 35q-3 4 -3 8q0 5 5 11l28 28q5 5 10 5q4 0 10 -5l28 -29q4 -6 4 -10q0 -6 -5 -11l-27 -30q-7 -7 -10 -7z" />
    <glyph glyph-name="space" unicode=" " horiz-adv-x="250" 
 />
    <glyph glyph-name="space" unicode="&#xa0;" horiz-adv-x="250" 
 />
    <glyph glyph-name="exclam" unicode="!" horiz-adv-x="220" 
d="M153 34l-110 8l-4 505h-19l-3 152l179 6zM98 -138q-28 0 -48 20t-20 48t20 47.5t48 19.5t47.5 -19.5t19.5 -47.5t-19.5 -48t-47.5 -20z" />
    <glyph glyph-name="quotedbl" unicode="&#x22;" horiz-adv-x="227" 
d="M42 602l-49 16l16 51q-46 19 -46 64q0 29 20 48.5t48 19.5q25 0 43 -16q24 -21 24 -52q0 -30 -20 -69.5t-36 -61.5zM189 602l-49 16l16 51q-47 19 -47 64q0 29 20 48.5t48 19.5q26 0 45.5 -17t22.5 -50q0 -30 -20 -69.5t-36 -62.5z" />
    <glyph glyph-name="numbersign" unicode="#" horiz-adv-x="450" 
d="M288 46l-84 16l35 144l-105 5l-57 -165l-84 16l38 154l-47 3l4 57l57 -1l16 65l-49 3l4 57l59 -1l41 170l137 -14l-55 -158l87 -1l42 173l137 -14l-56 -162h40l-14 -72l-50 3l-19 -54l55 -1l-14 -72l-65 3zM255 271l14 59l-92 4l-21 -61z" />
    <glyph glyph-name="dollar" unicode="$" horiz-adv-x="457" 
d="M255 -144l-85 6l4 94q-44 8 -80.5 31t-59 60t-22.5 88q0 44 20 99l167 -53q-15 -30 -15 -50q0 -21 10 -31t18 -11l7 -1q15 0 28.5 12.5t13.5 32.5q0 24 -29 55q-24 22 -60 46q-56 36 -107 89t-58 136v9q0 70 45 132.5t139 75.5l-7 92l85 -6l-4 -88q71 -11 113 -41t60 -73
t18 -91q0 -57 -20 -114l-162 18q14 25 14 59q0 32 -17 60t-58 28q-30 0 -44 -19t-14 -43q0 -60 112 -134q56 -38 101.5 -85t49.5 -112v-4q0 -52 -24 -88.5t-62.5 -57t-83.5 -24.5z" />
    <glyph glyph-name="percent" unicode="%" horiz-adv-x="696" 
d="M184 -59l-76 28l388 747l97 -47zM153 308q-64 0 -109 62t-45 149t45 149t109 62t109 -62t45 -149t-45 -149t-109 -62zM158 387q25 0 46.5 31.5t27.5 80.5l1 23q0 42 -15 72.5t-41 31.5q-26 0 -47 -32q-26 -38 -29 -103q0 -42 15 -72.5t42 -31.5zM546 -52q-64 0 -109 61.5
t-45 149.5q0 87 45 148.5t109 61.5q63 0 108.5 -61.5t45.5 -148.5q0 -88 -45.5 -149.5t-108.5 -61.5zM550 27q26 0 47 32q26 38 29 103q0 42 -15 72.5t-42 31.5q-26 0 -47 -31.5t-27 -80.5l-2 -26q0 -41 15.5 -70.5t41.5 -30.5z" />
    <glyph glyph-name="ampersand" unicode="&#x26;" horiz-adv-x="500" 
d="M215 -39l-23 1q-71 8 -115.5 36.5t-64.5 70.5t-20 88q0 63 32 120t87 85q-44 31 -64.5 69.5t-20.5 77.5q0 62 43 113t118 69q25 6 51 6q58 0 106 -30t55 -95l-141 -85q-22 30 -48 30q-11 0 -19 -4.5t-13 -8.5l-5 -4q-11 -24 -11 -40q0 -21 12.5 -30t27 -11.5t20.5 -2.5h4
v-110l-13 1q-38 0 -62.5 -31.5t-24.5 -68.5q0 -30 18.5 -56t59.5 -37l16 -1q46 0 67.5 32t21.5 67q0 30 -14 52.5t-40 22.5q-8 0 -16 -2l8 129l245 39l17 -153h-86q28 -49 28 -102q0 -59 -30.5 -113.5t-83.5 -89t-122 -34.5z" />
    <glyph glyph-name="quotesingle" unicode="'" horiz-adv-x="80" 
d="M42 602l-49 16l16 51q-47 19 -47 64q0 29 20 48.5t48 19.5q26 0 45.5 -17t22.5 -50q0 -30 -20 -69.5t-36 -62.5z" />
    <glyph glyph-name="parenleft" unicode="(" horiz-adv-x="226" 
d="M217 -175q-109 56 -161.5 183.5t-52.5 277.5q0 167 60 320t173 225l44 -50q-82 -110 -124.5 -250t-42.5 -279q0 -120 33 -225.5t101 -175.5z" />
    <glyph glyph-name="parenright" unicode=")" horiz-adv-x="225" 
d="M-4 -175l-31 26q68 70 101.5 175.5t33.5 226.5q0 138 -42.5 278t-124.5 250l44 50q113 -72 173 -225.5t60 -319.5q0 -150 -52.5 -277.5t-161.5 -183.5z" />
    <glyph glyph-name="asterisk" unicode="*" horiz-adv-x="175" 
d="M54 570v63l-45 -28l-33 51l59 33l-44 59l50 37l41 -59l28 58l57 -31l-23 -36l-17 -28l59 -9l-26 -66l-48 20l7 -53z" />
    <glyph glyph-name="plus" unicode="+" horiz-adv-x="242" 
d="M160 152h-92v113h-113v92h113v113h92v-113h114v-92h-114v-113z" />
    <glyph glyph-name="comma" unicode="," horiz-adv-x="236" 
d="M129 -172l-48 16l16 50q-21 7 -34 25t-13 40q0 28 20 47.5t48 19.5q25 0 45 -17t23 -49q0 -30 -20.5 -70t-36.5 -62z" />
    <glyph glyph-name="hyphen" unicode="-" horiz-adv-x="247" 
d="M277 265h-318v92h318v-92z" />
    <glyph glyph-name="hyphen" unicode="&#xad;" horiz-adv-x="247" 
d="M277 265h-318v92h318v-92z" />
    <glyph glyph-name="period" unicode="." horiz-adv-x="235" 
d="M118 -109q-29 0 -48.5 20t-19.5 48t19.5 47.5t48.5 19.5q28 0 47.5 -19.5t19.5 -47.5t-19.5 -48t-47.5 -20z" />
    <glyph glyph-name="slash" unicode="/" horiz-adv-x="317" 
d="M13 -83l-79 18l252 802l135 -44z" />
    <glyph glyph-name="zero" unicode="0" horiz-adv-x="538" 
d="M281 13q-109 0 -186 105t-77 254q0 148 77 253.5t186 105.5q108 0 185 -105.5t77 -253.5q0 -149 -77 -254t-185 -105zM289 147q44 0 80 54t46 137q2 22 2 43q0 70 -24 119q-27 52 -72 54q-44 0 -80 -54t-47 -137q-2 -21 -2 -40q0 -71 25 -120q26 -54 72 -56z" />
    <glyph glyph-name="one" unicode="1" horiz-adv-x="259" 
d="M238 13l-216 1v104h44l8 474l-59 -1l-19 140l251 5l-48 -620l39 -1v-102z" />
    <glyph glyph-name="two" unicode="2" horiz-adv-x="364" 
d="M341 0l-321 7l-24 47q26 49 73.5 151t89 209.5t41.5 166.5q0 44 -32 44q-27 0 -47 -29t-25 -54l-97 13q12 90 63 141.5t134 51.5l20 -1q40 -1 83 -29t59 -106q2 -14 2 -29q0 -65 -30.5 -146.5t-70 -157t-69.5 -124.5l-31 -50l86 2l2 22l103 2z" />
    <glyph glyph-name="three" unicode="3" horiz-adv-x="404" 
d="M179 -6q-77 0 -126 42.5t-49 128.5v10l94 -2q-4 -9 -4 -18q0 -21 20.5 -35t47.5 -14q33 0 65 27q35 31 37 108q0 43 -14.5 73t-36 49t-43 29t-35.5 14l-15 4l2 64l16 8q16 7 36.5 21t36.5 33.5t16 41.5q0 14 -7 28q-17 26 -43 26q-19 0 -39.5 -9t-38 -21t-28.5 -21
l-11 -9l-53 50q34 54 80.5 87t111.5 33q82 -1 117.5 -42.5t35.5 -91.5q0 -48 -25.5 -91.5t-69.5 -64.5q79 -33 115 -93t36 -126q0 -84 -51.5 -154t-143.5 -83q-18 -2 -34 -2z" />
    <glyph glyph-name="four" unicode="4" horiz-adv-x="408" 
d="M365 0l-117 2l-3 200l-231 5l34 262q33 264 33 275l112 -7l-65 -452l115 1l8 313l19 1q20 1 46 1.5t47 0.5q30 0 30 -2z" />
    <glyph glyph-name="five" unicode="5" horiz-adv-x="465" 
d="M244 -3h-4q-56 0 -106.5 26.5t-82.5 76.5t-32 121q0 19 3 39l79 -6q3 -63 35 -96t70 -33q40 0 73 36t33 111q-1 73 -32 117.5t-79 44.5q-44 0 -97 -43l-69 21l33 309l319 1l-5 -117h-109l1 18l-118 10l-16 -124q57 19 105 19q75 0 125.5 -39t76.5 -100.5t26 -128.5
q0 -65 -25 -125t-76 -97.5t-128 -40.5z" />
    <glyph glyph-name="six" unicode="6" horiz-adv-x="464" 
d="M256 8h-9q-83 0 -134 30t-75 81t-24 115q0 136 92.5 289t243.5 235l40 -77l-24 -13q-24 -13 -56.5 -40.5t-61 -71.5t-39.5 -106q26 4 49 4q70 0 119 -33.5t74 -86t25 -108.5q0 -54 -24 -103.5t-72.5 -80.5t-123.5 -34zM240 86q21 0 41 13.5t34 43.5q16 36 16 70
q0 57 -33 99.5t-77 42.5q-22 0 -44 -13q-25 -72 -25 -126l2 -30q7 -48 31.5 -74t54.5 -26z" />
    <glyph glyph-name="seven" unicode="7" horiz-adv-x="359" 
d="M236 6l-161 18q18 178 55.5 309.5t71.5 205.5l34 74l-141 1v-19l-113 6l-6 130l381 -7l27 -66q-50 -68 -79.5 -175t-44.5 -216t-20 -185z" />
    <glyph glyph-name="eight" unicode="8" horiz-adv-x="455" 
d="M225 -7q-101 0 -178 100q-37 47 -37 113q0 93 87 203l-7 19q-7 20 -14 51.5t-7 68.5q0 41 14.5 82t53.5 72t110 44q25 4 45 4q48 0 75.5 -19t39.5 -51t12 -70q0 -70 -27 -137.5t-54 -87.5l17 -15q17 -15 39.5 -42.5t39.5 -66.5t17 -87q-2 -83 -78 -134q-70 -47 -148 -47z
M263 454l8 8q8 7 18 22t18 38t8 54q-3 94 -89 94h-9q-40 -29 -40 -71q0 -26 13 -52t30 -47t30 -33zM250 119q33 0 48.5 15t20 32.5t4.5 26.5q0 15 -73 74l-74 57l-8 -10q-8 -10 -18.5 -27t-18.5 -38t-8 -42q0 -51 60 -74q41 -14 67 -14z" />
    <glyph glyph-name="nine" unicode="9" horiz-adv-x="460" 
d="M127 8l-40 77l24 13q24 13 56.5 40.5t61 71.5t39.5 105q-25 -4 -48 -4q-71 0 -119.5 33.5t-74 86t-25.5 109.5q0 54 24 103t74 81t132 33q82 0 133.5 -30t75 -81t23.5 -114q0 -137 -92.5 -289.5t-243.5 -234.5zM257 411q21 0 43 12q25 74 25 128l-2 28q-7 49 -32 75
t-55 26q-21 0 -41 -14t-34 -43q-16 -35 -16 -70q0 -57 33.5 -99.5t78.5 -42.5z" />
    <glyph glyph-name="colon" unicode=":" horiz-adv-x="106" 
d="M42 377q-28 0 -48 20t-20 48t20 48t48 20t47.5 -20t19.5 -48t-19.5 -48t-47.5 -20zM42 183q-28 0 -48 20t-20 48t20 48t48 20t47.5 -20t19.5 -48t-19.5 -48t-47.5 -20z" />
    <glyph glyph-name="semicolon" unicode=";" horiz-adv-x="110" 
d="M43 377q-28 0 -48 20t-20 48t20 48t48 20t48 -20t20 -48t-20 -48t-48 -20zM55 120l-49 16l16 51q-47 19 -47 64q0 29 20 48.5t48 19.5q26 0 45.5 -17t22.5 -50q0 -30 -20 -69.5t-36 -62.5z" />
    <glyph glyph-name="less" unicode="&#x3c;" horiz-adv-x="226" 
d="M170 93l-223 205v26l235 203l57 -72l-200 -139l203 -149z" />
    <glyph glyph-name="equal" unicode="=" horiz-adv-x="299" 
d="M292 345h-318v92h318v-92zM292 205h-318v92h318v-92z" />
    <glyph glyph-name="greater" unicode="&#x3e;" horiz-adv-x="245" 
d="M51 93l-73 74l203 149l-200 139l57 72l235 -203v-26z" />
    <glyph glyph-name="question" unicode="?" horiz-adv-x="446" 
d="M185 37q-5 34 -5 64q0 48 17 96q23 60 54 118q26 49 45.5 94.5t19.5 85.5q-6 77 -39 109q-30 29 -63 29t-59.5 -21.5t-31.5 -56.5l-1 -12q0 -38 24 -69.5t47 -31.5q5 0 10 2l-106 -124q-51 22 -76 66.5t-25 97.5q0 56 26.5 109.5t77.5 88.5t125 35q98 0 158 -55
q50 -47 58 -139l1 -19q0 -60 -25 -105.5t-59 -88.5q-41 -52 -73 -118q-20 -46 -20 -101v-11l-1 -30zM232 -125q-28 0 -47.5 20t-19.5 48t19.5 47.5t47.5 19.5t48 -19.5t20 -47.5t-20 -48t-48 -20z" />
    <glyph glyph-name="at" unicode="@" horiz-adv-x="714" 
d="M343 -74q-90 0 -170.5 38t-130.5 118.5t-50 209.5v24q8 155 104.5 268t251.5 123h14q138 0 230 -79.5t92 -209.5q0 -42 -11 -87q-14 -59 -41.5 -115t-66.5 -94t-87 -38q-46 3 -65 29q-17 22 -17 51q-19 -36 -50 -54.5t-65 -18.5q-40 0 -73.5 27.5t-44.5 85.5q-3 18 -3 36
q0 63 30 127.5t78 108t100 43.5q46 0 89 -44l13 31l98 -41l-8 -24q-7 -24 -17 -60t-18 -74t-8 -66q0 -39 19 -41q20 0 40.5 55t20.5 124q0 53 -18 104t-62 84t-122 33q-142 -5 -213 -107q-66 -94 -66 -203q0 -88 44.5 -162t135.5 -100q45 -12 85 -12q66 0 118.5 26
t89.5 65.5t60 81.5l82 -17q-42 -116 -153 -181t-235 -65zM335 226q65 0 91 146q-27 30 -52 30q-36 0 -62 -44.5t-26 -82.5q0 -49 49 -49z" />
    <glyph glyph-name="A" unicode="A" horiz-adv-x="456" 
d="M248 -35l-5 138h-123l-17 -126l-135 5l164 754l201 10l136 -737zM234 208l-36 368l-62 -366z" />
    <glyph glyph-name="B" unicode="B" horiz-adv-x="517" 
d="M200 -34q-60 0 -103 6l-43 7l2 605h-46l-7 155q97 15 173 15q125 0 197.5 -33.5t104 -87t31.5 -112.5q0 -93 -53.5 -173t-120.5 -97q123 -43 123 -128q-4 -68 -50 -103q-68 -54 -208 -54zM204 52q38 0 64.5 23t26.5 48q0 21 -22.5 37t-75.5 16l-5 -123zM201 266l21 13
q22 12 49.5 39t49 69t21.5 102q0 76 -120 85z" />
    <glyph glyph-name="C" unicode="C" horiz-adv-x="402" 
d="M244 -20q-65 0 -122.5 49t-93.5 129t-36 175q5 155 50 252q41 86 97.5 124.5t111.5 38.5q57 0 99 -35.5t49 -96.5l-80 -29q-20 36 -41 36q-36 0 -66 -84q-34 -99 -38 -211q0 -43 9.5 -100.5t30 -101.5t53.5 -44q31 0 75 53l53 -69q-68 -86 -151 -86z" />
    <glyph glyph-name="D" unicode="D" horiz-adv-x="506" 
d="M146 -1q-46 0 -96 10v582l-38 1l-8 150q61 11 114 11q132 0 217 -54t126 -139.5t41 -178.5q0 -95 -41 -182.5t-120.5 -143.5t-194.5 -56zM187 115q47 0 81 35t52.5 89.5t18.5 113.5q0 72 -31 135t-98 87l-25 -460h2z" />
    <glyph glyph-name="E" unicode="E" horiz-adv-x="447" 
d="M363 3l-308 9l-13 578l-32 2v149l428 1l-13 -174h-92l1 19l-133 3l-8 -304h110l-10 -91l-102 -1l-2 -84l182 4z" />
    <glyph glyph-name="F" unicode="F" horiz-adv-x="453" 
d="M181 -4l-126 4l-13 578l-32 3v148l428 1l-13 -234h-93l2 79l-133 3l-11 -299h115l-10 -91l-108 -1z" />
    <glyph glyph-name="G" unicode="G" horiz-adv-x="467" 
d="M335 110q11 21 14 58l-133 5l-3 107l249 15l-11 -316l-75 4l3 49q-27 -29 -60 -44q-38 -19 -78 -19h-2q-61 0 -118 37.5t-93.5 107t-36.5 166.5v11q5 159 46.5 256t101.5 140t118 43t100.5 -36.5t48.5 -99.5l-80 -27q-20 37 -41 37q-37 0 -68 -83.5t-41 -189.5
q-3 -36 -3 -70q0 -63 17 -113t62 -77q7 -4 15 -4q12 0 24.5 7t23 16.5t17.5 16.5z" />
    <glyph glyph-name="H" unicode="H" horiz-adv-x="551" 
d="M321 -35l2 190l-116 -1l-4 -147l-155 -3l-15 564h-17l5 145l199 10l-11 -477h116l6 497l195 -6l-48 -769z" />
    <glyph glyph-name="I" unicode="I" horiz-adv-x="267" 
d="M191 1l-155 5l15 564l-42 2l13 145l223 -2z" />
    <glyph glyph-name="J" unicode="J" horiz-adv-x="482" 
d="M205 -31q-99 2 -148.5 42.5t-64.5 95.5t-15 98q0 25 2 41l2 16l167 1l-4 -17q-4 -17 -8.5 -43t-4.5 -54q0 -98 66 -98l18 2q87 23 87 279q0 91 -8 163l-7 72l-38 -1l-13 149l205 14l6 -99q9 -111 9 -221q0 -78 -9 -149q-16 -116 -66 -194q-62 -97 -176 -97z" />
    <glyph glyph-name="K" unicode="K" horiz-adv-x="479" 
d="M332 -39l-109 241q-16 -10 -34 -18l-2 -194l-137 5l-12 579l-25 1v154h182l-4 -412q53 72 79 148t33.5 141t7.5 102q0 35 -1 37l166 -11q-10 -108 -54 -242t-128 -231l148 -216z" />
    <glyph glyph-name="L" unicode="L" horiz-adv-x="389" 
d="M406 -3l-391 8l-2 103l25 2l4 477l-23 1v136l205 -7l-41 -596l221 4z" />
    <glyph glyph-name="M" unicode="M" horiz-adv-x="676" 
d="M61 -30l-24 579l-15 -1l-13 174l197 12l141 -512l108 498l194 2l-33 -740l-148 4l-6 333l-86 -254l-78 -4l-89 252l3 -335z" />
    <glyph glyph-name="N" unicode="N" horiz-adv-x="563" 
d="M153 -23l-120 2l1 608h-16l2 133l187 3l192 -475l5 475h134l-45 -741h-171l-160 379z" />
    <glyph glyph-name="O" unicode="O" horiz-adv-x="534" 
d="M260 11q-111 0 -190 104t-79 252q0 147 79 251.5t190 104.5t190 -104.5t79 -251.5q0 -148 -79 -252t-190 -104zM241 158q44 0 79.5 67.5t45.5 168.5q2 24 2 46q0 80 -24.5 125.5t-67.5 46.5q-44 0 -79.5 -67.5t-45.5 -168.5q-2 -24 -2 -46q0 -80 24.5 -125.5t67.5 -46.5z
" />
    <glyph glyph-name="P" unicode="P" horiz-adv-x="495" 
d="M172 -3l-122 1l-10 577h-24l-5 148q69 10 127 10q126 0 204.5 -38.5t115 -99.5t36.5 -130q0 -112 -83.5 -208.5t-225.5 -108.5zM197 258q66 19 103 71t37 107q0 48 -30.5 86t-95.5 48z" />
    <glyph glyph-name="Q" unicode="Q" horiz-adv-x="538" 
d="M381 -8l-31 50q-42 -19 -88 -19q-112 0 -190.5 104t-78.5 252q0 147 78.5 251.5t190.5 104.5q111 0 190 -104.5t79 -251.5q0 -85 -27.5 -157.5t-74.5 -121.5l35 -51zM242 170q14 0 26 7l-24 39l69 50l14 -20q31 65 40 160q2 25 2 47q0 80 -24 125t-67 46q-44 0 -80 -67.5
t-45 -168.5q-2 -24 -2 -46q0 -80 24.5 -125.5t66.5 -46.5z" />
    <glyph glyph-name="R" unicode="R" horiz-adv-x="498" 
d="M315 -13l-77 168q-25 -6 -52 -7l-13 -151l-122 1l-10 577h-25l-4 148q69 10 127 10q126 0 204.5 -38.5t115 -99.5t36.5 -130q0 -74 -37.5 -144t-104.5 -117l93 -138zM198 258q66 19 103 71t37 107q0 48 -30.5 86t-95.5 48z" />
    <glyph glyph-name="S" unicode="S" horiz-adv-x="460" 
d="M219 -4q-52 0 -100 20.5t-79 61.5t-31 102q0 44 20 99l167 -54q-15 -30 -15 -50q0 -21 10 -31t18 -11l7 -1q15 0 28.5 12.5t13.5 32.5q0 24 -29 55q-24 22 -60 46q-56 37 -107 89.5t-58 135.5v10q0 50 23 98t69.5 79.5t118.5 31.5q97 -4 151 -39q87 -55 87 -170
q0 -57 -20 -114l-162 19q14 25 14 59q0 32 -17 60t-59 28q-29 -1 -43 -19.5t-14 -42.5q0 -60 112 -134q56 -38 101 -85q49 -51 50 -118q0 -57 -28.5 -95t-73 -56.5t-94.5 -18.5z" />
    <glyph glyph-name="T" unicode="T" horiz-adv-x="510" 
d="M328 -17l-143 2l-15 632l-86 -2l-2 -36l-81 3l-5 127l500 13l-2 -131h-53l-2 30l-93 -2z" />
    <glyph glyph-name="U" unicode="U" horiz-adv-x="520" 
d="M252 4h-7q-92 6 -140 67.5t-64.5 149.5t-16.5 169q0 74 7 125l6 51l-19 1l11 162h212l-8 -66q-9 -67 -17.5 -163t-8.5 -185q0 -194 52 -194q7 0 14 3q38 19 58.5 87t27.5 159t7 174q0 76 -3 128l-3 53l130 1l2 -35q2 -36 2 -92q0 -284 -65 -445q-60 -150 -177 -150z" />
    <glyph glyph-name="V" unicode="V" horiz-adv-x="490" 
d="M160 1l-125 557l-19 -3l-19 166l183 19l78 -515l126 510l107 -22l-205 -698z" />
    <glyph glyph-name="W" unicode="W" horiz-adv-x="710" 
d="M221 -11h-2q-54 0 -89.5 44.5t-58 116t-34 155.5t-15 165t-3.5 143q0 98 2 108h179l-3 -48q-3 -48 -5.5 -122t-2.5 -152q0 -270 42 -270q27 0 44.5 61.5t28.5 140t15 140.5l5 61l140 15l-2 -45q-2 -45 -2 -106q0 -251 43 -266h1q18 0 29.5 60.5t18.5 148.5t11 176t5 148
l1 61l115 1l1 -57q0 -209 -29 -382q-42 -255 -153 -284q-10 -2 -20 -2q-50 0 -78.5 52.5t-43.5 133.5q-19 -90 -56 -142.5t-84 -54.5z" />
    <glyph glyph-name="X" unicode="X" horiz-adv-x="475" 
d="M365 -24l-139 267l-121 -248l-84 43l157 306l-119 223l-15 -11l-61 135q51 24 109 44l38 14l128 -258l117 254l93 -41l-161 -310l177 -336z" />
    <glyph glyph-name="Y" unicode="Y" horiz-adv-x="566" 
d="M276 1q-79 0 -140 56.5t-61 130.5q0 16 3 32l143 -30q-4 -11 -4 -21q0 -28 22 -46.5t51 -18.5q24 0 47.5 15.5t39.5 52t19 96.5q-75 -48 -141 -48q-94 0 -157 80.5t-63 203.5l2 40l-31 2l14 183l223 -7q-30 -123 -30 -234q0 -158 81 -158l10 1q85 13 85 185q0 61 -7 117
q-6 43 -13 83l161 10q11 -114 11 -208q0 -146 -23 -245.5t-62 -159t-86 -86t-94 -26.5z" />
    <glyph glyph-name="Z" unicode="Z" horiz-adv-x="424" 
d="M415 6l-418 5l221 612l-66 6l-3 -24l-151 20l5 112l416 -24l-224 -600l212 14z" />
    <glyph glyph-name="bracketleft" unicode="[" horiz-adv-x="238" 
d="M206 -150h-192l-14 920l238 -1l-6 -88l-108 5l-17 -773l94 5z" />
    <glyph glyph-name="backslash" unicode="\" horiz-adv-x="386" 
d="M307 -83l-307 776l134 44l252 -802z" />
    <glyph glyph-name="bracketright" unicode="]" horiz-adv-x="238" 
d="M191 -157l-191 7l7 68l93 -9l11 773h-108l-3 88l238 -8z" />
    <glyph glyph-name="asciicircum" unicode="^" horiz-adv-x="257" 
d="M190 661l-57 108l-62 -107l-71 32l114 161l38 -2l105 -152z" />
    <glyph glyph-name="underscore" unicode="_" horiz-adv-x="541" 
d="M541 -47h-541v92h541v-92z" />
    <glyph glyph-name="grave" unicode="`" horiz-adv-x="145" 
d="M96 665l-96 169l77 35l68 -168z" />
    <glyph glyph-name="a" unicode="a" horiz-adv-x="457" 
d="M252 -35l-5 138h-123l-17 -126l-135 5l164 754l201 10l136 -737zM238 208l-36 368l-62 -366z" />
    <glyph glyph-name="b" unicode="b" horiz-adv-x="521" 
d="M206 -34q-60 0 -103 6l-43 7l2 605h-46l-7 155q97 15 173 15q125 0 197.5 -33.5t104 -87t31.5 -112.5q0 -93 -53.5 -173t-120.5 -97q123 -43 123 -128q-4 -68 -50 -103q-68 -54 -208 -54zM210 52q38 0 64.5 23t26.5 48q0 21 -22.5 37t-75.5 16l-5 -123zM207 266l21 13
q22 12 49.5 39t49 69t21.5 102q0 76 -120 85z" />
    <glyph glyph-name="c" unicode="c" horiz-adv-x="405" 
d="M249 -20q-65 0 -122.5 49t-93.5 129t-36 175q5 155 50 252q41 86 97.5 124.5t111.5 38.5q57 0 99 -35.5t49 -96.5l-80 -29q-20 36 -41 36q-36 0 -66 -84q-34 -99 -38 -211q0 -43 9.5 -100.5t30 -101.5t53.5 -44q31 0 75 53l53 -69q-68 -86 -151 -86z" />
    <glyph glyph-name="d" unicode="d" horiz-adv-x="508" 
d="M151 -1q-46 0 -96 10v582l-38 1l-8 150q61 11 114 11q132 0 217 -54t126 -139.5t41 -178.5q0 -95 -41 -182.5t-120.5 -143.5t-194.5 -56zM192 115q47 0 81 35t52.5 89.5t18.5 113.5q0 72 -31 135t-98 87l-25 -460h2z" />
    <glyph glyph-name="e" unicode="e" horiz-adv-x="449" 
d="M368 3l-308 9l-13 578l-32 2v149l428 1l-13 -174h-92l1 19l-133 3l-8 -304h110l-10 -91l-102 -1l-2 -84l182 4z" />
    <glyph glyph-name="f" unicode="f" horiz-adv-x="457" 
d="M187 -4l-126 4l-13 578l-32 3v148l428 1l-13 -234h-93l2 79l-133 3l-11 -299h115l-10 -91l-108 -1z" />
    <glyph glyph-name="g" unicode="g" horiz-adv-x="470" 
d="M341 110q11 21 14 58l-133 5l-3 107l249 15l-11 -316l-75 4l3 49q-27 -29 -60 -44q-38 -19 -78 -19h-2q-61 0 -118 37.5t-93.5 107t-36.5 166.5v11q5 159 46.5 256t101.5 140t118 43t100.5 -36.5t48.5 -99.5l-80 -27q-20 37 -41 37q-37 0 -68 -83.5t-41 -189.5
q-3 -36 -3 -70q0 -63 17 -113t62 -77q7 -4 15 -4q12 0 24.5 7t23 16.5t17.5 16.5z" />
    <glyph glyph-name="h" unicode="h" horiz-adv-x="553" 
d="M326 -35l2 190l-116 -1l-4 -147l-155 -3l-15 564h-17l5 145l199 10l-11 -477h116l6 497l195 -6l-48 -769z" />
    <glyph glyph-name="i" unicode="i" horiz-adv-x="269" 
d="M196 1l-155 5l15 564l-42 2l13 145l223 -2z" />
    <glyph glyph-name="j" unicode="j" horiz-adv-x="484" 
d="M209 -31q-99 2 -148.5 42.5t-64.5 95.5t-15 98q0 25 2 41l2 16l167 1l-4 -17q-4 -17 -8.5 -43t-4.5 -54q0 -98 66 -98l18 2q87 23 87 279q0 91 -8 163l-7 72l-38 -1l-13 149l205 14l6 -99q9 -111 9 -221q0 -78 -9 -149q-16 -116 -66 -194q-62 -97 -176 -97z" />
    <glyph glyph-name="k" unicode="k" horiz-adv-x="483" 
d="M338 -39l-109 241q-16 -10 -34 -18l-2 -194l-137 5l-12 579l-25 1v154h182l-4 -412q53 72 79 148t33.5 141t7.5 102q0 35 -1 37l166 -11q-10 -108 -54 -242t-128 -231l148 -216z" />
    <glyph glyph-name="l" unicode="l" horiz-adv-x="392" 
d="M412 -3l-391 8l-2 103l25 2l4 477l-23 1v136l205 -7l-41 -596l221 4z" />
    <glyph glyph-name="m" unicode="m" horiz-adv-x="678" 
d="M66 -30l-24 579l-15 -1l-13 174l197 12l141 -512l108 498l194 2l-33 -740l-148 4l-6 333l-86 -254l-78 -4l-89 252l3 -335z" />
    <glyph glyph-name="n" unicode="n" horiz-adv-x="566" 
d="M159 -23l-120 2l1 608h-16l2 133l187 3l192 -475l5 475h134l-45 -741h-171l-160 379z" />
    <glyph glyph-name="o" unicode="o" horiz-adv-x="538" 
d="M266 11q-111 0 -190 104t-79 252q0 147 79 251.5t190 104.5t190 -104.5t79 -251.5q0 -148 -79 -252t-190 -104zM247 158q44 0 79.5 67.5t45.5 168.5q2 24 2 46q0 80 -24.5 125.5t-67.5 46.5q-44 0 -79.5 -67.5t-45.5 -168.5q-2 -24 -2 -46q0 -80 24.5 -125.5t67.5 -46.5z
" />
    <glyph glyph-name="p" unicode="p" horiz-adv-x="499" 
d="M178 -3l-122 1l-10 577h-24l-5 148q69 10 127 10q126 0 204.5 -38.5t115 -99.5t36.5 -130q0 -112 -83.5 -208.5t-225.5 -108.5zM203 258q66 19 103 71t37 107q0 48 -30.5 86t-95.5 48z" />
    <glyph glyph-name="q" unicode="q" horiz-adv-x="541" 
d="M386 -8l-31 50q-42 -19 -88 -19q-112 0 -190.5 104t-78.5 252q0 147 78.5 251.5t190.5 104.5q111 0 190 -104.5t79 -251.5q0 -85 -27.5 -157.5t-74.5 -121.5l35 -51zM247 170q14 0 26 7l-24 39l69 50l14 -20q31 65 40 160q2 25 2 47q0 80 -24 125t-67 46q-44 0 -80 -67.5
t-45 -168.5q-2 -24 -2 -46q0 -80 24.5 -125.5t66.5 -46.5z" />
    <glyph glyph-name="r" unicode="r" horiz-adv-x="500" 
d="M320 -13l-77 168q-25 -6 -52 -7l-13 -151l-122 1l-10 577h-25l-4 148q69 10 127 10q126 0 204.5 -38.5t115 -99.5t36.5 -130q0 -74 -37.5 -144t-104.5 -117l93 -138zM203 258q66 19 103 71t37 107q0 48 -30.5 86t-95.5 48z" />
    <glyph glyph-name="s" unicode="s" horiz-adv-x="464" 
d="M225 -4q-52 0 -100 20.5t-79 61.5t-31 102q0 44 20 99l167 -54q-15 -30 -15 -50q0 -21 10 -31t18 -11l7 -1q15 0 28.5 12.5t13.5 32.5q0 24 -29 55q-24 22 -60 46q-56 37 -107 89.5t-58 135.5v10q0 50 23 98t69.5 79.5t118.5 31.5q97 -4 151 -39q87 -55 87 -170
q0 -57 -20 -114l-162 19q14 25 14 59q0 32 -17 60t-59 28q-29 -1 -43 -19.5t-14 -42.5q0 -60 112 -134q56 -38 101 -85q49 -51 50 -118q0 -57 -28.5 -95t-73 -56.5t-94.5 -18.5z" />
    <glyph glyph-name="t" unicode="t" horiz-adv-x="513" 
d="M334 -17l-143 2l-15 632l-86 -2l-2 -36l-81 3l-5 127l500 13l-2 -131h-53l-2 30l-93 -2z" />
    <glyph glyph-name="u" unicode="u" horiz-adv-x="523" 
d="M257 4h-7q-92 6 -140 67.5t-64.5 149.5t-16.5 169q0 74 7 125l6 51l-19 1l11 162h212l-8 -66q-9 -67 -17.5 -163t-8.5 -185q0 -194 52 -194q7 0 14 3q38 19 58.5 87t27.5 159t7 174q0 76 -3 128l-3 53l130 1l2 -35q2 -36 2 -92q0 -284 -65 -445q-60 -150 -177 -150z" />
    <glyph glyph-name="v" unicode="v" horiz-adv-x="493" 
d="M165 1l-125 557l-19 -3l-19 166l183 19l78 -515l126 510l107 -22l-205 -698z" />
    <glyph glyph-name="w" unicode="w" horiz-adv-x="714" 
d="M227 -11h-2q-54 0 -89.5 44.5t-58 116t-34 155.5t-15 165t-3.5 143q0 98 2 108h179l-3 -48q-3 -48 -5.5 -122t-2.5 -152q0 -270 42 -270q27 0 44.5 61.5t28.5 140t15 140.5l5 61l140 15l-2 -45q-2 -45 -2 -106q0 -251 43 -266h1q18 0 29.5 60.5t18.5 148.5t11 176t5 148
l1 61l115 1l1 -57q0 -209 -29 -382q-42 -255 -153 -284q-10 -2 -20 -2q-50 0 -78.5 52.5t-43.5 133.5q-19 -90 -56 -142.5t-84 -54.5z" />
    <glyph glyph-name="x" unicode="x" horiz-adv-x="475" 
d="M369 -24l-139 267l-121 -248l-84 43l157 306l-119 223l-15 -11l-61 135q51 24 109 44l38 14l128 -258l117 254l93 -41l-161 -310l177 -336z" />
    <glyph glyph-name="y" unicode="y" horiz-adv-x="569" 
d="M281 1q-79 0 -140 56.5t-61 130.5q0 16 3 32l143 -30q-4 -11 -4 -21q0 -28 22 -46.5t51 -18.5q24 0 47.5 15.5t39.5 52t19 96.5q-75 -48 -141 -48q-94 0 -157 80.5t-63 203.5l2 40l-31 2l14 183l223 -7q-30 -123 -30 -234q0 -158 81 -158l10 1q85 13 85 185q0 61 -7 117
q-6 43 -13 83l161 10q11 -114 11 -208q0 -146 -23 -245.5t-62 -159t-86 -86t-94 -26.5z" />
    <glyph glyph-name="z" unicode="z" horiz-adv-x="427" 
d="M421 6l-418 5l221 612l-66 6l-3 -24l-151 20l5 112l416 -24l-224 -600l212 14z" />
    <glyph glyph-name="braceleft" unicode="{" horiz-adv-x="293" 
d="M238 -184l-18 8q-19 7 -43.5 26.5t-46 55t-28.5 90.5q-4 45 -4 93l1 25q0 62 -14.5 120.5t-84.5 86.5l14 39l9 -1q37 0 65 58q24 61 25 122q2 46 14 94q35 135 134 170l32 -40l-11 -9q-11 -10 -25.5 -33t-27.5 -62t-19 -98q-11 -115 -36 -161t-54 -66l7 -3
q7 -4 16.5 -13.5t19.5 -27.5t17 -45.5t7 -67.5l-2 -76q0 -118 17.5 -174.5t53.5 -81.5z" />
    <glyph glyph-name="bar" unicode="|" horiz-adv-x="126" 
d="M105 -150h-91l-14 920h126z" />
    <glyph glyph-name="braceright" unicode="}" horiz-adv-x="293" 
d="M55 -184l-18 29q36 25 53.5 81.5t17.5 174.5l-2 76q0 40 7 67.5t17 45.5t19.5 27.5t16.5 13.5l7 3q-29 20 -54 66t-36 161q-6 59 -19 98t-27.5 62t-25.5 33l-11 9l32 40q54 -19 87 -65q56 -81 61 -199q1 -61 25 -122q28 -58 65 -58l9 1l14 -39q-70 -28 -86 -92
q-12 -53 -12 -115v-25q0 -48 -4 -93q-7 -55 -28.5 -90.5t-46 -55t-42.5 -26.5z" />
    <glyph glyph-name="asciitilde" unicode="~" horiz-adv-x="430" 
d="M340 363q-43 0 -121 30q-54 20 -76 20q-52 0 -85 -49l-58 81q20 32 54 50.5t72 18.5q27 0 53 -11l30 -14q25 -12 50.5 -22.5t49.5 -10.5q50 0 72 62l49 -97q-26 -58 -90 -58z" />
    <glyph glyph-name="exclamdown" unicode="&#xa1;" horiz-adv-x="179" 
d="M179 -138l-179 5l3 153h20l3 505l110 7zM81 569q-28 0 -48 20t-20 48t20 48t48 20t47.5 -20t19.5 -48t-19.5 -48t-47.5 -20z" />
    <glyph glyph-name="cent" unicode="&#xa2;" horiz-adv-x="393" 
d="M285 -90l-94 2l5 76q-82 22 -139 106.5t-57 192.5l1 31q16 151 73.5 228.5t127.5 95.5l-5 93l94 2l-7 -91q95 -21 109 -114l-76 -24q-19 31 -39 31q-35 0 -64.5 -72t-39.5 -163q-3 -31 -3 -60q0 -54 16 -98t59 -67q7 -4 15 -4q20 0 46 21l22 20l49 -61q-48 -52 -99 -65z
" />
    <glyph glyph-name="sterling" unicode="&#xa3;" 
 />
    <glyph glyph-name="currency" unicode="&#xa4;" horiz-adv-x="411" 
d="M350 -26l-62 84q-40 -30 -87 -30q-41 0 -76 23l-57 -77l-61 60l65 69q-52 72 -52 172q0 98 49 169l-69 72l61 60l59 -79q37 26 81 26q45 0 83 -27l60 80l60 -60l-69 -73q47 -71 47 -168q0 -93 -45 -163l74 -78zM207 121q30 0 55 37t32 94l2 30q0 48 -17.5 82.5
t-49.5 36.5q-30 0 -55 -37t-32 -94l-2 -30q0 -48 17.5 -82.5t49.5 -36.5z" />
    <glyph glyph-name="yen" unicode="&#xa5;" 
 />
    <glyph glyph-name="brokenbar" unicode="&#xa6;" 
 />
    <glyph glyph-name="section" unicode="&#xa7;" 
 />
    <glyph glyph-name="dieresis" unicode="&#xa8;" horiz-adv-x="286" 
d="M68 694q-28 0 -48 19.5t-20 47.5q0 29 20 48.5t48 19.5t48 -19.5t20 -48.5q0 -28 -20 -47.5t-48 -19.5zM218 694q-28 0 -48 19.5t-20 47.5q0 29 20 48.5t48 19.5t48 -19.5t20 -48.5q0 -28 -20 -47.5t-48 -19.5z" />
    <glyph glyph-name="copyright" unicode="&#xa9;" 
 />
    <glyph glyph-name="ordfeminine" unicode="&#xaa;" 
 />
    <glyph glyph-name="guillemotleft" unicode="&#xab;" 
 />
    <glyph glyph-name="logicalnot" unicode="&#xac;" 
 />
    <glyph glyph-name="registered" unicode="&#xae;" 
 />
    <glyph glyph-name="macron" unicode="&#xaf;" 
 />
    <glyph glyph-name="degree" unicode="&#xb0;" horiz-adv-x="189" 
d="M95 670q-39 0 -67 27.5t-28 66.5t28 66.5t67 27.5t66.5 -27.5t27.5 -66.5t-27.5 -66.5t-66.5 -27.5zM95 735q12 0 20.5 8.5t8.5 20.5t-8.5 20.5t-20.5 8.5t-20.5 -8.5t-8.5 -20.5t8.5 -20.5t20.5 -8.5z" />
    <glyph glyph-name="plusminus" unicode="&#xb1;" 
 />
    <glyph glyph-name="uni00B2" unicode="&#xb2;" 
 />
    <glyph glyph-name="uni00B3" unicode="&#xb3;" 
 />
    <glyph glyph-name="acute" unicode="&#xb4;" horiz-adv-x="145" 
d="M49 665l-49 36l68 168l77 -35z" />
    <glyph glyph-name="mu" unicode="&#xb5;" 
 />
    <glyph glyph-name="paragraph" unicode="&#xb6;" 
 />
    <glyph glyph-name="periodcentered" unicode="&#xb7;" horiz-adv-x="135" 
d="M68 281q-29 0 -48.5 20t-19.5 48t19.5 47.5t48.5 19.5q28 0 47.5 -19.5t19.5 -47.5t-19.5 -48t-47.5 -20z" />
    <glyph glyph-name="periodcentered" unicode="&#x2219;" horiz-adv-x="135" 
d="M68 281q-29 0 -48.5 20t-19.5 48t19.5 47.5t48.5 19.5q28 0 47.5 -19.5t19.5 -47.5t-19.5 -48t-47.5 -20z" />
    <glyph glyph-name="cedilla" unicode="&#xb8;" horiz-adv-x="167" 
d="M80 -57q-31 0 -55.5 19.5t-24.5 57.5v4l7 9q6 -11 17.5 -16.5t23.5 -5.5q15 0 26.5 8.5t11.5 27.5q-2 23 -16.5 34t-32 13.5t-26.5 2.5h-5l22 95h45l-8 -67h11q47 0 69 -29t22 -64q-2 -45 -29 -67t-58 -22z" />
    <glyph glyph-name="uni00B9" unicode="&#xb9;" 
 />
    <glyph glyph-name="ordmasculine" unicode="&#xba;" 
 />
    <glyph glyph-name="guillemotright" unicode="&#xbb;" 
 />
    <glyph glyph-name="onequarter" unicode="&#xbc;" 
 />
    <glyph glyph-name="onehalf" unicode="&#xbd;" 
 />
    <glyph glyph-name="threequarters" unicode="&#xbe;" 
 />
    <glyph glyph-name="questiondown" unicode="&#xbf;" horiz-adv-x="447" 
d="M218 -125q-98 0 -158 56q-51 46 -59 138l-1 18q0 60 25.5 105.5t59.5 89.5q41 52 73 118q20 46 20 101v11l1 30l79 13q4 -32 4 -62q0 -49 -16 -98q-23 -60 -54 -118q-26 -49 -45.5 -94.5t-19.5 -85.5q6 -77 39 -109q30 -29 63 -29t59.5 21.5t31.5 56.5l1 11q0 38 -24 70
t-47 32q-5 0 -10 -2l105 124q52 -22 77 -66.5t25 -98.5q0 -55 -26.5 -108.5t-77.5 -88.5t-125 -35zM210 582q-28 0 -47.5 19.5t-19.5 47.5t19.5 48t47.5 20t48 -20t20 -48t-20 -47.5t-48 -19.5z" />
    <glyph glyph-name="Agrave" unicode="&#xc0;" horiz-adv-x="456" 
d="M248 -35l-5 138h-123l-17 -126l-135 5l164 754l201 10l136 -737zM234 208l-36 368l-62 -366zM250 785l-96 169l77 35l68 -168z" />
    <glyph glyph-name="Aacute" unicode="&#xc1;" horiz-adv-x="456" 
d="M248 -35l-5 138h-123l-17 -126l-135 5l164 754l201 10l136 -737zM234 208l-36 368l-62 -366zM244 792l-49 36l68 168l77 -35z" />
    <glyph glyph-name="Acircumflex" unicode="&#xc2;" horiz-adv-x="456" 
d="M248 -35l-5 138h-123l-17 -126l-135 5l164 754l201 10l136 -737zM234 208l-36 368l-62 -366zM302 783l-57 108l-62 -107l-71 32l114 161l38 -2l105 -152z" />
    <glyph glyph-name="Atilde" unicode="&#xc3;" horiz-adv-x="456" 
d="M248 -35l-5 138h-123l-17 -126l-135 5l164 754l201 10l136 -737zM234 208l-36 368l-62 -366zM118 776l-36 62q13 22 36 34.5t48 12.5q23 -1 58 -17q45 -20 69 -20q32 0 48 33l25 -61q-19 -41 -57 -41q-29 0 -61 14l-14 5q-29 11 -57 11q-39 0 -59 -33z" />
    <glyph glyph-name="Adieresis" unicode="&#xc4;" horiz-adv-x="456" 
d="M248 -35l-5 138h-123l-17 -126l-135 5l164 754l201 10l136 -737zM234 208l-36 368l-62 -366zM155 785q-28 0 -48 19.5t-20 47.5q0 29 20 48.5t48 19.5t48 -19.5t20 -48.5q0 -28 -20 -47.5t-48 -19.5zM305 785q-28 0 -48 19.5t-20 47.5q0 29 20 48.5t48 19.5t48 -19.5
t20 -48.5q0 -28 -20 -47.5t-48 -19.5z" />
    <glyph glyph-name="Aring" unicode="&#xc5;" horiz-adv-x="456" 
d="M248 -35l-5 138h-123l-17 -126l-135 5l164 754l201 10l136 -737zM234 208l-36 368l-62 -366zM222 780q-39 0 -67 27.5t-28 66.5t28 66.5t67 27.5t66.5 -27.5t27.5 -66.5t-27.5 -66.5t-66.5 -27.5zM222 845q12 0 20.5 8.5t8.5 20.5t-8.5 20.5t-20.5 8.5t-20.5 -8.5
t-8.5 -20.5t8.5 -20.5t20.5 -8.5z" />
    <glyph glyph-name="AE" unicode="&#xc6;" horiz-adv-x="692" 
d="M234 208l-36 368l-62 -366zM463 8l-215 -43l-5 138h-123l-17 -126l-135 5l164 754l201 10l1 -5l369 1l-13 -174h-93l2 19l-134 3l-7 -304h110l-10 -91l-102 -1l-2 -84l182 4l-9 -111z" />
    <glyph glyph-name="Ccedilla" unicode="&#xc7;" horiz-adv-x="402" 
d="M183 -9q-32 13 -61 38q-58 49 -94 129t-36 175l1 25q9 141 49.5 227t97 124.5t111.5 38.5q57 0 99 -35.5t49 -96.5l-80 -29q-20 36 -41 36q-36 0 -65.5 -84.5t-37.5 -190.5l-1 -20q0 -43 9.5 -100.5t30 -101.5t53.5 -44q31 0 75 53l53 -69q-35 -45 -74 -65.5t-77 -20.5
h-13l-2 -16h11q47 0 69 -29t22 -63v-2q-2 -44 -29 -66t-58 -22t-55.5 19.5t-24.5 57.5v4l7 9q6 -11 17.5 -16.5t23.5 -5.5q15 0 26.5 8.5t11.5 26.5v2q-2 22 -16.5 33t-32 13.5t-26.5 2.5h-5z" />
    <glyph glyph-name="Egrave" unicode="&#xc8;" horiz-adv-x="447" 
d="M363 3l-308 9l-13 578l-32 2v149l428 1l-13 -174h-92l1 19l-133 3l-8 -304h110l-10 -91l-102 -1l-2 -84l182 4zM229 790l-96 169l77 35l68 -168z" />
    <glyph glyph-name="Eacute" unicode="&#xc9;" horiz-adv-x="447" 
d="M363 3l-308 9l-13 578l-32 2v149l428 1l-13 -174h-92l1 19l-133 3l-8 -304h110l-10 -91l-102 -1l-2 -84l182 4zM213 787l-49 36l68 168l77 -35z" />
    <glyph glyph-name="Ecircumflex" unicode="&#xca;" horiz-adv-x="447" 
d="M363 3l-308 9l-13 578l-32 2v149l428 1l-13 -174h-92l1 19l-133 3l-8 -304h110l-10 -91l-102 -1l-2 -84l182 4zM286 792l-57 108l-62 -107l-71 32l114 161l38 -2l105 -152z" />
    <glyph glyph-name="Edieresis" unicode="&#xcb;" horiz-adv-x="447" 
d="M363 3l-308 9l-13 578l-32 2v149l428 1l-13 -174h-92l1 19l-133 3l-8 -304h110l-10 -91l-102 -1l-2 -84l182 4zM149 781q-28 0 -48 19.5t-20 47.5q0 29 20 48.5t48 19.5t48 -19.5t20 -48.5q0 -28 -20 -47.5t-48 -19.5zM299 781q-28 0 -48 19.5t-20 47.5q0 29 20 48.5
t48 19.5t48 -19.5t20 -48.5q0 -28 -20 -47.5t-48 -19.5z" />
    <glyph glyph-name="Igrave" unicode="&#xcc;" horiz-adv-x="267" 
d="M191 1l-155 5l15 564l-42 2l13 145l223 -2zM151 759l-96 169l77 35l68 -168z" />
    <glyph glyph-name="Iacute" unicode="&#xcd;" horiz-adv-x="267" 
d="M191 1l-155 5l15 564l-42 2l13 145l223 -2zM124 777l-49 36l68 168l77 -35z" />
    <glyph glyph-name="Icircumflex" unicode="&#xce;" horiz-adv-x="267" 
d="M191 1l-155 5l15 564l-42 2l13 145l223 -2zM197 771l-57 108l-62 -107l-71 32l114 161l38 -2l105 -152z" />
    <glyph glyph-name="Idieresis" unicode="&#xcf;" horiz-adv-x="267" 
d="M191 1l-155 5l15 564l-42 2l13 145l223 -2zM56 758q-28 0 -48 19.5t-20 47.5q0 29 20 48.5t48 19.5t48 -19.5t20 -48.5q0 -28 -20 -47.5t-48 -19.5zM206 758q-28 0 -48 19.5t-20 47.5q0 29 20 48.5t48 19.5t48 -19.5t20 -48.5q0 -28 -20 -47.5t-48 -19.5z" />
    <glyph glyph-name="Eth" unicode="&#xd0;" horiz-adv-x="506" 
 />
    <glyph glyph-name="Ntilde" unicode="&#xd1;" horiz-adv-x="563" 
d="M153 -23l-120 2l1 608h-16l2 133l187 3l192 -475l5 475h134l-45 -741h-171l-160 379zM172 755l-36 62q13 22 36 34.5t48 12.5q23 -1 58 -17q45 -20 69 -20q32 0 48 33l25 -61q-19 -41 -57 -41q-29 0 -61 14l-14 5q-29 11 -57 11q-39 0 -59 -33z" />
    <glyph glyph-name="Ograve" unicode="&#xd2;" horiz-adv-x="534" 
d="M260 11q-111 0 -190 104t-79 252q0 147 79 251.5t190 104.5t190 -104.5t79 -251.5q0 -148 -79 -252t-190 -104zM241 158q44 0 79.5 67.5t45.5 168.5q2 24 2 46q0 80 -24.5 125.5t-67.5 46.5q-44 0 -79.5 -67.5t-45.5 -168.5q-2 -24 -2 -46q0 -80 24.5 -125.5t67.5 -46.5z
M260 773l-96 169l77 35l68 -168z" />
    <glyph glyph-name="Oacute" unicode="&#xd3;" horiz-adv-x="534" 
d="M260 11q-111 0 -190 104t-79 252q0 147 79 251.5t190 104.5t190 -104.5t79 -251.5q0 -148 -79 -252t-190 -104zM241 158q44 0 79.5 67.5t45.5 168.5q2 24 2 46q0 80 -24.5 125.5t-67.5 46.5q-44 0 -79.5 -67.5t-45.5 -168.5q-2 -24 -2 -46q0 -80 24.5 -125.5t67.5 -46.5z
M260 779l-49 36l68 168l77 -35z" />
    <glyph glyph-name="Ocircumflex" unicode="&#xd4;" horiz-adv-x="534" 
d="M260 11q-111 0 -190 104t-79 252q0 147 79 251.5t190 104.5t190 -104.5t79 -251.5q0 -148 -79 -252t-190 -104zM241 158q44 0 79.5 67.5t45.5 168.5q2 24 2 46q0 80 -24.5 125.5t-67.5 46.5q-44 0 -79.5 -67.5t-45.5 -168.5q-2 -24 -2 -46q0 -80 24.5 -125.5t67.5 -46.5z
M333 786l-57 108l-62 -107l-71 32l114 161l38 -2l105 -152z" />
    <glyph glyph-name="Otilde" unicode="&#xd5;" horiz-adv-x="534" 
d="M260 11q-111 0 -190 104t-79 252q0 147 79 251.5t190 104.5t190 -104.5t79 -251.5q0 -148 -79 -252t-190 -104zM241 158q44 0 79.5 67.5t45.5 168.5q2 24 2 46q0 80 -24.5 125.5t-67.5 46.5q-44 0 -79.5 -67.5t-45.5 -168.5q-2 -24 -2 -46q0 -80 24.5 -125.5t67.5 -46.5z
M154 755l-36 62q13 22 36 34.5t48 12.5q23 -1 58 -17q45 -20 69 -20q32 0 48 33l25 -61q-19 -41 -57 -41q-29 0 -61 14l-14 5q-29 11 -57 11q-39 0 -59 -33z" />
    <glyph glyph-name="Odieresis" unicode="&#xd6;" horiz-adv-x="534" 
d="M260 11q-111 0 -190 104t-79 252q0 147 79 251.5t190 104.5t190 -104.5t79 -251.5q0 -148 -79 -252t-190 -104zM241 158q44 0 79.5 67.5t45.5 168.5q2 24 2 46q0 80 -24.5 125.5t-67.5 46.5q-44 0 -79.5 -67.5t-45.5 -168.5q-2 -24 -2 -46q0 -80 24.5 -125.5t67.5 -46.5z
M189 761q-28 0 -48 19.5t-20 47.5q0 29 20 48.5t48 19.5t48 -19.5t20 -48.5q0 -28 -20 -47.5t-48 -19.5zM339 761q-28 0 -48 19.5t-20 47.5q0 29 20 48.5t48 19.5t48 -19.5t20 -48.5q0 -28 -20 -47.5t-48 -19.5z" />
    <glyph glyph-name="multiply" unicode="&#xd7;" horiz-adv-x="319" 
d="M268 152l-109 98l-109 -98l-50 55l95 101l-95 86l70 75l89 -94l90 94l70 -75l-96 -86l96 -101z" />
    <glyph glyph-name="Oslash" unicode="&#xd8;" horiz-adv-x="534" 
d="M226 160q5 -1 11 -2h4q44 0 79.5 67.5t45.5 168.5q2 24 2 46q0 37 -5 66zM156 256l111 355q-39 -6 -70 -66q-36 -68 -46 -169q-2 -24 -2 -46q0 -42 7 -74zM421 652q15 -15 29 -33q79 -105 79 -252q0 -148 -79 -252t-190 -104q-46 0 -86 18l-28 -72l-79 17l33 106
q-15 16 -30 35q-79 104 -79 252q0 147 79 251.5t190 104.5q21 0 41 -4l18 58l134 -44z" />
    <glyph glyph-name="Ugrave" unicode="&#xd9;" horiz-adv-x="520" 
d="M252 4h-7q-92 6 -140 67.5t-64.5 149.5t-16.5 169q0 74 7 125l6 51l-19 1l11 162h212l-8 -66q-9 -67 -17.5 -163t-8.5 -185q0 -194 52 -194q7 0 14 3q38 19 58.5 87t27.5 159t7 174q0 76 -3 128l-3 53l130 1l2 -35q2 -36 2 -92q0 -284 -65 -445q-60 -150 -177 -150z
M279 783l-96 169l77 35l68 -168z" />
    <glyph glyph-name="Uacute" unicode="&#xda;" horiz-adv-x="520" 
d="M252 4h-7q-92 6 -140 67.5t-64.5 149.5t-16.5 169q0 74 7 125l6 51l-19 1l11 162h212l-8 -66q-9 -67 -17.5 -163t-8.5 -185q0 -194 52 -194q7 0 14 3q38 19 58.5 87t27.5 159t7 174q0 76 -3 128l-3 53l130 1l2 -35q2 -36 2 -92q0 -284 -65 -445q-60 -150 -177 -150z
M260 784l-49 36l68 168l77 -35z" />
    <glyph glyph-name="Ucircumflex" unicode="&#xdb;" horiz-adv-x="520" 
d="M252 4h-7q-92 6 -140 67.5t-64.5 149.5t-16.5 169q0 74 7 125l6 51l-19 1l11 162h212l-8 -66q-9 -67 -17.5 -163t-8.5 -185q0 -194 52 -194q7 0 14 3q38 19 58.5 87t27.5 159t7 174q0 76 -3 128l-3 53l130 1l2 -35q2 -36 2 -92q0 -284 -65 -445q-60 -150 -177 -150z
M327 792l-57 108l-62 -107l-71 32l114 161l38 -2l105 -152z" />
    <glyph glyph-name="Udieresis" unicode="&#xdc;" horiz-adv-x="520" 
d="M252 4h-7q-92 6 -140 67.5t-64.5 149.5t-16.5 169q0 74 7 125l6 51l-19 1l11 162h212l-8 -66q-9 -67 -17.5 -163t-8.5 -185q0 -194 52 -194q7 0 14 3q38 19 58.5 87t27.5 159t7 174q0 76 -3 128l-3 53l130 1l2 -35q2 -36 2 -92q0 -284 -65 -445q-60 -150 -177 -150z
M216 772q-28 0 -48 19.5t-20 47.5q0 29 20 48.5t48 19.5t48 -19.5t20 -48.5q0 -28 -20 -47.5t-48 -19.5zM366 772q-28 0 -48 19.5t-20 47.5q0 29 20 48.5t48 19.5t48 -19.5t20 -48.5q0 -28 -20 -47.5t-48 -19.5z" />
    <glyph glyph-name="Yacute" unicode="&#xdd;" horiz-adv-x="566" 
d="M276 1q-79 0 -140 56.5t-61 130.5q0 16 3 32l143 -30q-4 -11 -4 -21q0 -28 22 -46.5t51 -18.5q24 0 47.5 15.5t39.5 52t19 96.5q-75 -48 -141 -48q-94 0 -157 80.5t-63 203.5l2 40l-31 2l14 183l223 -7q-30 -123 -30 -234q0 -158 81 -158l10 1q85 13 85 185q0 61 -7 117
q-6 43 -13 83l161 10q11 -114 11 -208q0 -146 -23 -245.5t-62 -159t-86 -86t-94 -26.5zM310 786l-49 36l68 168l77 -35z" />
    <glyph glyph-name="Thorn" unicode="&#xde;" 
 />
    <glyph glyph-name="germandbls" unicode="&#xdf;" horiz-adv-x="535" 
d="M23 -150l-8 88q-7 87 -7 206q0 190 29 316q41 173 151 228q50 25 101 25q88 -2 144 -43q51 -37 75.5 -94t24.5 -119q0 -80 -38 -149.5t-110 -99.5q40 -25 59.5 -60t19.5 -72q0 -41 -22 -78.5t-64.5 -61t-102.5 -23.5q-42 0 -92 14l16 93q32 -8 56 -8q46 0 67 21t21 47
q0 27 -22 50.5t-62 23.5l-14 -1l4 86q69 17 103 78.5t34 128.5q0 54 -22 97t-65 52l-17 1q-55 0 -86 -42.5t-43.5 -111.5t-12.5 -151q0 -192 47 -432z" />
    <glyph glyph-name="agrave" unicode="&#xe0;" horiz-adv-x="456" 
d="M248 -35l-5 138h-123l-17 -126l-135 5l164 754l201 10l136 -737zM234 208l-36 368l-62 -366zM250 785l-96 169l77 35l68 -168z" />
    <glyph glyph-name="aacute" unicode="&#xe1;" horiz-adv-x="456" 
d="M248 -35l-5 138h-123l-17 -126l-135 5l164 754l201 10l136 -737zM234 208l-36 368l-62 -366zM244 792l-49 36l68 168l77 -35z" />
    <glyph glyph-name="acircumflex" unicode="&#xe2;" horiz-adv-x="456" 
d="M248 -35l-5 138h-123l-17 -126l-135 5l164 754l201 10l136 -737zM234 208l-36 368l-62 -366zM302 783l-57 108l-62 -107l-71 32l114 161l38 -2l105 -152z" />
    <glyph glyph-name="atilde" unicode="&#xe3;" horiz-adv-x="456" 
d="M248 -35l-5 138h-123l-17 -126l-135 5l164 754l201 10l136 -737zM234 208l-36 368l-62 -366zM118 776l-36 62q13 22 36 34.5t48 12.5q23 -1 58 -17q45 -20 69 -20q32 0 48 33l25 -61q-19 -41 -57 -41q-29 0 -61 14l-14 5q-29 11 -57 11q-39 0 -59 -33z" />
    <glyph glyph-name="adieresis" unicode="&#xe4;" horiz-adv-x="456" 
d="M248 -35l-5 138h-123l-17 -126l-135 5l164 754l201 10l136 -737zM234 208l-36 368l-62 -366zM155 785q-28 0 -48 19.5t-20 47.5q0 29 20 48.5t48 19.5t48 -19.5t20 -48.5q0 -28 -20 -47.5t-48 -19.5zM305 785q-28 0 -48 19.5t-20 47.5q0 29 20 48.5t48 19.5t48 -19.5
t20 -48.5q0 -28 -20 -47.5t-48 -19.5z" />
    <glyph glyph-name="aring" unicode="&#xe5;" horiz-adv-x="456" 
d="M248 -35l-5 138h-123l-17 -126l-135 5l164 754l201 10l136 -737zM234 208l-36 368l-62 -366zM222 780q-39 0 -67 27.5t-28 66.5t28 66.5t67 27.5t66.5 -27.5t27.5 -66.5t-27.5 -66.5t-66.5 -27.5zM222 845q12 0 20.5 8.5t8.5 20.5t-8.5 20.5t-20.5 8.5t-20.5 -8.5
t-8.5 -20.5t8.5 -20.5t20.5 -8.5z" />
    <glyph glyph-name="ae" unicode="&#xe6;" horiz-adv-x="692" 
d="M234 208l-36 368l-62 -366zM463 8l-215 -43l-5 138h-123l-17 -126l-135 5l164 754l201 10l1 -5l369 1l-13 -174h-93l2 19l-134 3l-7 -304h110l-10 -91l-102 -1l-2 -84l182 4l-9 -111z" />
    <glyph glyph-name="ccedilla" unicode="&#xe7;" horiz-adv-x="402" 
d="M183 -9q-32 13 -61 38q-58 49 -94 129t-36 175l1 25q9 141 49.5 227t97 124.5t111.5 38.5q57 0 99 -35.5t49 -96.5l-80 -29q-20 36 -41 36q-36 0 -65.5 -84.5t-37.5 -190.5l-1 -20q0 -43 9.5 -100.5t30 -101.5t53.5 -44q31 0 75 53l53 -69q-35 -45 -74 -65.5t-77 -20.5
h-13l-2 -16h11q47 0 69 -29t22 -63v-2q-2 -44 -29 -66t-58 -22t-55.5 19.5t-24.5 57.5v4l7 9q6 -11 17.5 -16.5t23.5 -5.5q15 0 26.5 8.5t11.5 26.5v2q-2 22 -16.5 33t-32 13.5t-26.5 2.5h-5z" />
    <glyph glyph-name="egrave" unicode="&#xe8;" horiz-adv-x="447" 
d="M363 3l-308 9l-13 578l-32 2v149l428 1l-13 -174h-92l1 19l-133 3l-8 -304h110l-10 -91l-102 -1l-2 -84l182 4zM229 790l-96 169l77 35l68 -168z" />
    <glyph glyph-name="eacute" unicode="&#xe9;" horiz-adv-x="447" 
d="M363 3l-308 9l-13 578l-32 2v149l428 1l-13 -174h-92l1 19l-133 3l-8 -304h110l-10 -91l-102 -1l-2 -84l182 4zM213 787l-49 36l68 168l77 -35z" />
    <glyph glyph-name="ecircumflex" unicode="&#xea;" horiz-adv-x="447" 
d="M363 3l-308 9l-13 578l-32 2v149l428 1l-13 -174h-92l1 19l-133 3l-8 -304h110l-10 -91l-102 -1l-2 -84l182 4zM286 792l-57 108l-62 -107l-71 32l114 161l38 -2l105 -152z" />
    <glyph glyph-name="edieresis" unicode="&#xeb;" horiz-adv-x="447" 
d="M363 3l-308 9l-13 578l-32 2v149l428 1l-13 -174h-92l1 19l-133 3l-8 -304h110l-10 -91l-102 -1l-2 -84l182 4zM149 781q-28 0 -48 19.5t-20 47.5q0 29 20 48.5t48 19.5t48 -19.5t20 -48.5q0 -28 -20 -47.5t-48 -19.5zM299 781q-28 0 -48 19.5t-20 47.5q0 29 20 48.5
t48 19.5t48 -19.5t20 -48.5q0 -28 -20 -47.5t-48 -19.5z" />
    <glyph glyph-name="igrave" unicode="&#xec;" horiz-adv-x="267" 
d="M191 1l-155 5l15 564l-42 2l13 145l223 -2zM151 759l-96 169l77 35l68 -168z" />
    <glyph glyph-name="iacute" unicode="&#xed;" horiz-adv-x="267" 
d="M191 1l-155 5l15 564l-42 2l13 145l223 -2zM124 777l-49 36l68 168l77 -35z" />
    <glyph glyph-name="icircumflex" unicode="&#xee;" horiz-adv-x="267" 
d="M191 1l-155 5l15 564l-42 2l13 145l223 -2zM197 771l-57 108l-62 -107l-71 32l114 161l38 -2l105 -152z" />
    <glyph glyph-name="idieresis" unicode="&#xef;" horiz-adv-x="267" 
d="M191 1l-155 5l15 564l-42 2l13 145l223 -2zM56 758q-28 0 -48 19.5t-20 47.5q0 29 20 48.5t48 19.5t48 -19.5t20 -48.5q0 -28 -20 -47.5t-48 -19.5zM206 758q-28 0 -48 19.5t-20 47.5q0 29 20 48.5t48 19.5t48 -19.5t20 -48.5q0 -28 -20 -47.5t-48 -19.5z" />
    <glyph glyph-name="eth" unicode="&#xf0;" 
 />
    <glyph glyph-name="ntilde" unicode="&#xf1;" horiz-adv-x="563" 
d="M153 -23l-120 2l1 608h-16l2 133l187 3l192 -475l5 475h134l-45 -741h-171l-160 379zM172 755l-36 62q13 22 36 34.5t48 12.5q23 -1 58 -17q45 -20 69 -20q32 0 48 33l25 -61q-19 -41 -57 -41q-29 0 -61 14l-14 5q-29 11 -57 11q-39 0 -59 -33z" />
    <glyph glyph-name="ograve" unicode="&#xf2;" horiz-adv-x="534" 
d="M260 11q-111 0 -190 104t-79 252q0 147 79 251.5t190 104.5t190 -104.5t79 -251.5q0 -148 -79 -252t-190 -104zM241 158q44 0 79.5 67.5t45.5 168.5q2 24 2 46q0 80 -24.5 125.5t-67.5 46.5q-44 0 -79.5 -67.5t-45.5 -168.5q-2 -24 -2 -46q0 -80 24.5 -125.5t67.5 -46.5z
M260 773l-96 169l77 35l68 -168z" />
    <glyph glyph-name="oacute" unicode="&#xf3;" horiz-adv-x="534" 
d="M260 11q-111 0 -190 104t-79 252q0 147 79 251.5t190 104.5t190 -104.5t79 -251.5q0 -148 -79 -252t-190 -104zM241 158q44 0 79.5 67.5t45.5 168.5q2 24 2 46q0 80 -24.5 125.5t-67.5 46.5q-44 0 -79.5 -67.5t-45.5 -168.5q-2 -24 -2 -46q0 -80 24.5 -125.5t67.5 -46.5z
M260 779l-49 36l68 168l77 -35z" />
    <glyph glyph-name="ocircumflex" unicode="&#xf4;" horiz-adv-x="534" 
d="M260 11q-111 0 -190 104t-79 252q0 147 79 251.5t190 104.5t190 -104.5t79 -251.5q0 -148 -79 -252t-190 -104zM241 158q44 0 79.5 67.5t45.5 168.5q2 24 2 46q0 80 -24.5 125.5t-67.5 46.5q-44 0 -79.5 -67.5t-45.5 -168.5q-2 -24 -2 -46q0 -80 24.5 -125.5t67.5 -46.5z
M333 786l-57 108l-62 -107l-71 32l114 161l38 -2l105 -152z" />
    <glyph glyph-name="otilde" unicode="&#xf5;" horiz-adv-x="534" 
d="M260 11q-111 0 -190 104t-79 252q0 147 79 251.5t190 104.5t190 -104.5t79 -251.5q0 -148 -79 -252t-190 -104zM241 158q44 0 79.5 67.5t45.5 168.5q2 24 2 46q0 80 -24.5 125.5t-67.5 46.5q-44 0 -79.5 -67.5t-45.5 -168.5q-2 -24 -2 -46q0 -80 24.5 -125.5t67.5 -46.5z
M154 755l-36 62q13 22 36 34.5t48 12.5q23 -1 58 -17q45 -20 69 -20q32 0 48 33l25 -61q-19 -41 -57 -41q-29 0 -61 14l-14 5q-29 11 -57 11q-39 0 -59 -33z" />
    <glyph glyph-name="odieresis" unicode="&#xf6;" horiz-adv-x="534" 
d="M260 11q-111 0 -190 104t-79 252q0 147 79 251.5t190 104.5t190 -104.5t79 -251.5q0 -148 -79 -252t-190 -104zM241 158q44 0 79.5 67.5t45.5 168.5q2 24 2 46q0 80 -24.5 125.5t-67.5 46.5q-44 0 -79.5 -67.5t-45.5 -168.5q-2 -24 -2 -46q0 -80 24.5 -125.5t67.5 -46.5z
M189 761q-28 0 -48 19.5t-20 47.5q0 29 20 48.5t48 19.5t48 -19.5t20 -48.5q0 -28 -20 -47.5t-48 -19.5zM339 761q-28 0 -48 19.5t-20 47.5q0 29 20 48.5t48 19.5t48 -19.5t20 -48.5q0 -28 -20 -47.5t-48 -19.5z" />
    <glyph glyph-name="divide" unicode="&#xf7;" horiz-adv-x="371" 
d="M189 95q-28 0 -48 20t-20 48t20 48t48 20t47.5 -20t19.5 -48t-19.5 -48t-47.5 -20zM189 392q-28 0 -48 20t-20 48t20 48t48 20t47.5 -20t19.5 -48t-19.5 -48t-47.5 -20zM371 265h-371v92h371v-92z" />
    <glyph glyph-name="oslash" unicode="&#xf8;" horiz-adv-x="534" 
d="M226 160q5 -1 11 -2h4q44 0 79.5 67.5t45.5 168.5q2 24 2 46q0 37 -5 66zM156 256l111 355q-39 -6 -70 -66q-36 -68 -46 -169q-2 -24 -2 -46q0 -42 7 -74zM421 652q15 -15 29 -33q79 -105 79 -252q0 -148 -79 -252t-190 -104q-46 0 -86 18l-28 -72l-79 17l33 106
q-15 16 -30 35q-79 104 -79 252q0 147 79 251.5t190 104.5q21 0 41 -4l18 58l134 -44z" />
    <glyph glyph-name="ugrave" unicode="&#xf9;" horiz-adv-x="520" 
d="M252 4h-7q-92 6 -140 67.5t-64.5 149.5t-16.5 169q0 74 7 125l6 51l-19 1l11 162h212l-8 -66q-9 -67 -17.5 -163t-8.5 -185q0 -194 52 -194q7 0 14 3q38 19 58.5 87t27.5 159t7 174q0 76 -3 128l-3 53l130 1l2 -35q2 -36 2 -92q0 -284 -65 -445q-60 -150 -177 -150z
M279 783l-96 169l77 35l68 -168z" />
    <glyph glyph-name="uacute" unicode="&#xfa;" horiz-adv-x="520" 
d="M252 4h-7q-92 6 -140 67.5t-64.5 149.5t-16.5 169q0 74 7 125l6 51l-19 1l11 162h212l-8 -66q-9 -67 -17.5 -163t-8.5 -185q0 -194 52 -194q7 0 14 3q38 19 58.5 87t27.5 159t7 174q0 76 -3 128l-3 53l130 1l2 -35q2 -36 2 -92q0 -284 -65 -445q-60 -150 -177 -150z
M260 784l-49 36l68 168l77 -35z" />
    <glyph glyph-name="ucircumflex" unicode="&#xfb;" horiz-adv-x="520" 
d="M252 4h-7q-92 6 -140 67.5t-64.5 149.5t-16.5 169q0 74 7 125l6 51l-19 1l11 162h212l-8 -66q-9 -67 -17.5 -163t-8.5 -185q0 -194 52 -194q7 0 14 3q38 19 58.5 87t27.5 159t7 174q0 76 -3 128l-3 53l130 1l2 -35q2 -36 2 -92q0 -284 -65 -445q-60 -150 -177 -150z
M327 792l-57 108l-62 -107l-71 32l114 161l38 -2l105 -152z" />
    <glyph glyph-name="udieresis" unicode="&#xfc;" horiz-adv-x="520" 
d="M252 4h-7q-92 6 -140 67.5t-64.5 149.5t-16.5 169q0 74 7 125l6 51l-19 1l11 162h212l-8 -66q-9 -67 -17.5 -163t-8.5 -185q0 -194 52 -194q7 0 14 3q38 19 58.5 87t27.5 159t7 174q0 76 -3 128l-3 53l130 1l2 -35q2 -36 2 -92q0 -284 -65 -445q-60 -150 -177 -150z
M216 772q-28 0 -48 19.5t-20 47.5q0 29 20 48.5t48 19.5t48 -19.5t20 -48.5q0 -28 -20 -47.5t-48 -19.5zM366 772q-28 0 -48 19.5t-20 47.5q0 29 20 48.5t48 19.5t48 -19.5t20 -48.5q0 -28 -20 -47.5t-48 -19.5z" />
    <glyph glyph-name="yacute" unicode="&#xfd;" horiz-adv-x="566" 
d="M276 1q-79 0 -140 56.5t-61 130.5q0 16 3 32l143 -30q-4 -11 -4 -21q0 -28 22 -46.5t51 -18.5q24 0 47.5 15.5t39.5 52t19 96.5q-75 -48 -141 -48q-94 0 -157 80.5t-63 203.5l2 40l-31 2l14 183l223 -7q-30 -123 -30 -234q0 -158 81 -158l10 1q85 13 85 185q0 61 -7 117
q-6 43 -13 83l161 10q11 -114 11 -208q0 -146 -23 -245.5t-62 -159t-86 -86t-94 -26.5zM310 786l-49 36l68 168l77 -35z" />
    <glyph glyph-name="thorn" unicode="&#xfe;" 
 />
    <glyph glyph-name="ydieresis" unicode="&#xff;" horiz-adv-x="566" 
d="M276 1q-79 0 -140 56.5t-61 130.5q0 16 3 32l143 -30q-4 -11 -4 -21q0 -28 22 -46.5t51 -18.5q24 0 47.5 15.5t39.5 52t19 96.5q-75 -48 -141 -48q-94 0 -157 80.5t-63 203.5l2 40l-31 2l14 183l223 -7q-30 -123 -30 -234q0 -158 81 -158l10 1q85 13 85 185q0 61 -7 117
q-6 43 -13 83l161 10q11 -114 11 -208q0 -146 -23 -245.5t-62 -159t-86 -86t-94 -26.5zM216 772q-28 0 -48 19.5t-20 47.5q0 29 20 48.5t48 19.5t48 -19.5t20 -48.5q0 -28 -20 -47.5t-48 -19.5zM366 772q-28 0 -48 19.5t-20 47.5q0 29 20 48.5t48 19.5t48 -19.5t20 -48.5
q0 -28 -20 -47.5t-48 -19.5z" />
    <glyph glyph-name="dotlessi" unicode="&#x131;" 
 />
    <glyph glyph-name="gravecomb" unicode="&#x300;" horiz-adv-x="145" 
d="M96 665l-96 169l77 35l68 -168z" />
    <glyph glyph-name="acutecomb" unicode="&#x301;" horiz-adv-x="145" 
d="M49 665l-49 36l68 168l77 -35z" />
    <glyph glyph-name="uni0302" unicode="&#x302;" horiz-adv-x="257" 
d="M190 661l-57 108l-62 -107l-71 32l114 161l38 -2l105 -152z" />
    <glyph glyph-name="tildecomb" unicode="&#x303;" horiz-adv-x="284" 
d="M36 687l-36 62q13 22 36 34.5t48 12.5q23 -1 58 -17q45 -20 69 -20q32 0 48 33l25 -61q-19 -41 -57 -41q-29 0 -61 14l-14 5q-29 11 -57 11q-39 0 -59 -33z" />
    <glyph glyph-name="uni0304" unicode="&#x304;" 
 />
    <glyph glyph-name="uni0307" unicode="&#x307;" horiz-adv-x="136" 
d="M68 694q-28 0 -48 19.5t-20 47.5q0 29 20 48.5t48 19.5t48 -19.5t20 -48.5q0 -28 -20 -47.5t-48 -19.5z" />
    <glyph glyph-name="uni0308" unicode="&#x308;" horiz-adv-x="286" 
d="M68 694q-28 0 -48 19.5t-20 47.5q0 29 20 48.5t48 19.5t48 -19.5t20 -48.5q0 -28 -20 -47.5t-48 -19.5zM218 694q-28 0 -48 19.5t-20 47.5q0 29 20 48.5t48 19.5t48 -19.5t20 -48.5q0 -28 -20 -47.5t-48 -19.5z" />
    <glyph glyph-name="uni030A" unicode="&#x30a;" horiz-adv-x="189" 
d="M95 670q-39 0 -67 27.5t-28 66.5t28 66.5t67 27.5t66.5 -27.5t27.5 -66.5t-27.5 -66.5t-66.5 -27.5zM95 735q12 0 20.5 8.5t8.5 20.5t-8.5 20.5t-20.5 8.5t-20.5 -8.5t-8.5 -20.5t8.5 -20.5t20.5 -8.5z" />
    <glyph glyph-name="uni030C" unicode="&#x30c;" horiz-adv-x="257" 
d="M114 661l-114 161l72 32l61 -107l57 108l67 -40l-104 -152z" />
    <glyph glyph-name="uni0327" unicode="&#x327;" horiz-adv-x="167" 
d="M80 -57q-31 0 -55.5 19.5t-24.5 57.5v4l7 9q6 -11 17.5 -16.5t23.5 -5.5q15 0 26.5 8.5t11.5 27.5q-2 23 -16.5 34t-32 13.5t-26.5 2.5h-5l22 95h45l-8 -67h11q47 0 69 -29t22 -64q-2 -45 -29 -67t-58 -22z" />
    <glyph glyph-name="endash" unicode="&#x2013;" 
 />
    <glyph glyph-name="emdash" unicode="&#x2014;" 
 />
    <glyph glyph-name="quoteleft" unicode="&#x2018;" horiz-adv-x="135" 
d="M67 602q-25 0 -43 16q-24 21 -24 52q0 30 20 69.5t36 61.5l49 -16l-16 -51q46 -19 46 -64q0 -28 -19.5 -48t-48.5 -20z" />
    <glyph glyph-name="quoteright" unicode="&#x2019;" horiz-adv-x="135" 
d="M79 602l-49 16l16 51q-46 19 -46 64q0 29 20 48.5t48 19.5q25 0 43 -16q24 -21 24 -52q0 -30 -20 -69.5t-36 -61.5z" />
    <glyph glyph-name="quotesinglbase" unicode="&#x201a;" horiz-adv-x="136" 
d="M79 -172l-48 16l16 50q-21 7 -34 25t-13 40q0 28 20 47.5t48 19.5q25 0 45 -17t23 -49q0 -30 -20.5 -70t-36.5 -62z" />
    <glyph glyph-name="quotedblleft" unicode="&#x201c;" horiz-adv-x="282" 
d="M214 602q-25 0 -43 16q-24 21 -24 52q0 30 20 69.5t36 61.5l49 -16l-16 -51q46 -19 46 -64q0 -28 -20 -48t-48 -20zM68 602q-26 0 -45.5 17t-22.5 50q0 30 20 69.5t36 62.5l49 -16l-16 -51q47 -19 47 -64q0 -28 -20 -48t-48 -20z" />
    <glyph glyph-name="quotedblright" unicode="&#x201d;" horiz-adv-x="282" 
d="M79 602l-49 16l16 51q-46 19 -46 64q0 29 20 48.5t48 19.5q25 0 43 -16q24 -21 24 -52q0 -30 -20 -69.5t-36 -61.5zM226 602l-49 16l16 51q-47 19 -47 64q0 29 20 48.5t48 19.5q26 0 45.5 -17t22.5 -50q0 -30 -20 -69.5t-36 -62.5z" />
    <glyph glyph-name="quotedblbase" unicode="&#x201e;" horiz-adv-x="286" 
d="M-5488 -172l-48 16l16 50q-21 7 -34 25t-13 40q0 28 20 47.5t48 19.5q25 0 45 -17t23 -49q0 -30 -20.5 -70t-36.5 -62zM-5638 -172l-48 16l16 50q-21 7 -34 25t-13 40q0 28 20 47.5t48 19.5q25 0 45 -17t23 -49q0 -30 -20.5 -70t-36.5 -62z" />
    <glyph glyph-name="dagger" unicode="&#x2020;" horiz-adv-x="388" 
d="M236 -150h-91l-10 617l-132 -32l-3 107l134 -6l-3 234h126l-6 -236l137 6l-3 -107l-135 32z" />
    <glyph glyph-name="daggerdbl" unicode="&#x2021;" horiz-adv-x="389" 
d="M237 -150h-91l-5 296l-138 -33l-3 107l140 -7l-4 254l-133 -32l-3 107l135 -6l-3 234h126l-6 -236l137 6l-3 -107l-135 32l-6 -254l144 6l-3 -107l-142 35z" />
    <glyph glyph-name="bullet" unicode="&#x2022;" 
 />
    <glyph glyph-name="ellipsis" unicode="&#x2026;" 
 />
    <glyph glyph-name="guilsinglleft" unicode="&#x2039;" 
 />
    <glyph glyph-name="guilsinglright" unicode="&#x203a;" 
 />
    <glyph glyph-name="fraction" unicode="&#x2044;" 
 />
    <glyph glyph-name="fraction" unicode="&#x2215;" 
 />
    <glyph glyph-name="franc" unicode="&#x20a3;" 
 />
    <glyph glyph-name="lira" unicode="&#x20a4;" 
 />
    <glyph glyph-name="peseta" unicode="&#x20a7;" 
 />
    <glyph glyph-name="Euro" unicode="&#x20ac;" 
 />
    <glyph glyph-name="uni2116" unicode="&#x2116;" 
 />
    <glyph glyph-name="trademark" unicode="&#x2122;" 
 />
    <glyph glyph-name="partialdiff" unicode="&#x2202;" 
 />
    <glyph glyph-name="Delta" unicode="&#x2206;" 
 />
    <glyph glyph-name="product" unicode="&#x220f;" 
 />
    <glyph glyph-name="summation" unicode="&#x2211;" 
 />
    <glyph glyph-name="minus" unicode="&#x2212;" 
 />
    <glyph glyph-name="radical" unicode="&#x221a;" 
 />
    <glyph glyph-name="infinity" unicode="&#x221e;" 
 />
    <glyph glyph-name="integral" unicode="&#x222b;" 
 />
    <glyph glyph-name="approxequal" unicode="&#x2248;" 
 />
    <glyph glyph-name="lessequal" unicode="&#x2264;" 
 />
    <glyph glyph-name="greaterequal" unicode="&#x2265;" 
 />
    <glyph glyph-name="uniFB01" unicode="&#xfb01;" 
 />
    <glyph glyph-name="uniFB02" unicode="&#xfb02;" 
 />
    </font>
</defs>
</svg>
